<svg width="74" height="42" viewBox="0 0 74 42" fill="none" xmlns="http://www.w3.org/2000/svg">
<path d="M43 10V8C43 7.45312 42.5468 7 42 7H8C7.45312 7 7 7.45312 7 8V10C7 10.5469 7.45312 11 8 11V31C7.45312 31 7 31.4532 7 32V34C7 34.5468 7.45312 35 8 35H42C42.5468 35 43 34.5468 43 34V32C43 31.4532 42.5468 31 42 31V11C42.5468 11 43 10.5469 43 10ZM14 31H12V11H14V31ZM20 31H18V11H20V31ZM26 31H24V11H26V31ZM32 31H30V11H32V31ZM38 31H36V11H38V31Z" fill="#6B778C"/>
<path d="M67 10V8C67 7.45312 66.5468 7 66 7H32C31.4531 7 31 7.45312 31 8V10C31 10.5469 31.4531 11 32 11V31C31.4531 31 31 31.4532 31 32V34C31 34.5468 31.4531 35 32 35H66C66.5468 35 67 34.5468 67 34V32C67 31.4532 66.5468 31 66 31V11C66.5468 11 67 10.5469 67 10ZM38 31H36V11H38V31ZM44 31H42V11H44V31ZM50 31H48V11H50V31ZM56 31H54V11H56V31ZM62 31H60V11H62V31Z" fill="#6B778C"/>
</svg>
