<svg width="32" height="32" viewBox="0 0 32 32" fill="none" xmlns="http://www.w3.org/2000/svg">
<rect width="32" height="32" rx="4" fill="#16C6A4"/>
<path d="M24.0326 4.19043H7.96522C6.09026 4.19043 4.57031 5.75508 4.57031 7.68518V24.2251C4.57031 26.1552 6.09026 27.7198 7.96522 27.7198H24.0326C25.9075 27.7198 27.4275 26.1552 27.4275 24.2251V7.68518C27.4275 5.75508 25.9075 4.19043 24.0326 4.19043Z" fill="#16C6A4"/>
<path d="M21.2065 22.1215C21.2065 22.0521 21.1504 21.9965 21.0803 21.9965C18.969 21.9965 17.2575 20.4272 17.2575 18.4922V14.6963C17.2575 14.6268 17.2014 14.5713 17.1313 14.5713H13.0677C12.9975 14.5713 12.9414 14.6268 12.9414 14.6963V18.6311C12.9414 22.5705 16.4252 25.7624 20.7249 25.7624H21.0803C21.1504 25.7624 21.2065 25.7068 21.2065 25.6374V22.1192V22.1215Z" fill="white"/>
<path d="M19.8632 9.71756C20.5902 9.71756 21.1796 9.13414 21.1796 8.41444C21.1796 7.69475 20.5902 7.11133 19.8632 7.11133C19.1362 7.11133 18.5469 7.69475 18.5469 8.41444C18.5469 9.13414 19.1362 9.71756 19.8632 9.71756Z" fill="white"/>
<path d="M17.6245 6.72266H13.6171C13.5446 6.72266 13.4861 6.78284 13.4908 6.85459C13.4955 6.92634 13.4978 6.99578 13.4978 7.06985C13.4978 8.78959 12.3264 10.2246 10.7646 10.5718C10.7061 10.5857 10.6641 10.6343 10.6641 10.6945V14.8932C10.6641 14.9672 10.7295 15.0251 10.802 15.0182C14.7043 14.6201 17.7531 11.213 17.7531 7.06985C17.7531 6.99346 17.7531 6.9194 17.7485 6.84533C17.7485 6.77821 17.69 6.72266 17.6222 6.72266H17.6245Z" fill="white"/>
</svg>
