<svg width="16" height="16" viewBox="0 0 16 16" fill="none" xmlns="http://www.w3.org/2000/svg">
<rect width="16" height="16" rx="2" fill="#B3BAC5"/>
<path d="M12.0163 2.0957H3.98261C3.04513 2.0957 2.28516 2.87803 2.28516 3.84308V12.113C2.28516 13.0781 3.04513 13.8604 3.98261 13.8604H12.0163C12.9538 13.8604 13.7137 13.0781 13.7137 12.113V3.84308C13.7137 2.87803 12.9538 2.0957 12.0163 2.0957Z" fill="#B3BAC5"/>
<path d="M10.6033 11.0603C10.6033 11.0255 10.5752 10.9978 10.5401 10.9978C9.4845 10.9978 8.62876 10.2131 8.62876 9.24562V7.34765C8.62876 7.31293 8.6007 7.28516 8.56563 7.28516H6.53383C6.49876 7.28516 6.4707 7.31293 6.4707 7.34765V9.31506C6.4707 11.2848 8.21258 12.8807 10.3624 12.8807H10.5401C10.5752 12.8807 10.6033 12.8529 10.6033 12.8182V11.0591V11.0603Z" fill="white"/>
<path d="M9.93161 4.85976C10.2951 4.85976 10.5898 4.56804 10.5898 4.2082C10.5898 3.84835 10.2951 3.55664 9.93161 3.55664C9.56811 3.55664 9.27344 3.84835 9.27344 4.2082C9.27344 4.56804 9.56811 4.85976 9.93161 4.85976Z" fill="white"/>
<path d="M8.81227 3.36133H6.80853C6.77229 3.36133 6.74307 3.39142 6.7454 3.42729C6.74774 3.46317 6.74891 3.49789 6.74891 3.53492C6.74891 4.39479 6.16322 5.11232 5.3823 5.28591C5.35307 5.29286 5.33203 5.31716 5.33203 5.34725V7.44659C5.33203 7.48362 5.36476 7.51255 5.401 7.50908C7.35214 7.31003 8.87657 5.60648 8.87657 3.53492C8.87657 3.49673 8.87657 3.4597 8.87423 3.42266C8.87423 3.3891 8.84501 3.36133 8.81111 3.36133H8.81227Z" fill="white"/>
</svg>
