<svg width="146" height="146" viewBox="0 0 146 146" fill="none" xmlns="http://www.w3.org/2000/svg">
<rect width="146" height="146" rx="12" fill="#16C6A4"/>
<path d="M112.365 17H33.635C24.4478 17 17 24.4953 17 33.7413V112.974C17 122.22 24.4478 129.715 33.635 129.715H112.365C121.552 129.715 129 122.22 129 112.974V33.7413C129 24.4953 121.552 17 112.365 17Z" fill="#16C6A4"/>
<path d="M98.8249 103.274C98.8249 102.928 98.5499 102.652 98.2062 102.652C87.8609 102.652 79.4746 94.8345 79.4746 85.1956V66.2867C79.4746 65.9408 79.1997 65.6641 78.856 65.6641H58.9443C58.6006 65.6641 58.3257 65.9408 58.3257 66.2867V85.8873C58.3257 105.511 75.3961 121.411 96.4648 121.411H98.2062C98.5499 121.411 98.8249 121.134 98.8249 120.788V103.263V103.274Z" fill="white"/>
<path d="M92.2401 41.4923C95.8024 41.4923 98.6902 38.5861 98.6902 35.001C98.6902 31.416 95.8024 28.5098 92.2401 28.5098C88.6778 28.5098 85.79 31.416 85.79 35.001C85.79 38.5861 88.6778 41.4923 92.2401 41.4923Z" fill="white"/>
<path d="M81.2743 26.5693H61.6377C61.2825 26.5693 60.9961 26.8691 61.019 27.2265C61.0419 27.584 61.0534 27.9299 61.0534 28.2988C61.0534 36.8655 55.3136 44.0139 47.6606 45.7434C47.3742 45.8126 47.168 46.0547 47.168 46.3545V67.2696C47.168 67.6385 47.4888 67.9268 47.8439 67.8922C66.965 65.909 81.9045 48.9372 81.9045 28.2988C81.9045 27.9183 81.9045 27.5494 81.8815 27.1804C81.8815 26.8461 81.5951 26.5693 81.2629 26.5693H81.2743Z" fill="white"/>
</svg>
