<svg width="39" height="38" viewBox="0 0 39 38" fill="none" xmlns="http://www.w3.org/2000/svg">
<path fill-rule="evenodd" clip-rule="evenodd" d="M4.65625 20.7812H17.125C17.2825 20.7812 17.4335 20.8438 17.5448 20.9552C17.6562 21.0665 17.7188 21.2175 17.7188 21.375V33.8438C17.7188 34.0012 17.6562 34.1522 17.5448 34.2636C17.4335 34.3749 17.2825 34.4375 17.125 34.4375H4.65625C4.49878 34.4375 4.34776 34.3749 4.23641 34.2636C4.12506 34.1522 4.0625 34.0012 4.0625 33.8438V21.375C4.0625 21.2175 4.12506 21.0665 4.23641 20.9552C4.34776 20.8438 4.49878 20.7812 4.65625 20.7812ZM21.875 20.7812H34.3438C34.5012 20.7812 34.6522 20.8438 34.7636 20.9552C34.8749 21.0665 34.9375 21.2175 34.9375 21.375V33.8438C34.9375 34.0012 34.8749 34.1522 34.7636 34.2636C34.6522 34.3749 34.5012 34.4375 34.3438 34.4375H21.875C21.7175 34.4375 21.5665 34.3749 21.4552 34.2636C21.3438 34.1522 21.2812 34.0012 21.2812 33.8438V21.375C21.2812 21.2175 21.3438 21.0665 21.4552 20.9552C21.5665 20.8438 21.7175 20.7812 21.875 20.7812ZM13.2656 3.5625H25.7344C25.8918 3.5625 26.0429 3.62506 26.1542 3.73641C26.2656 3.84776 26.3281 3.99878 26.3281 4.15625V16.625C26.3281 16.7825 26.2656 16.9335 26.1542 17.0448C26.0429 17.1562 25.8918 17.2188 25.7344 17.2188H13.2656C13.1082 17.2188 12.9571 17.1562 12.8458 17.0448C12.7344 16.9335 12.6719 16.7825 12.6719 16.625V4.15625C12.6719 3.99878 12.7344 3.84776 12.8458 3.73641C12.9571 3.62506 13.1082 3.5625 13.2656 3.5625Z" fill="#6B778C"/>
</svg>
