<svg width="24" height="24" viewBox="0 0 24 24" fill="none" xmlns="http://www.w3.org/2000/svg">
<g clip-path="url(#clip0_3585_67820)">
<path d="M23.304 11.9997C23.304 12.3523 23.0488 12.6805 22.7963 13.0052C22.5802 13.2831 22.3661 13.5584 22.3156 13.8443C22.2647 14.133 22.3749 14.4739 22.4855 14.8162C22.6124 15.2089 22.7399 15.6033 22.625 15.9224C22.5101 16.2412 22.1651 16.4585 21.8202 16.6757C21.5192 16.8653 21.2183 17.0548 21.0707 17.3116C20.9228 17.5687 20.9121 17.9274 20.9014 18.2867C20.8891 18.6976 20.8768 19.1092 20.6595 19.3705C20.4424 19.6315 20.0474 19.7154 19.6522 19.7994C19.3057 19.873 18.959 19.9467 18.7317 20.1397C18.5047 20.3325 18.3745 20.6653 18.2444 20.9981C18.0955 21.3786 17.9466 21.7593 17.6528 21.9308C17.3594 22.102 16.9612 22.0441 16.5623 21.9862C16.2124 21.9354 15.862 21.8845 15.5817 21.9882C15.3022 22.0916 15.0687 22.3578 14.8352 22.6238C14.5674 22.9289 14.2998 23.2339 13.9633 23.2932C13.6282 23.3522 13.2761 23.1591 12.9228 22.9652C12.6118 22.7946 12.2998 22.6235 11.9978 22.6235C11.6943 22.6235 11.3784 22.7962 11.0648 22.9676C10.7118 23.1606 10.3617 23.352 10.0361 23.2932C9.70801 23.234 9.43686 22.9286 9.1659 22.6235C8.92897 22.3566 8.6922 22.09 8.41766 21.9882C8.1438 21.8867 7.79397 21.9368 7.44343 21.9871C7.04068 22.0448 6.63699 22.1027 6.34654 21.9308C6.057 21.7594 5.90678 21.3794 5.7565 20.9992C5.62483 20.666 5.49311 20.3328 5.2676 20.1397C5.04239 19.947 4.69655 19.8741 4.35026 19.8011C3.95405 19.7176 3.55726 19.6339 3.33985 19.3705C3.12306 19.1078 3.11027 18.7 3.09746 18.2916C3.08619 17.9325 3.07492 17.573 2.92487 17.3116C2.77556 17.0514 2.47657 16.8642 2.17757 16.6771C1.83443 16.4623 1.49129 16.2475 1.37437 15.9224C1.25767 15.5978 1.38456 15.2112 1.51181 14.8236C1.62315 14.4844 1.73477 14.1443 1.68371 13.8443C1.63259 13.5439 1.41346 13.2643 1.19447 12.985C0.944793 12.6665 0.695312 12.3483 0.695312 11.9997C0.695312 11.6477 0.949557 11.3212 1.20159 10.9975C1.41819 10.7194 1.63315 10.4433 1.68371 10.155C1.73471 9.86425 1.62422 9.52273 1.51349 9.1805C1.38668 8.78856 1.25957 8.39568 1.37437 8.07696C1.48903 7.75862 1.83322 7.54148 2.17704 7.32457C2.47802 7.13469 2.77871 6.94499 2.92487 6.68775C3.07038 6.43166 3.08228 6.07474 3.09421 5.71685C3.10796 5.30459 3.12175 4.89103 3.33985 4.62881C3.55696 4.36778 3.95188 4.28388 4.34711 4.19992C4.69358 4.12631 5.04027 4.05266 5.2676 3.85958C5.49463 3.66677 5.62478 3.33404 5.75494 3.00126C5.90381 2.62068 6.0527 2.24004 6.34654 2.06854C6.63991 1.89731 7.03817 1.95517 7.43699 2.01312C7.78694 2.06396 8.13732 2.11487 8.41766 2.01113C8.69707 1.90773 8.93065 1.64157 9.16414 1.3755C9.43189 1.07039 9.69953 0.7654 10.0361 0.706116C10.3711 0.647103 10.722 0.840199 11.0743 1.03398C11.3845 1.20465 11.6957 1.37584 11.9978 1.37584C12.3011 1.37584 12.6179 1.20318 12.9323 1.0318C13.2864 0.838751 13.6375 0.647325 13.9633 0.706116C14.2906 0.765201 14.5613 1.07051 14.8317 1.37547C15.0692 1.64333 15.3065 1.91091 15.5817 2.01113C15.8545 2.11047 16.2018 2.06098 16.5505 2.01131C16.954 1.95382 17.3593 1.89607 17.6528 2.06854C17.9449 2.24021 18.095 2.62142 18.245 3.00236C18.3759 3.33477 18.5067 3.66698 18.7317 3.85958C18.9569 4.05235 19.3028 4.12524 19.6491 4.19823C20.0453 4.28174 20.4421 4.36538 20.6595 4.62881C20.8769 4.89221 20.8891 5.30158 20.9014 5.71104C20.9121 6.06904 20.9229 6.42711 21.0707 6.68775C21.2185 6.94845 21.5191 7.13584 21.82 7.32338C22.164 7.53778 22.5082 7.75238 22.625 8.07696C22.7417 8.40149 22.6148 8.78807 22.4875 9.17575C22.3762 9.51495 22.2646 9.855 22.3156 10.155C22.3667 10.4554 22.5859 10.735 22.8048 11.0143C23.0545 11.3328 23.304 11.651 23.304 11.9997Z" fill="#FF6224"/>
<path d="M23.304 11.9997C23.304 12.3523 23.0488 12.6805 22.7963 13.0052C22.5802 13.2831 22.3661 13.5584 22.3156 13.8443C22.2647 14.133 22.3749 14.4739 22.4855 14.8162C22.6124 15.2089 22.7399 15.6033 22.625 15.9224C22.5101 16.2412 22.1651 16.4585 21.8202 16.6757C21.5192 16.8653 21.2183 17.0548 21.0707 17.3116C20.9228 17.5687 20.9121 17.9274 20.9014 18.2867C20.8891 18.6976 20.8768 19.1092 20.6595 19.3705C20.4424 19.6315 20.0474 19.7154 19.6522 19.7994C19.3057 19.873 18.959 19.9467 18.7317 20.1397C18.5047 20.3325 18.3745 20.6653 18.2444 20.9981C18.0955 21.3786 17.9466 21.7593 17.6528 21.9308C17.3594 22.102 16.9612 22.0441 16.5623 21.9862C16.2124 21.9354 15.862 21.8845 15.5817 21.9882C15.3022 22.0916 15.0687 22.3578 14.8352 22.6238C14.5674 22.9289 14.2998 23.2339 13.9633 23.2932C13.6282 23.3522 13.2761 23.1591 12.9228 22.9652C12.6118 22.7946 12.2998 22.6235 11.9978 22.6235C11.6943 22.6235 11.3784 22.7962 11.0648 22.9676C10.7118 23.1606 10.3617 23.352 10.0361 23.2932C9.70801 23.234 9.43686 22.9286 9.1659 22.6235C8.92897 22.3566 8.6922 22.09 8.41766 21.9882C8.1438 21.8867 7.79397 21.9368 7.44343 21.9871C7.04068 22.0448 6.63699 22.1027 6.34654 21.9308C6.057 21.7594 5.90678 21.3794 5.7565 20.9992C5.62483 20.666 5.49311 20.3328 5.2676 20.1397C5.04239 19.947 4.69655 19.8741 4.35026 19.8011C3.95405 19.7176 3.55726 19.6339 3.33985 19.3705C3.12306 19.1078 3.11027 18.7 3.09746 18.2916C3.08619 17.9325 3.07492 17.573 2.92487 17.3116C2.77556 17.0514 2.47657 16.8642 2.17757 16.6771C1.83443 16.4623 1.49129 16.2475 1.37437 15.9224C1.25767 15.5978 1.38456 15.2112 1.51181 14.8236C1.62315 14.4844 1.73477 14.1443 1.68371 13.8443C1.63259 13.5439 1.41346 13.2643 1.19447 12.985C0.944793 12.6665 0.695312 12.3483 0.695312 11.9997C0.695312 11.6477 0.949557 11.3212 1.20159 10.9975C1.41819 10.7194 1.63315 10.4433 1.68371 10.155C1.73471 9.86425 1.62422 9.52273 1.51349 9.1805C1.38668 8.78856 1.25957 8.39568 1.37437 8.07696C1.48903 7.75862 1.83322 7.54148 2.17704 7.32457C2.47802 7.13469 2.77871 6.94499 2.92487 6.68775C3.07038 6.43166 3.08228 6.07474 3.09421 5.71685C3.10796 5.30459 3.12175 4.89103 3.33985 4.62881C3.55696 4.36778 3.95188 4.28388 4.34711 4.19992C4.69358 4.12631 5.04027 4.05266 5.2676 3.85958C5.49463 3.66677 5.62478 3.33404 5.75494 3.00126C5.90381 2.62068 6.0527 2.24004 6.34654 2.06854C6.63991 1.89731 7.03817 1.95517 7.43699 2.01312C7.78694 2.06396 8.13732 2.11487 8.41766 2.01113C8.69707 1.90773 8.93065 1.64157 9.16414 1.3755C9.43189 1.07039 9.69953 0.7654 10.0361 0.706116C10.3711 0.647103 10.722 0.840199 11.0743 1.03398C11.3845 1.20465 11.6957 1.37584 11.9978 1.37584C12.3011 1.37584 12.6179 1.20318 12.9323 1.0318C13.2864 0.838751 13.6375 0.647325 13.9633 0.706116C14.2906 0.765201 14.5613 1.07051 14.8317 1.37547C15.0692 1.64333 15.3065 1.91091 15.5817 2.01113C15.8545 2.11047 16.2018 2.06098 16.5505 2.01131C16.954 1.95382 17.3593 1.89607 17.6528 2.06854C17.9449 2.24021 18.095 2.62142 18.245 3.00236C18.3759 3.33477 18.5067 3.66698 18.7317 3.85958C18.9569 4.05235 19.3028 4.12524 19.6491 4.19823C20.0453 4.28174 20.4421 4.36538 20.6595 4.62881C20.8769 4.89221 20.8891 5.30158 20.9014 5.71104C20.9121 6.06904 20.9229 6.42711 21.0707 6.68775C21.2185 6.94845 21.5191 7.13584 21.82 7.32338C22.164 7.53778 22.5082 7.75238 22.625 8.07696C22.7417 8.40149 22.6148 8.78807 22.4875 9.17575C22.3762 9.51495 22.2646 9.855 22.3156 10.155C22.3667 10.4554 22.5859 10.735 22.8048 11.0143C23.0545 11.3328 23.304 11.651 23.304 11.9997Z" stroke="white"/>
<path d="M8.11957 11.1686L9.06026 10.9707L9.85114 14.8762L9.10904 15.0317L6.89667 13.1656L7.3496 15.3993L6.41588 15.5937L5.625 11.6882L6.35665 11.5362L8.5725 13.3988L8.11957 11.1686Z" fill="white"/>
<path d="M10.5248 14.7343L9.73047 10.8323L12.4689 10.2598L12.6257 11.0444L10.8697 11.412L11.0196 12.1542L12.6675 11.8114L12.8278 12.5925L11.1763 12.9353L11.3436 13.7447L13.0995 13.3771L13.2598 14.1653L10.5248 14.7343Z" fill="white"/>
<path d="M17.7571 9.15398L18.7082 8.95605L18.1229 13.1478L17.3251 13.3139L16.0395 11.1438L15.6876 13.6568L14.8862 13.8264L12.7227 10.2072L13.7435 9.99163L15.043 12.3031L15.4054 9.64526L16.0987 9.50035L17.4331 11.8507L17.7571 9.15398Z" fill="white"/>
</g>
<defs>
<clipPath id="clip0_3585_67820">
<rect width="24" height="24" fill="white"/>
</clipPath>
</defs>
</svg>
