<svg width="574" height="255" viewBox="0 0 574 255" fill="none" xmlns="http://www.w3.org/2000/svg">
<g clip-path="url(#clip0_4253_75845)">
<rect width="574" height="255" fill="#142837"/>
<g clip-path="url(#clip1_4253_75845)">
<mask id="mask0_4253_75845" style="mask-type:luminance" maskUnits="userSpaceOnUse" x="-69" y="-326" width="1071" height="495">
<path d="M1002 -326V168.612L-69 168.612V-326L1002 -326Z" fill="white"/>
</mask>
<g mask="url(#mask0_4253_75845)">
<mask id="mask1_4253_75845" style="mask-type:luminance" maskUnits="userSpaceOnUse" x="-69" y="-326" width="1071" height="495">
<path d="M1002 168.612V-326L-69 -326V168.612L1002 168.612Z" fill="white"/>
</mask>
<g mask="url(#mask1_4253_75845)">
<path d="M459.072 43.9934L476.357 26.7096C476.695 26.372 477.187 26.2414 477.646 26.3707L486.72 28.9097C487.691 29.1827 488.01 30.4014 487.296 31.115L470.044 48.3657C469.709 48.7007 469.221 48.83 468.764 48.7047L459.654 46.1987C458.679 45.9309 458.356 44.7082 459.072 43.9934Z" fill="#00DB8F"/>
<path d="M311.594 43.7042L330.698 45.0799C331.174 45.1142 331.594 45.4017 331.797 45.833L334.792 52.1878C335.222 53.1005 334.51 54.1385 333.504 54.066L314.437 52.6929C313.966 52.6586 313.546 52.3737 313.342 51.9451L310.308 45.5877C309.873 44.6736 310.585 43.6316 311.594 43.7042Z" fill="#00DB8F"/>
<path d="M365.024 105.465L384.126 106.84C384.603 106.875 385.023 107.162 385.225 107.593L388.222 113.948C388.652 114.861 387.94 115.899 386.933 115.826L367.866 114.453C367.394 114.419 366.975 114.134 366.772 113.706L363.737 107.348C363.301 106.435 364.014 105.392 365.024 105.465Z" fill="#00DB8F"/>
<path d="M402.333 58.4467L390.758 36.9133C390.532 36.4939 390.55 35.9848 390.806 35.5825L395.852 27.6265C396.391 26.7744 397.648 26.8193 398.127 27.7082L409.679 49.1955C409.903 49.6136 409.887 50.1201 409.634 50.5224L404.612 58.5232C404.073 59.3806 402.811 59.3384 402.333 58.4467Z" fill="#00DB8F"/>
<path d="M461.818 132.511L450.243 110.979C450.017 110.56 450.034 110.053 450.289 109.651L455.337 101.691C455.877 100.839 457.133 100.885 457.612 101.774L469.163 123.262C469.388 123.68 469.371 124.186 469.119 124.588L464.096 132.589C463.559 133.447 462.298 133.403 461.818 132.511Z" fill="#00DB8F"/>
<path d="M239.982 89.8924L246.801 71.9928C246.971 71.547 247.368 71.2278 247.839 71.1579L254.787 70.1198C255.784 69.9708 256.574 70.9508 256.214 71.8925L249.407 89.7566C249.239 90.1998 248.846 90.5203 248.377 90.5915L241.415 91.6638C240.416 91.8181 239.622 90.8368 239.982 89.8924Z" fill="#00DB8F"/>
<path d="M579.369 101.107L568.47 112.147C568.136 112.486 567.644 112.619 567.184 112.492L561.998 111.077C561.025 110.811 560.697 109.596 561.407 108.877L572.285 97.8585C572.618 97.5196 573.106 97.3877 573.564 97.5103L578.771 98.9071C579.749 99.1683 580.08 100.387 579.369 101.107Z" fill="#00DB8F"/>
</g>
</g>
</g>
<g clip-path="url(#clip2_4253_75845)">
<path d="M488.498 147C495.17 147 501.724 148.755 507.502 152.091C513.28 155.427 518.078 160.225 521.413 166.003C524.749 171.781 526.504 178.336 526.503 185.007C526.501 191.679 524.744 198.233 521.406 204.01L564.498 204V223H545.498V318C545.498 320.52 544.497 322.936 542.716 324.718C540.934 326.499 538.518 327.5 535.998 327.5H383.998C381.478 327.5 379.062 326.499 377.281 324.718C375.499 322.936 374.498 320.52 374.498 318V223H355.498V204L398.59 204.01C393.877 195.848 392.365 186.226 394.347 177.012C396.33 167.799 401.666 159.65 409.319 154.15C416.972 148.649 426.396 146.189 435.761 147.246C445.126 148.304 453.764 152.804 459.998 159.873C463.557 155.82 467.941 152.575 472.856 150.355C477.771 148.134 483.105 146.991 488.498 147ZM469.498 223H450.498V318H469.498V223ZM431.498 166C426.568 165.978 421.822 167.874 418.263 171.286C414.704 174.698 412.611 179.36 412.426 184.287C412.241 189.214 413.979 194.02 417.272 197.69C420.565 201.359 425.155 203.605 430.073 203.953L431.498 204H450.498V185C450.498 180.46 448.872 176.07 445.915 172.624C442.958 169.179 438.865 166.907 434.377 166.219L432.914 166.048L431.498 166ZM488.498 166C483.705 165.999 479.088 167.809 475.573 171.069C472.058 174.328 469.905 178.795 469.546 183.575L469.498 185V204H488.498C493.292 204.002 497.908 202.191 501.423 198.932C504.938 195.673 507.091 191.205 507.451 186.425L507.498 185C507.498 179.961 505.496 175.128 501.933 171.565C498.37 168.002 493.537 166 488.498 166Z" fill="#21384A"/>
<path fill-rule="evenodd" clip-rule="evenodd" d="M521.422 204H398.596C393.887 195.841 392.376 186.223 394.358 177.012C396.341 167.799 401.677 159.65 409.33 154.15C416.983 148.649 426.407 146.189 435.772 147.246C445.137 148.304 453.775 152.804 460.009 159.873C463.568 155.82 467.952 152.575 472.867 150.355C477.782 148.134 483.116 146.991 488.509 147C495.181 147 501.735 148.755 507.513 152.091C513.291 155.427 518.089 160.225 521.424 166.003C524.76 171.781 526.515 178.336 526.514 185.007C526.512 191.675 524.757 198.226 521.422 204ZM418.274 171.286C421.833 167.874 426.579 165.978 431.509 166L432.925 166.048L434.388 166.219C438.876 166.907 442.969 169.179 445.926 172.624C448.883 176.07 450.509 180.46 450.509 185V204H431.509L430.084 203.953C425.166 203.605 420.576 201.359 417.283 197.69C413.99 194.02 412.252 189.214 412.437 184.287C412.622 179.36 414.715 174.698 418.274 171.286ZM475.584 171.069C479.099 167.809 483.716 165.999 488.509 166C493.548 166 498.381 168.002 501.944 171.565C505.507 175.128 507.509 179.961 507.509 185L507.462 186.425C507.102 191.205 504.949 195.673 501.434 198.932C497.919 202.191 493.303 204.002 488.509 204H469.509V185L469.557 183.575C469.916 178.795 472.069 174.328 475.584 171.069Z" fill="#00DB8F"/>
<rect x="448.01" y="202.999" width="24" height="126" fill="#00DB8F"/>
</g>
<path d="M49.89 87H56.778V76.71H63.456C66.06 76.71 66.984 77.802 66.984 80.322V87H73.872V80.112C73.872 77.004 72.654 74.82 69.924 74.19V74.106C72.528 73.35 74.04 71.124 74.04 67.596C74.04 62.388 70.092 59.364 62.784 59.364H49.89V87ZM56.778 72.552V64.782H62.742C65.934 64.782 67.446 66.252 67.446 68.688C67.446 71.25 65.976 72.552 63.078 72.552H56.778ZM98.1126 76.038C98.1126 69.234 94.0386 65.916 88.2426 65.916C81.2286 65.916 76.9446 69.99 76.9446 76.836C76.9446 83.43 81.2286 87.336 88.1166 87.336C94.0386 87.336 97.9866 84.564 98.1126 79.818H92.4846C92.3166 81.834 90.7206 82.716 88.2426 82.716C85.3866 82.716 83.6646 81.246 83.3706 77.844H98.1126V76.038ZM92.4846 74.442H83.5386C84.0426 71.712 85.5546 70.536 88.2426 70.536C90.8886 70.536 92.4846 71.754 92.4846 74.106V74.442ZM102.671 87H109.055V71.208H115.649V66.252H109.055V64.698C109.055 62.85 110.063 61.884 112.163 61.884C113.633 61.884 114.767 62.22 115.313 62.388V57.684C114.767 57.474 112.961 57.012 110.861 57.012C106.157 57.012 102.671 59.448 102.671 64.236V66.252H99.6045V71.208H102.671V87ZM137.529 76.038C137.529 69.234 133.455 65.916 127.659 65.916C120.645 65.916 116.361 69.99 116.361 76.836C116.361 83.43 120.645 87.336 127.533 87.336C133.455 87.336 137.403 84.564 137.529 79.818H131.901C131.733 81.834 130.137 82.716 127.659 82.716C124.803 82.716 123.081 81.246 122.787 77.844H137.529V76.038ZM131.901 74.442H122.955C123.459 71.712 124.971 70.536 127.659 70.536C130.305 70.536 131.901 71.754 131.901 74.106V74.442ZM140.323 87H146.707V78.054C146.707 73.434 148.597 71.208 151.327 71.208C153.343 71.208 154.561 72.426 154.561 75.45C154.561 76.08 154.519 77.13 154.435 78.138H160.231C160.315 77.046 160.441 75.198 160.441 74.022C160.441 68.646 157.963 65.916 153.721 65.916C149.647 65.916 147.421 68.226 146.539 72.174H146.455L146.707 66.252H140.323V87ZM199.77 82.086C198.468 82.086 196.956 81.666 195.402 80.784C197.292 78.222 198.804 75.03 199.896 71.418H194.394C193.722 73.77 192.714 75.87 191.412 77.634C189.858 76.164 188.472 74.484 187.422 72.804L187.464 72.762C192.21 72.51 194.73 69.822 194.73 65.748C194.73 61.842 192.168 58.944 186.834 58.944C181.29 58.944 178.77 62.01 178.77 65.916C178.77 67.05 179.064 68.52 179.736 70.326C174.822 70.956 172.806 74.4 172.806 77.928C172.806 83.22 176.208 87.42 183.18 87.42C186.12 87.42 188.808 86.58 191.16 84.984C193.722 86.622 196.326 87.378 199.014 87.378C199.644 87.378 200.106 87.294 200.4 87.21L200.442 82.044C200.106 82.086 199.896 82.086 199.77 82.086ZM187.212 63.648C188.64 63.648 189.312 64.74 189.312 66.084C189.312 68.058 188.556 69.15 185.784 69.486C185.364 68.352 185.112 67.386 185.112 66.378C185.112 64.782 185.784 63.648 187.212 63.648ZM179.064 77.802C179.064 76.08 179.862 74.862 181.5 74.568H181.668C183.138 77.298 185.07 79.65 187.044 81.624C185.994 82.17 184.818 82.422 183.6 82.422C180.618 82.422 179.064 80.406 179.064 77.802ZM49.89 133H69.84V127.582H56.778V121.198H66.606V116.998H56.778V110.782H69.462V105.364H49.89V133ZM80.3387 133.336C84.1187 133.336 86.4707 131.74 87.1007 128.8H87.1427C87.1427 130.06 86.9747 131.95 86.8487 133H93.2327V120.4C93.2327 114.856 89.3687 111.916 82.7747 111.916C76.4747 111.916 72.7787 114.394 72.7787 118.594C72.7787 119.014 72.8207 119.476 72.8627 119.812H78.7427C78.7007 119.392 78.7007 119.056 78.7007 118.93C78.7007 117.25 80.0867 116.242 82.4807 116.242C85.4207 116.242 86.8487 117.25 86.8487 119.77V121.156H80.0867C74.5847 121.156 72.1487 123.634 72.1487 127.036C72.1487 131.236 75.5087 133.336 80.3387 133.336ZM81.5987 129.01C79.2887 129.01 77.9027 128.17 77.9027 126.574C77.9027 125.398 78.9527 124.6 80.6747 124.6H86.8487V125.02C86.8487 127.54 84.9167 129.01 81.5987 129.01ZM96.2308 133H102.615V124.054C102.615 119.434 104.505 117.208 107.235 117.208C109.251 117.208 110.469 118.426 110.469 121.45C110.469 122.08 110.427 123.13 110.343 124.138H116.139C116.223 123.046 116.349 121.198 116.349 120.022C116.349 114.646 113.871 111.916 109.629 111.916C105.555 111.916 103.329 114.226 102.447 118.174H102.363L102.615 112.252H96.2308V133ZM119.076 133H125.46V123.13C125.46 119.182 127.476 117.208 130.836 117.208C133.65 117.208 135.33 118.51 135.33 121.45V133H141.714V120.022C141.714 114.646 138.48 111.916 133.482 111.916C128.778 111.916 126.342 113.806 125.292 117.754H125.208L125.46 112.252H119.076V133Z" fill="white"/>
<path d="M176.777 123.76C176.777 121.492 175.979 119.686 173.795 118.636C172.661 118.09 170.645 117.67 168.461 117.292V111.58C170.015 112.168 170.393 113.428 170.435 115.318H176.147C176.147 110.782 174.047 107.632 168.461 106.792V102.298H166.193V106.582C165.899 106.582 165.605 106.582 165.269 106.582H164.597V102.298H162.329V106.792C156.995 107.59 154.181 110.656 154.181 114.436C154.181 116.83 155.105 118.384 156.491 119.308C157.667 120.106 160.187 120.736 162.329 121.114V126.868C160.523 126.28 160.229 124.978 160.187 123.298H154.181C154.181 127.246 155.903 130.816 162.329 131.614V136.066H164.597V131.782C164.849 131.782 165.059 131.782 165.311 131.782H166.193V136.066H168.461V131.572C174.593 130.774 176.777 127.582 176.777 123.76ZM165.395 111.16H166.193V116.872C165.647 116.788 165.101 116.704 164.597 116.662V111.16H165.395ZM161.741 116.074C160.943 115.78 160.607 114.982 160.607 113.974C160.607 112.882 160.985 112 162.329 111.538V116.242C162.119 116.2 161.909 116.116 161.741 116.074ZM165.227 127.204H164.597V121.492L166.193 121.744V127.162C165.899 127.204 165.563 127.204 165.227 127.204ZM168.461 126.826V122.164L169.007 122.29C169.973 122.542 170.267 123.34 170.267 124.264C170.267 125.44 169.931 126.364 168.461 126.826ZM179.865 133H201.705V127.624H187.509C187.509 126.616 187.803 125.944 192.129 123.97C198.891 120.904 201.117 118.09 201.117 113.68C201.117 108.724 197.463 104.986 190.701 104.986C183.351 104.986 180.033 109.144 180.033 114.982C180.033 116.074 180.117 117.124 180.201 117.754H186.165C186.039 116.704 186.039 115.906 186.039 115.444C186.039 112.084 187.677 110.404 190.491 110.404C192.969 110.404 194.397 111.832 194.397 114.268C194.397 116.788 192.927 118.3 187.593 120.82C180.537 124.18 179.865 126.322 179.865 133ZM216.132 133.378C224.238 133.378 227.766 127.624 227.766 119.056C227.766 110.278 223.86 104.986 216.132 104.986C208.446 104.986 204.582 110.278 204.582 119.056C204.582 127.624 208.11 133.378 216.132 133.378ZM216.132 127.96C212.772 127.96 211.26 124.726 211.26 119.098C211.26 113.428 212.94 110.404 216.132 110.404C219.366 110.404 221.088 113.428 221.088 119.098C221.088 124.726 219.534 127.96 216.132 127.96Z" fill="#00DB8F"/>
<path d="M49.28 178H56.4V176.784H50.624V173.2H55.184V172.208H50.624V168.688H56.256V167.472H49.28V178ZM60.6811 178.128C62.6491 178.128 63.6411 177.344 63.9131 176.128H63.9291C63.9131 176.896 63.8811 177.632 63.8651 178H65.1451V173.184C65.1451 171.12 63.8011 169.968 61.4811 169.968C59.3371 169.968 57.9931 170.912 57.9931 172.48C57.9931 172.624 58.0091 172.848 58.0251 172.96H59.2091C59.1931 172.832 59.1931 172.72 59.1931 172.672C59.1931 171.6 59.9931 171.056 61.4491 171.056C63.0651 171.056 63.8651 171.712 63.8651 173.072V173.648H60.6491C58.5371 173.648 57.7531 174.608 57.7531 175.728C57.7531 177.216 58.8891 178.128 60.6811 178.128ZM60.9371 177.04C59.6891 177.04 58.9531 176.528 58.9531 175.728C58.9531 174.96 59.4651 174.576 60.7611 174.576H63.8651V174.688C63.8651 176.128 62.7291 177.04 60.9371 177.04ZM67.3075 178H68.5875V174.496C68.5875 172.528 69.5315 171.12 71.1475 171.12C72.4435 171.12 72.9875 171.872 72.9875 173.328C72.9875 173.824 72.9555 174.224 72.9235 174.464H74.0915C74.1235 174.176 74.1715 173.6 74.1715 173.056C74.1715 171.152 73.2275 169.968 71.4515 169.968C69.7555 169.968 68.9395 171.008 68.5715 172.384H68.5555L68.5875 170.096H67.3075V178ZM76.0888 178H77.3688V174.112C77.3688 172.224 78.5368 171.12 80.3448 171.12C82.0408 171.12 82.8088 171.984 82.8088 173.328V178H84.0888V173.056C84.0888 171.168 82.8568 169.968 80.7768 169.968C78.8888 169.968 77.7848 170.848 77.3528 172.224H77.3368L77.3688 170.096H76.0888V178ZM92.5405 178.128C94.5085 178.128 95.5005 177.344 95.7725 176.128H95.7885C95.7725 176.896 95.7405 177.632 95.7245 178H97.0045V173.184C97.0045 171.12 95.6605 169.968 93.3405 169.968C91.1965 169.968 89.8525 170.912 89.8525 172.48C89.8525 172.624 89.8685 172.848 89.8845 172.96H91.0685C91.0525 172.832 91.0525 172.72 91.0525 172.672C91.0525 171.6 91.8525 171.056 93.3085 171.056C94.9245 171.056 95.7245 171.712 95.7245 173.072V173.648H92.5085C90.3965 173.648 89.6125 174.608 89.6125 175.728C89.6125 177.216 90.7485 178.128 92.5405 178.128ZM92.7965 177.04C91.5485 177.04 90.8125 176.528 90.8125 175.728C90.8125 174.96 91.3245 174.576 92.6205 174.576H95.7245V174.688C95.7245 176.128 94.5885 177.04 92.7965 177.04ZM110.582 174.672C110.582 173.856 110.262 173.216 109.526 172.864C109.03 172.624 108.374 172.496 107.686 172.384V169.168C108.598 169.424 109.062 170.048 109.062 171.168H110.246C110.246 169.44 109.446 168.352 107.686 168.032V166.304H107.11V167.968C106.902 167.952 106.694 167.936 106.47 167.936C106.31 167.936 106.15 167.936 105.99 167.952V166.304H105.414V168.016C103.574 168.32 102.582 169.44 102.582 170.752C102.582 171.584 102.902 172.176 103.446 172.528C103.894 172.816 104.662 173.008 105.414 173.152V176.336C104.15 176.048 103.782 175.232 103.766 174.384H102.55C102.55 175.744 103.158 177.136 105.414 177.456V179.168H105.99V177.52C106.166 177.536 106.342 177.536 106.518 177.536C106.726 177.536 106.918 177.536 107.11 177.52V179.168H107.686V177.456C109.798 177.168 110.582 176.032 110.582 174.672ZM106.502 169.024C106.726 169.024 106.918 169.04 107.11 169.056V172.304C107.046 172.288 106.998 172.272 106.934 172.272L105.99 172.128V169.04C106.15 169.024 106.326 169.024 106.502 169.024ZM104.454 171.744C104.07 171.552 103.862 171.216 103.862 170.672C103.862 169.936 104.422 169.36 105.414 169.136V172.032C105.014 171.952 104.678 171.856 104.454 171.744ZM106.502 176.448C106.326 176.448 106.15 176.448 105.99 176.432V173.232C106.054 173.248 106.102 173.264 106.166 173.264C106.47 173.296 106.79 173.344 107.11 173.392V176.432C106.918 176.448 106.726 176.448 106.502 176.448ZM107.686 176.352V173.472C108.054 173.536 108.39 173.6 108.63 173.696C109.142 173.888 109.302 174.224 109.302 174.752C109.302 175.552 108.838 176.128 107.686 176.352ZM112.351 178H120.063V176.816H113.695C113.695 176.16 113.951 175.84 116.207 174.784C119.279 173.344 119.871 172.24 119.871 170.64C119.871 168.688 118.479 167.328 116.239 167.328C113.807 167.328 112.415 168.8 112.415 171.12C112.415 171.664 112.463 172.16 112.511 172.4H113.727C113.679 172.16 113.631 171.68 113.631 171.184C113.631 169.552 114.543 168.512 116.207 168.512C117.679 168.512 118.559 169.392 118.559 170.64C118.559 172.032 118.143 172.672 115.503 173.904C112.719 175.2 112.351 175.84 112.351 178ZM125.879 178.144C128.487 178.144 129.991 176.048 129.991 172.688C129.991 169.392 128.487 167.328 125.879 167.328C123.271 167.328 121.767 169.392 121.767 172.688C121.767 176.048 123.271 178.144 125.879 178.144ZM125.879 176.96C124.071 176.96 123.079 175.328 123.079 172.688C123.079 170.112 124.071 168.512 125.879 168.512C127.687 168.512 128.679 170.112 128.679 172.688C128.679 175.328 127.687 176.96 125.879 176.96ZM140.087 178.128C142.295 178.128 143.719 176.48 143.719 173.904C143.719 171.504 142.327 169.968 140.055 169.968C138.359 169.968 137.207 170.784 136.855 172.048H136.839C136.855 171.664 136.871 171.024 136.871 170.704V166.912H135.591V178H136.871C136.839 177.584 136.807 176.8 136.807 176.176H136.823C137.159 177.36 138.295 178.128 140.087 178.128ZM139.767 176.976C138.007 176.976 136.871 176 136.871 174.48V174.064C136.871 172.272 138.023 171.12 139.815 171.12C141.447 171.12 142.439 172.224 142.439 173.936C142.439 175.792 141.399 176.976 139.767 176.976ZM149.316 178.128C151.764 178.128 153.316 176.544 153.316 174.064C153.316 171.568 151.764 169.968 149.316 169.968C146.868 169.968 145.316 171.568 145.316 174.064C145.316 176.544 146.868 178.128 149.316 178.128ZM149.316 176.976C147.652 176.976 146.596 175.84 146.596 174.064C146.596 172.272 147.652 171.12 149.316 171.12C150.98 171.12 152.036 172.272 152.036 174.064C152.036 175.84 150.98 176.976 149.316 176.976ZM155.229 178H156.509V174.112C156.509 172.224 157.677 171.12 159.485 171.12C161.181 171.12 161.949 171.984 161.949 173.328V178H163.229V173.056C163.229 171.168 161.997 169.968 159.917 169.968C158.029 169.968 156.925 170.848 156.493 172.224H156.477L156.509 170.096H155.229V178ZM168.634 178.128C170.602 178.128 171.722 177.168 172.058 175.68H172.074C172.074 176.48 172.042 177.472 172.01 178H173.29V170.096H172.01V173.664C172.01 175.744 170.826 176.976 168.986 176.976C167.482 176.976 166.586 176.112 166.586 174.752V170.096H165.306V174.976C165.306 176.896 166.57 178.128 168.634 178.128ZM178.694 178.128C181.094 178.128 182.374 177.2 182.374 175.648C182.374 175.056 182.118 174.448 181.59 174.144C181.046 173.84 180.438 173.728 179.206 173.6C178.166 173.488 177.382 173.392 176.998 173.232C176.534 173.04 176.486 172.656 176.486 172.336C176.486 171.552 177.366 171.056 178.726 171.056C180.134 171.056 180.838 171.6 180.854 172.784H182.038C182.038 171.008 181.046 169.968 178.678 169.968C176.566 169.968 175.206 170.928 175.206 172.416C175.206 172.992 175.43 173.568 175.862 173.888C176.342 174.24 177.126 174.4 178.422 174.512C179.398 174.608 180.23 174.704 180.598 174.88C180.998 175.072 181.094 175.376 181.094 175.696C181.094 176.544 180.31 177.04 178.678 177.04C177.03 177.04 176.39 176.416 176.39 175.36H175.206C175.206 176.88 176.038 178.128 178.694 178.128ZM189.595 178H191.115L193.227 171.696H193.275L195.323 178H196.891L199.243 170.096H198.011L196.123 176.656H196.091L193.963 170.096H192.699L190.491 176.656H190.459L188.635 170.096H187.243L189.595 178ZM200.825 178H202.105V174.272C202.105 172.272 203.273 171.12 205.081 171.12C206.777 171.12 207.545 171.984 207.545 173.328V178H208.825V173.056C208.825 171.168 207.593 169.968 205.513 169.968C203.625 169.968 202.521 170.864 202.089 172.24H202.073C202.073 171.952 202.105 171.008 202.105 170.576V166.912H200.825V178ZM218.131 173.712C218.131 171.36 216.803 169.968 214.547 169.968C212.179 169.968 210.659 171.584 210.659 174.112C210.659 176.56 212.195 178.128 214.579 178.128C216.659 178.128 218.051 177.04 218.131 175.328H216.947C216.835 176.368 215.923 177.04 214.595 177.04C213.043 177.04 212.019 175.984 211.939 174.304H218.131V173.712ZM216.947 173.376H211.987C212.227 171.872 213.171 171.056 214.579 171.056C216.083 171.056 216.947 171.888 216.947 173.28V173.376ZM220.058 178H221.338V174.112C221.338 172.224 222.506 171.12 224.314 171.12C226.01 171.12 226.778 171.984 226.778 173.328V178H228.058V173.056C228.058 171.168 226.826 169.968 224.746 169.968C222.858 169.968 221.754 170.848 221.322 172.224H221.306L221.338 170.096H220.058V178ZM235.229 181.328C236.733 181.328 237.341 180.592 238.285 178.144L241.421 170.096H240.125L237.581 176.704H237.549L234.669 170.096H233.165L236.717 178H237.053C236.317 179.792 235.933 180.208 235.069 180.208C234.669 180.208 234.285 180.112 234.093 180.048V181.12C234.317 181.216 234.781 181.328 235.229 181.328ZM246.097 178.128C248.545 178.128 250.097 176.544 250.097 174.064C250.097 171.568 248.545 169.968 246.097 169.968C243.649 169.968 242.097 171.568 242.097 174.064C242.097 176.544 243.649 178.128 246.097 178.128ZM246.097 176.976C244.433 176.976 243.377 175.84 243.377 174.064C243.377 172.272 244.433 171.12 246.097 171.12C247.761 171.12 248.817 172.272 248.817 174.064C248.817 175.84 247.761 176.976 246.097 176.976ZM255.259 178.128C257.227 178.128 258.347 177.168 258.683 175.68H258.699C258.699 176.48 258.667 177.472 258.635 178H259.915V170.096H258.635V173.664C258.635 175.744 257.451 176.976 255.611 176.976C254.107 176.976 253.211 176.112 253.211 174.752V170.096H251.931V174.976C251.931 176.896 253.195 178.128 255.259 178.128ZM271.151 176.912H268.591C267.919 176.912 267.583 176.576 267.583 176.048C267.583 175.744 267.679 175.504 267.807 175.376C268.239 175.52 268.719 175.6 269.263 175.6C271.327 175.6 272.639 174.496 272.639 172.784C272.639 172.144 272.463 171.6 272.127 171.152C271.999 170.832 271.919 170.528 271.919 170.288C271.919 169.824 272.207 169.584 272.735 169.584C272.991 169.584 273.183 169.632 273.295 169.68V168.656C273.151 168.608 272.911 168.56 272.575 168.56C271.679 168.56 271.119 168.976 271.119 169.616C271.119 169.968 271.247 170.272 271.423 170.496V170.512C270.863 170.16 270.127 169.968 269.263 169.968C267.215 169.968 265.903 171.072 265.903 172.784C265.903 173.744 266.319 174.528 267.055 175.008V175.04C266.751 175.216 266.495 175.68 266.495 176.272C266.495 176.816 266.735 177.28 267.135 177.584V177.6C266.143 177.6 265.519 178.256 265.519 179.04C265.519 180.544 267.071 181.392 269.679 181.392C272.175 181.392 273.663 180.384 273.663 178.816C273.663 177.616 272.751 176.912 271.151 176.912ZM269.263 171.056C270.559 171.056 271.391 171.728 271.391 172.784C271.391 173.84 270.559 174.512 269.263 174.512C267.967 174.512 267.151 173.84 267.151 172.784C267.151 171.728 267.967 171.056 269.263 171.056ZM269.663 180.304C267.919 180.304 266.799 179.888 266.799 179.008C266.799 178.288 267.503 178 268.607 178H270.959C271.919 178 272.383 178.32 272.383 178.944C272.383 179.696 271.695 180.304 269.663 180.304ZM282.178 173.712C282.178 171.36 280.85 169.968 278.594 169.968C276.226 169.968 274.706 171.584 274.706 174.112C274.706 176.56 276.242 178.128 278.626 178.128C280.706 178.128 282.098 177.04 282.178 175.328H280.994C280.882 176.368 279.97 177.04 278.642 177.04C277.09 177.04 276.066 175.984 275.986 174.304H282.178V173.712ZM280.994 173.376H276.034C276.274 171.872 277.218 171.056 278.626 171.056C280.13 171.056 280.994 171.888 280.994 173.28V173.376ZM287.24 178.064C287.88 178.064 288.344 177.968 288.584 177.872V176.784C288.408 176.848 287.896 176.944 287.352 176.944C286.168 176.944 285.784 176.224 285.784 175.024V171.216H288.648V170.096H285.784V168.304H284.696L284.632 169.552C284.6 169.968 284.504 170.096 284.248 170.096H283.192V171.216H284.504V175.104C284.504 176.848 285.32 178.064 287.24 178.064ZM296.681 178.128C298.649 178.128 299.641 177.344 299.913 176.128H299.929C299.913 176.896 299.881 177.632 299.865 178H301.145V173.184C301.145 171.12 299.801 169.968 297.481 169.968C295.337 169.968 293.993 170.912 293.993 172.48C293.993 172.624 294.009 172.848 294.025 172.96H295.209C295.193 172.832 295.193 172.72 295.193 172.672C295.193 171.6 295.993 171.056 297.449 171.056C299.065 171.056 299.865 171.712 299.865 173.072V173.648H296.649C294.537 173.648 293.753 174.608 293.753 175.728C293.753 177.216 294.889 178.128 296.681 178.128ZM296.937 177.04C295.689 177.04 294.953 176.528 294.953 175.728C294.953 174.96 295.465 174.576 296.761 174.576H299.865V174.688C299.865 176.128 298.729 177.04 296.937 177.04ZM49.536 201H50.816V194.216H53.76V193.096H50.816V192.312C50.816 191.304 51.392 190.744 52.4 190.744C52.944 190.744 53.344 190.84 53.632 190.936V189.8C53.344 189.704 52.848 189.592 52.24 189.592C50.592 189.592 49.536 190.584 49.536 192.312V193.096H48.208V194.216H49.536V201ZM55.3856 201H56.6656V197.496C56.6656 195.528 57.6096 194.12 59.2256 194.12C60.5216 194.12 61.0656 194.872 61.0656 196.328C61.0656 196.824 61.0336 197.224 61.0016 197.464H62.1696C62.2016 197.176 62.2496 196.6 62.2496 196.056C62.2496 194.152 61.3056 192.968 59.5296 192.968C57.8336 192.968 57.0176 194.008 56.6496 195.384H56.6336L56.6656 193.096H55.3856V201ZM71.3189 196.712C71.3189 194.36 69.9909 192.968 67.7349 192.968C65.3669 192.968 63.8469 194.584 63.8469 197.112C63.8469 199.56 65.3829 201.128 67.7669 201.128C69.8469 201.128 71.2389 200.04 71.3189 198.328H70.1349C70.0229 199.368 69.1109 200.04 67.7829 200.04C66.2309 200.04 65.2069 198.984 65.1269 197.304H71.3189V196.712ZM70.1349 196.376H65.1749C65.4149 194.872 66.3589 194.056 67.7669 194.056C69.2709 194.056 70.1349 194.888 70.1349 196.28V196.376ZM73.277 192.088H74.653V190.472H73.277V192.088ZM73.325 201H74.605V193.096H73.325V201ZM82.2445 199.912H79.6845C79.0125 199.912 78.6765 199.576 78.6765 199.048C78.6765 198.744 78.7725 198.504 78.9005 198.376C79.3325 198.52 79.8125 198.6 80.3565 198.6C82.4205 198.6 83.7325 197.496 83.7325 195.784C83.7325 195.144 83.5565 194.6 83.2205 194.152C83.0925 193.832 83.0125 193.528 83.0125 193.288C83.0125 192.824 83.3005 192.584 83.8285 192.584C84.0845 192.584 84.2765 192.632 84.3885 192.68V191.656C84.2445 191.608 84.0045 191.56 83.6685 191.56C82.7725 191.56 82.2125 191.976 82.2125 192.616C82.2125 192.968 82.3405 193.272 82.5165 193.496V193.512C81.9565 193.16 81.2205 192.968 80.3565 192.968C78.3085 192.968 76.9965 194.072 76.9965 195.784C76.9965 196.744 77.4125 197.528 78.1485 198.008V198.04C77.8445 198.216 77.5885 198.68 77.5885 199.272C77.5885 199.816 77.8285 200.28 78.2285 200.584V200.6C77.2365 200.6 76.6125 201.256 76.6125 202.04C76.6125 203.544 78.1645 204.392 80.7725 204.392C83.2685 204.392 84.7565 203.384 84.7565 201.816C84.7565 200.616 83.8445 199.912 82.2445 199.912ZM80.3565 194.056C81.6525 194.056 82.4845 194.728 82.4845 195.784C82.4845 196.84 81.6525 197.512 80.3565 197.512C79.0605 197.512 78.2445 196.84 78.2445 195.784C78.2445 194.728 79.0605 194.056 80.3565 194.056ZM80.7565 203.304C79.0125 203.304 77.8925 202.888 77.8925 202.008C77.8925 201.288 78.5965 201 79.7005 201H82.0525C83.0125 201 83.4765 201.32 83.4765 201.944C83.4765 202.696 82.7885 203.304 80.7565 203.304ZM86.6219 201H87.9019V197.272C87.9019 195.272 89.0699 194.12 90.8779 194.12C92.5739 194.12 93.3419 194.984 93.3419 196.328V201H94.6219V196.056C94.6219 194.168 93.3899 192.968 91.3099 192.968C89.4219 192.968 88.3179 193.864 87.8859 195.24H87.8699C87.8699 194.952 87.9019 194.008 87.9019 193.576V189.912H86.6219V201ZM99.9123 201.064C100.552 201.064 101.016 200.968 101.256 200.872V199.784C101.08 199.848 100.568 199.944 100.024 199.944C98.8403 199.944 98.4563 199.224 98.4563 198.024V194.216H101.32V193.096H98.4563V191.304H97.3683L97.3043 192.552C97.2723 192.968 97.1763 193.096 96.9203 193.096H95.8643V194.216H97.1763V198.104C97.1763 199.848 97.9923 201.064 99.9123 201.064ZM107.161 201H108.441V194.216H111.385V193.096H108.441V192.312C108.441 191.304 109.017 190.744 110.025 190.744C110.569 190.744 110.969 190.84 111.257 190.936V189.8C110.969 189.704 110.473 189.592 109.865 189.592C108.217 189.592 107.161 190.584 107.161 192.312V193.096H105.833V194.216H107.161V201ZM115.956 201.128C118.404 201.128 119.956 199.544 119.956 197.064C119.956 194.568 118.404 192.968 115.956 192.968C113.508 192.968 111.956 194.568 111.956 197.064C111.956 199.544 113.508 201.128 115.956 201.128ZM115.956 199.976C114.292 199.976 113.236 198.84 113.236 197.064C113.236 195.272 114.292 194.12 115.956 194.12C117.62 194.12 118.676 195.272 118.676 197.064C118.676 198.84 117.62 199.976 115.956 199.976ZM121.87 201H123.15V197.496C123.15 195.528 124.094 194.12 125.71 194.12C127.006 194.12 127.55 194.872 127.55 196.328C127.55 196.824 127.518 197.224 127.486 197.464H128.654C128.686 197.176 128.734 196.6 128.734 196.056C128.734 194.152 127.79 192.968 126.014 192.968C124.318 192.968 123.502 194.008 123.134 195.384H123.118L123.15 193.096H121.87V201ZM132.049 201H133.569L135.681 194.696H135.729L137.777 201H139.345L141.697 193.096H140.465L138.577 199.656H138.545L136.417 193.096H135.153L132.945 199.656H132.913L131.089 193.096H129.697L132.049 201ZM145.509 201.128C147.477 201.128 148.469 200.344 148.741 199.128H148.757C148.741 199.896 148.709 200.632 148.693 201H149.973V196.184C149.973 194.12 148.629 192.968 146.309 192.968C144.165 192.968 142.821 193.912 142.821 195.48C142.821 195.624 142.837 195.848 142.853 195.96H144.037C144.021 195.832 144.021 195.72 144.021 195.672C144.021 194.6 144.821 194.056 146.277 194.056C147.893 194.056 148.693 194.712 148.693 196.072V196.648H145.477C143.365 196.648 142.581 197.608 142.581 198.728C142.581 200.216 143.717 201.128 145.509 201.128ZM145.765 200.04C144.517 200.04 143.781 199.528 143.781 198.728C143.781 197.96 144.293 197.576 145.589 197.576H148.693V197.688C148.693 199.128 147.557 200.04 145.765 200.04ZM152.136 201H153.416V197.496C153.416 195.528 154.36 194.12 155.976 194.12C157.272 194.12 157.816 194.872 157.816 196.328C157.816 196.824 157.784 197.224 157.752 197.464H158.92C158.952 197.176 159 196.6 159 196.056C159 194.152 158.056 192.968 156.28 192.968C154.584 192.968 153.768 194.008 153.4 195.384H153.384L153.416 193.096H152.136V201ZM164.357 201.128C166.117 201.128 167.173 200.248 167.477 198.888H167.509C167.493 199.592 167.477 200.296 167.429 201H168.709V189.912H167.429V194.68H167.413C167.125 193.64 166.117 192.968 164.469 192.968C162.069 192.968 160.597 194.648 160.597 197C160.597 199.464 162.069 201.128 164.357 201.128ZM164.565 199.976C162.933 199.976 161.877 198.76 161.877 197C161.877 195.352 162.933 194.12 164.581 194.12C166.325 194.12 167.429 195.144 167.429 196.744V197.144C167.429 198.872 166.309 199.976 164.565 199.976ZM178.178 196.712C178.178 194.36 176.85 192.968 174.594 192.968C172.226 192.968 170.706 194.584 170.706 197.112C170.706 199.56 172.242 201.128 174.626 201.128C176.706 201.128 178.098 200.04 178.178 198.328H176.994C176.882 199.368 175.97 200.04 174.642 200.04C173.09 200.04 172.066 198.984 171.986 197.304H178.178V196.712ZM176.994 196.376H172.034C172.274 194.872 173.218 194.056 174.626 194.056C176.13 194.056 176.994 194.888 176.994 196.28V196.376ZM180.104 201H181.384V197.496C181.384 195.528 182.328 194.12 183.944 194.12C185.24 194.12 185.784 194.872 185.784 196.328C185.784 196.824 185.752 197.224 185.72 197.464H186.888C186.92 197.176 186.968 196.6 186.968 196.056C186.968 194.152 186.024 192.968 184.248 192.968C182.552 192.968 181.736 194.008 181.368 195.384H181.352L181.384 193.096H180.104V201ZM195.709 201.064C196.349 201.064 196.813 200.968 197.053 200.872V199.784C196.877 199.848 196.365 199.944 195.821 199.944C194.637 199.944 194.253 199.224 194.253 198.024V194.216H197.117V193.096H194.253V191.304H193.165L193.101 192.552C193.069 192.968 192.973 193.096 192.717 193.096H191.661V194.216H192.973V198.104C192.973 199.848 193.789 201.064 195.709 201.064ZM202.238 201.128C204.686 201.128 206.238 199.544 206.238 197.064C206.238 194.568 204.686 192.968 202.238 192.968C199.789 192.968 198.238 194.568 198.238 197.064C198.238 199.544 199.789 201.128 202.238 201.128ZM202.238 199.976C200.574 199.976 199.518 198.84 199.518 197.064C199.518 195.272 200.574 194.12 202.238 194.12C203.902 194.12 204.958 195.272 204.958 197.064C204.958 198.84 203.902 199.976 202.238 199.976ZM211.871 192.088H213.247V190.472H211.871V192.088ZM210.559 204.328C212.479 204.328 213.199 202.984 213.199 201.208V193.096H211.919V201.208C211.919 202.44 211.455 203.176 210.351 203.176C209.999 203.176 209.535 203.096 209.247 203.032V204.152C209.503 204.232 210.095 204.328 210.559 204.328ZM219.206 201.128C221.654 201.128 223.206 199.544 223.206 197.064C223.206 194.568 221.654 192.968 219.206 192.968C216.758 192.968 215.206 194.568 215.206 197.064C215.206 199.544 216.758 201.128 219.206 201.128ZM219.206 199.976C217.542 199.976 216.486 198.84 216.486 197.064C216.486 195.272 217.542 194.12 219.206 194.12C220.87 194.12 221.926 195.272 221.926 197.064C221.926 198.84 220.87 199.976 219.206 199.976ZM225.152 192.088H226.528V190.472H225.152V192.088ZM225.2 201H226.48V193.096H225.2V201ZM228.808 201H230.088V197.112C230.088 195.224 231.256 194.12 233.064 194.12C234.76 194.12 235.528 194.984 235.528 196.328V201H236.808V196.056C236.808 194.168 235.576 192.968 233.496 192.968C231.608 192.968 230.504 193.848 230.072 195.224H230.056L230.088 193.096H228.808V201ZM245.371 201H246.715V191.672H250.203V190.472H241.883V191.672H245.371V201ZM251.261 201H252.541V197.496C252.541 195.528 253.485 194.12 255.101 194.12C256.397 194.12 256.941 194.872 256.941 196.328C256.941 196.824 256.909 197.224 256.877 197.464H258.045C258.077 197.176 258.125 196.6 258.125 196.056C258.125 194.152 257.181 192.968 255.405 192.968C253.709 192.968 252.893 194.008 252.525 195.384H252.509L252.541 193.096H251.261V201ZM262.65 201.128C264.618 201.128 265.61 200.344 265.882 199.128H265.898C265.882 199.896 265.85 200.632 265.834 201H267.114V196.184C267.114 194.12 265.77 192.968 263.45 192.968C261.306 192.968 259.962 193.912 259.962 195.48C259.962 195.624 259.978 195.848 259.994 195.96H261.178C261.162 195.832 261.162 195.72 261.162 195.672C261.162 194.6 261.962 194.056 263.418 194.056C265.034 194.056 265.834 194.712 265.834 196.072V196.648H262.618C260.506 196.648 259.722 197.608 259.722 198.728C259.722 200.216 260.858 201.128 262.65 201.128ZM262.906 200.04C261.658 200.04 260.922 199.528 260.922 198.728C260.922 197.96 261.434 197.576 262.73 197.576H265.834V197.688C265.834 199.128 264.698 200.04 262.906 200.04ZM272.716 201.128C274.476 201.128 275.532 200.248 275.836 198.888H275.868C275.852 199.592 275.836 200.296 275.788 201H277.068V189.912H275.788V194.68H275.772C275.484 193.64 274.476 192.968 272.828 192.968C270.428 192.968 268.956 194.648 268.956 197C268.956 199.464 270.428 201.128 272.716 201.128ZM272.924 199.976C271.292 199.976 270.236 198.76 270.236 197C270.236 195.352 271.292 194.12 272.94 194.12C274.684 194.12 275.788 195.144 275.788 196.744V197.144C275.788 198.872 274.668 199.976 272.924 199.976ZM286.538 196.712C286.538 194.36 285.21 192.968 282.954 192.968C280.586 192.968 279.066 194.584 279.066 197.112C279.066 199.56 280.602 201.128 282.986 201.128C285.066 201.128 286.458 200.04 286.538 198.328H285.354C285.242 199.368 284.33 200.04 283.002 200.04C281.45 200.04 280.426 198.984 280.346 197.304H286.538V196.712ZM285.354 196.376H280.394C280.634 194.872 281.578 194.056 282.986 194.056C284.49 194.056 285.354 194.888 285.354 196.28V196.376ZM296.672 201H298.24L293.792 190.472H292.192L287.744 201H289.152L290.192 198.44H295.648L296.672 201ZM290.592 197.448L292.928 191.704H292.96L295.248 197.448H290.592ZM299.841 201H301.121V189.912H299.841V201ZM303.528 201H304.808V189.912H303.528V201ZM308.464 204.328C309.968 204.328 310.576 203.592 311.52 201.144L314.656 193.096H313.36L310.816 199.704H310.784L307.904 193.096H306.4L309.952 201H310.288C309.552 202.792 309.168 203.208 308.304 203.208C307.904 203.208 307.52 203.112 307.328 203.048V204.12C307.552 204.216 308.016 204.328 308.464 204.328Z" fill="white"/>
</g>
<defs>
<clipPath id="clip0_4253_75845">
<rect width="574" height="255" fill="white"/>
</clipPath>
<clipPath id="clip1_4253_75845">
<rect width="494.612" height="1071" fill="white" transform="matrix(0 -1 -1 0 1002 168.612)"/>
</clipPath>
<clipPath id="clip2_4253_75845">
<rect width="228" height="228" fill="white" transform="translate(346 128)"/>
</clipPath>
</defs>
</svg>
