<svg width="14" height="16" viewBox="0 0 14 16" fill="none" xmlns="http://www.w3.org/2000/svg">
<g clip-path="url(#clip0_4127_70224)">
<path d="M4.3914 4.0221C4.52199 3.24975 5.52203 3.06028 5.9147 3.73349L7.70457 6.8021C7.82803 7.01375 8.03578 7.15971 8.27332 7.20168L11.7172 7.81017C12.4727 7.94366 12.6581 8.96596 11.9995 9.36737L8.9977 11.197C8.79065 11.3232 8.64787 11.5356 8.60681 11.7784L8.01157 15.2989C7.88099 16.0713 6.88095 16.2608 6.48827 15.5875L4.6984 12.5189C4.57494 12.3073 4.3672 12.1613 4.12966 12.1194L0.6858 11.5109C-0.0697412 11.3774 -0.255086 10.3551 0.403474 9.9537L3.40527 8.124C3.61232 7.9978 3.7551 7.78542 3.79616 7.5426L4.3914 4.0221Z" fill="white"/>
<path d="M11.8795 0.164047C12.1145 -0.145592 12.5995 0.0107313 12.6183 0.402165L12.6803 1.69411C12.6862 1.81718 12.7444 1.93147 12.8396 2.007L13.8393 2.7999C14.1422 3.04013 13.9893 3.53593 13.6064 3.55511L12.3426 3.61844C12.2222 3.62447 12.1104 3.68397 12.0365 3.78131L11.2609 4.8033C11.0258 5.11293 10.5408 4.95661 10.5221 4.56518L10.4601 3.27323C10.4542 3.15016 10.396 3.03588 10.3008 2.96035L9.3011 2.16744C8.9982 1.92721 9.15112 1.43142 9.53403 1.41223L10.7978 1.3489C10.9182 1.34287 11.03 1.28338 11.1039 1.18603L11.8795 0.164047Z" fill="white"/>
</g>
<defs>
<clipPath id="clip0_4127_70224">
<rect width="14" height="16" fill="white"/>
</clipPath>
</defs>
</svg>
