<svg width="98" height="18" viewBox="0 0 98 18" fill="none" xmlns="http://www.w3.org/2000/svg">
<g clip-path="url(#clip0_6040_23391)">
<path d="M32.7886 4.58504H34.7684L34.6978 7.14109H34.7158C35.1229 5.53955 36.0242 4.44125 37.8268 4.44125C39.718 4.44125 40.7605 5.70169 40.7605 7.9151C40.7605 8.47342 40.7079 9.19236 40.6719 9.57019H38.8693C38.9053 9.22907 38.9399 8.77783 38.9399 8.36482C38.9399 6.87035 38.3751 6.16976 37.2079 6.16976C35.7057 6.16976 34.7699 7.46538 34.7699 9.58854V13.4754H32.7901V4.58504H32.7886Z" fill="#142837"/>
<path d="M41.0567 10.9185C41.0567 9.56937 41.9941 8.50779 44.3254 8.50779H47.5595V7.87757C47.5595 6.54524 46.7994 5.95173 45.2627 5.95173C43.9198 5.95173 43.1597 6.47335 43.1597 7.46303C43.1597 7.51657 43.1597 7.66036 43.1777 7.80415H41.3571C41.3391 7.67871 41.3211 7.44468 41.3211 7.28253C41.3211 5.50048 42.8413 4.4389 45.3318 4.4389C47.9831 4.4389 49.5378 5.71617 49.5378 8.05654V13.473H47.558C47.5941 13.0417 47.6466 12.231 47.6466 11.512H47.6286C47.3462 12.826 46.3037 13.6184 44.3765 13.6184C42.4492 13.6184 41.0537 12.647 41.0537 10.9185H41.0567ZM47.5595 9.89213V9.72998H44.5026C43.3715 9.72998 42.8773 10.1262 42.8773 10.8283C42.8773 11.6375 43.5848 12.1055 44.7866 12.1055C46.5005 12.1055 47.561 11.2596 47.561 9.89213H47.5595Z" fill="#142837"/>
<path d="M68.4352 9.42558H61.8963C62.003 11.1357 62.9388 12.052 64.4229 12.052C65.6952 12.052 66.5605 11.4768 66.6491 10.4321H68.4337C68.3631 12.4115 66.7723 13.6168 64.3869 13.6168C61.6304 13.6168 59.8984 11.8899 59.8984 9.09976C59.8984 6.30967 61.6304 4.4389 64.3869 4.4389C66.8609 4.4389 68.4337 5.93338 68.4337 8.70358V9.42405L68.4352 9.42558ZM66.6506 8.07642C66.6506 6.74409 65.8379 6.0068 64.4064 6.0068C62.9748 6.0068 62.1802 6.72727 61.9504 8.20186H66.6506V8.07642Z" fill="#142837"/>
<path d="M76.9857 10.811H71.56L70.5701 13.4741H68.3784L73.1147 1.63306H75.6954L80.4136 13.4741H77.9576L76.9857 10.811ZM76.4555 9.37158L74.2999 3.46864H74.2638L72.0902 9.37158H76.4555Z" fill="#142837"/>
<path d="M80.6921 1.57596H82.672V13.4751H80.6921V1.57596Z" fill="#142837"/>
<path d="M83.6272 1.57596H85.607V13.4751H83.6272V1.57596Z" fill="#142837"/>
<path d="M23.7576 1.63464V3.41516H27.3627V3.42281H29.4762L27.9486 4.97847L27.3627 5.57503V13.4757H29.4838V3.41516H33.0889V1.63464H23.7576Z" fill="#142837"/>
<path d="M93.4272 4.58524L90.9712 11.4412H90.9351L90.1405 13.4741C89.4871 15.1291 89.0619 15.5972 88.1441 15.5972C87.7025 15.5972 87.2954 15.4886 87.0491 15.4167V16.9999C87.2969 17.0902 87.8272 17.234 88.4986 17.234C90.2306 17.234 91.0793 16.3162 92.0512 13.653L95.374 4.58371H93.4302L93.4272 4.58524Z" fill="#142837"/>
<path d="M85.8833 4.58588L89.3052 12.6303L90.938 11.4418L88.1636 4.58588H85.8833Z" fill="#142837"/>
<path d="M57.5917 1.57663V6.20231H57.5737C57.2207 5.15908 56.1947 4.49215 54.5514 4.49215C51.9541 4.49215 50.3108 6.34609 50.3108 9.02758C50.3108 11.7091 51.9016 13.6701 54.4282 13.6701C56.2127 13.6701 57.3093 12.7706 57.6443 11.3664H57.6788C57.6443 12.2307 57.6263 13.0032 57.5902 13.5263H59.57V1.57663H57.5902H57.5917ZM57.5917 9.17137C57.5917 10.8983 56.4966 12.015 54.8353 12.015C53.2805 12.015 52.2726 10.7913 52.2726 9.02758C52.2726 7.26389 53.2971 6.14877 54.8698 6.14877C56.4426 6.14877 57.5917 7.15681 57.5917 8.74V9.17137Z" fill="#142837"/>
<rect y="0.0909119" width="17.8182" height="17.8182" rx="1.48485" fill="#16C6A4"/>
<path d="M13.7842 2.3179H4.24122C3.12761 2.3179 2.22485 3.21103 2.22485 4.31275V13.754C2.22485 14.8557 3.12761 15.7488 4.24122 15.7488H13.7842C14.8979 15.7488 15.8006 14.8557 15.8006 13.754V4.31275C15.8006 3.21103 14.8979 2.3179 13.7842 2.3179Z" fill="#16C6A4"/>
<path d="M12.1441 12.5991C12.1441 12.5579 12.1108 12.5249 12.0691 12.5249C10.8151 12.5249 9.79861 11.5934 9.79861 10.4449V8.19171C9.79861 8.1505 9.76529 8.11752 9.72363 8.11752H7.3101C7.26844 8.11752 7.23511 8.1505 7.23511 8.19171V10.5273C7.23511 12.8656 9.30424 14.7602 11.858 14.7602H12.0691C12.1108 14.7602 12.1441 14.7272 12.1441 14.686V12.5977V12.5991Z" fill="white"/>
<path d="M11.3443 5.23661C11.7761 5.23661 12.1262 4.89031 12.1262 4.46312C12.1262 4.03594 11.7761 3.68964 11.3443 3.68964C10.9125 3.68964 10.5625 4.03594 10.5625 4.46312C10.5625 4.89031 10.9125 5.23661 11.3443 5.23661Z" fill="white"/>
<path d="M10.0177 3.45831H7.63745C7.5944 3.45831 7.55968 3.49403 7.56246 3.53662C7.56524 3.57921 7.56663 3.62043 7.56663 3.66439C7.56663 4.68518 6.8709 5.53697 5.94326 5.74305C5.90854 5.7513 5.88354 5.78015 5.88354 5.81587V8.30806C5.88354 8.35202 5.92243 8.38637 5.96548 8.38225C8.28319 8.14594 10.094 6.12361 10.094 3.66439C10.094 3.61906 10.094 3.57509 10.0913 3.53113C10.0913 3.49129 10.0565 3.45831 10.0163 3.45831H10.0177Z" fill="white"/>
</g>
<defs>
<clipPath id="clip0_6040_23391">
<rect width="98" height="17.8182" fill="white" transform="translate(0 0.0909119)"/>
</clipPath>
</defs>
</svg>
