<svg width="133" height="32" viewBox="0 0 133 32" fill="none" xmlns="http://www.w3.org/2000/svg">
<g clip-path="url(#clip0_2630_2784)">
<path d="M45.1152 11.0701H47.7281L47.6349 14.3475H47.6587C48.196 12.294 49.3855 10.8857 51.7644 10.8857C54.2604 10.8857 55.6362 12.5019 55.6362 15.3399C55.6362 16.0558 55.5668 16.9776 55.5192 17.462H53.1403C53.1878 17.0247 53.2334 16.4461 53.2334 15.9165C53.2334 14.0003 52.488 13.102 50.9476 13.102C48.9652 13.102 47.7301 14.7633 47.7301 17.4856V22.4693H45.1172V11.0701H45.1152Z" fill="#142837"/>
<path d="M56.0284 19.1919C56.0284 17.462 57.2654 16.1009 60.3422 16.1009H64.6105V15.2928C64.6105 13.5845 63.6073 12.8235 61.5793 12.8235C59.807 12.8235 58.8038 13.4923 58.8038 14.7613C58.8038 14.83 58.8038 15.0143 58.8276 15.1987H56.4249C56.4011 15.0379 56.3773 14.7378 56.3773 14.5299C56.3773 12.2449 58.3835 10.8838 61.6705 10.8838C65.1695 10.8838 67.2214 12.5215 67.2214 15.5223V22.4673H64.6085C64.6561 21.9142 64.7255 20.8747 64.7255 19.9529H64.7017C64.329 21.6377 62.9531 22.6536 60.4096 22.6536C57.8661 22.6536 56.0244 21.4082 56.0244 19.1919H56.0284ZM64.6105 17.8759V17.668H60.5762C59.0834 17.668 58.4311 18.176 58.4311 19.0762C58.4311 20.1137 59.3649 20.7139 60.9508 20.7139C63.2128 20.7139 64.6125 19.6293 64.6125 17.8759H64.6105Z" fill="#142837"/>
<path d="M92.155 17.2777H83.5254C83.6661 19.4704 84.9012 20.6453 86.8599 20.6453C88.539 20.6453 89.6809 19.9078 89.7979 18.5682H92.153C92.0599 21.1062 89.9604 22.6517 86.8123 22.6517C83.1745 22.6517 80.8887 20.4374 80.8887 16.8599C80.8887 13.2825 83.1745 10.8838 86.8123 10.8838C90.0774 10.8838 92.153 12.8 92.153 16.3519V17.2757L92.155 17.2777ZM89.7999 15.5478C89.7999 13.8395 88.7273 12.8941 86.8381 12.8941C84.9488 12.8941 83.9 13.8179 83.5967 15.7086H89.7999V15.5478Z" fill="#142837"/>
<path d="M103.441 19.0521H96.2804L94.974 22.4667H92.0815L98.3323 7.28418H101.738L107.965 22.4667H104.724L103.441 19.0521ZM102.741 17.2065L99.8964 9.63776H99.8488L96.9802 17.2065H102.741Z" fill="#142837"/>
<path d="M108.34 7.21191H110.953V22.469H108.34V7.21191Z" fill="#142837"/>
<path d="M112.21 7.21191H114.823V22.469H112.21V7.21191Z" fill="#142837"/>
<path d="M33.1968 7.28613V9.5691H37.9547V9.57891H40.744L38.7279 11.5736L37.9547 12.3385V22.4687H40.7539V9.5691H45.5119V7.28613H33.1968Z" fill="#142837"/>
<path d="M125.153 11.0693L121.912 19.86H121.864L120.815 22.4665C119.953 24.5887 119.392 25.1888 118.181 25.1888C117.598 25.1888 117.06 25.0496 116.735 24.9574V26.9874C117.062 27.1031 117.762 27.2875 118.648 27.2875C120.934 27.2875 122.054 26.1107 123.337 22.696L127.722 11.0674H125.157L125.153 11.0693Z" fill="#142837"/>
<path d="M115.195 11.0693L119.711 21.3839L121.866 19.8599L118.204 11.0693H115.195Z" fill="#142837"/>
<path d="M77.8527 7.21094V13.142H77.8289C77.363 11.8043 76.009 10.9492 73.8402 10.9492C70.4125 10.9492 68.2437 13.3263 68.2437 16.7645C68.2437 20.2027 70.3431 22.7171 73.6776 22.7171C76.0328 22.7171 77.48 21.5638 77.922 19.7633H77.9676C77.9221 20.8715 77.8983 21.862 77.8507 22.5327H80.4636V7.21094H77.8507H77.8527ZM77.8527 16.9489C77.8527 19.1632 76.4074 20.5949 74.2148 20.5949C72.163 20.5949 70.8328 19.0259 70.8328 16.7645C70.8328 14.5031 72.1848 13.0733 74.2604 13.0733C76.3361 13.0733 77.8527 14.3658 77.8527 16.3958V16.9489Z" fill="#142837"/>
<path d="M21.2574 4.71191H7.63391C6.04414 4.71191 4.75537 5.98693 4.75537 7.55974V21.0379C4.75537 22.6107 6.04414 23.8857 7.63391 23.8857H21.2574C22.8472 23.8857 24.136 22.6107 24.136 21.0379V7.55974C24.136 5.98693 22.8472 4.71191 21.2574 4.71191Z" fill="#16C6A4"/>
<path d="M18.9143 19.388C18.9143 19.3292 18.8667 19.2821 18.8072 19.2821C17.017 19.2821 15.5659 17.9524 15.5659 16.3127V13.0961C15.5659 13.0373 15.5183 12.9902 15.4588 12.9902H12.0133C11.9538 12.9902 11.9062 13.0373 11.9062 13.0961V16.4304C11.9062 19.7685 14.8601 22.4732 18.5059 22.4732H18.8072C18.8667 22.4732 18.9143 22.4261 18.9143 22.3673V19.3861V19.388Z" fill="white"/>
<path d="M17.7748 8.87836C18.3912 8.87836 18.8909 8.38399 18.8909 7.77414C18.8909 7.1643 18.3912 6.66992 17.7748 6.66992C17.1584 6.66992 16.6587 7.1643 16.6587 7.77414C16.6587 8.38399 17.1584 8.87836 17.7748 8.87836Z" fill="white"/>
<path d="M15.8774 6.33984H12.4794C12.418 6.33984 12.3684 6.39084 12.3724 6.45164C12.3764 6.51244 12.3783 6.57128 12.3783 6.63404C12.3783 8.0913 11.3851 9.30731 10.0608 9.60151C10.0113 9.61328 9.97559 9.65446 9.97559 9.70546V13.2633C9.97559 13.326 10.0311 13.3751 10.0926 13.3692C13.4013 13.0318 15.9864 10.1448 15.9864 6.63404C15.9864 6.56932 15.9864 6.50656 15.9825 6.44379C15.9825 6.38692 15.9329 6.33984 15.8754 6.33984H15.8774Z" fill="white"/>
</g>
<defs>
<clipPath id="clip0_2630_2784">
<rect width="122.96" height="22.5767" fill="white" transform="translate(4.75879 4.71191)"/>
</clipPath>
</defs>
</svg>
