<svg width="2706" height="713" viewBox="0 0 2706 713" fill="none" xmlns="http://www.w3.org/2000/svg">
<path d="M591.275 0H121.252C54.2865 0 0 54.2865 0 121.252V591.275C0 658.241 54.2865 712.527 121.252 712.527H591.275C658.241 712.527 712.527 658.241 712.527 591.275V121.252C712.527 54.2865 658.241 0 591.275 0Z" fill="#03B5D1"/>
<path d="M564.027 171.732C564.027 164.992 558.577 159.614 551.909 159.614H160.618C153.877 159.614 148.5 165.064 148.5 171.732V406.708C148.5 413.448 153.949 418.826 160.618 418.826H250.678C257.419 418.826 262.796 413.376 262.796 406.708V286.101C262.796 279.361 268.246 273.983 274.914 273.983H551.765C558.505 273.983 563.883 268.533 563.883 261.865V171.804L564.027 171.732Z" fill="white"/>
<path opacity="0.8" d="M564.028 330.272C564.028 322.384 557.646 315.931 549.687 315.931H319.086C311.198 315.931 304.745 322.312 304.745 330.272V560.873C304.745 568.761 311.126 575.214 319.086 575.214H404.772C412.66 575.214 419.113 568.832 419.113 560.873V444.64C419.113 436.753 425.495 430.299 433.454 430.299H549.687C557.574 430.299 564.028 423.918 564.028 415.958V330.272Z" fill="white"/>
<path d="M2507.47 574.408V461.811H2396.36V377.363H2507.47V264.766H2594.88V377.363H2706V461.811H2594.88V574.408H2507.47Z" fill="#0A0045" fill-opacity="0.7"/>
<path d="M2232.96 655.879C2211.34 655.879 2194.04 649.393 2181.07 636.42C2168.58 623.448 2162.33 606.151 2162.33 584.53V363.274H2064.32V300.573H2162.33V183.099H2236.57V300.573H2342.51V363.274H2236.57V571.557C2236.57 585.971 2243.29 593.178 2256.75 593.178H2330.98V655.879H2232.96Z" fill="#0A0045"/>
<path d="M1891.04 665.97C1855 665.97 1823.53 658.522 1796.62 643.628C1769.72 628.253 1748.58 606.872 1733.2 579.485C1718.31 551.618 1710.86 519.427 1710.86 482.911V474.263C1710.86 437.267 1718.31 405.076 1733.2 377.689C1748.1 349.822 1768.76 328.441 1795.18 313.547C1822.09 298.172 1853.08 290.484 1888.15 290.484C1922.27 290.484 1952.06 298.172 1977.52 313.547C2003.47 328.441 2023.65 349.341 2038.06 376.248C2052.47 403.154 2059.68 434.624 2059.68 470.659V498.767H1786.53C1787.5 529.997 1797.83 554.982 1817.53 573.72C1837.7 591.978 1862.69 601.106 1892.48 601.106C1920.35 601.106 1941.25 594.86 1955.18 582.368C1969.59 569.876 1980.64 555.462 1988.33 539.126L2049.59 570.837C2042.86 584.29 2033.01 598.464 2020.04 613.358C2007.55 628.253 1990.97 640.745 1970.31 650.835C1949.65 660.925 1923.23 665.97 1891.04 665.97ZM1787.26 441.831H1984.01C1982.09 414.925 1972.48 394.025 1955.18 379.13C1937.88 363.755 1915.3 356.068 1887.43 356.068C1859.57 356.068 1836.74 363.755 1818.97 379.13C1801.67 394.025 1791.1 414.925 1787.26 441.831Z" fill="#0A0045"/>
<path d="M1506.2 665.97C1470.16 665.97 1438.69 658.522 1411.79 643.628C1384.88 628.253 1363.74 606.872 1348.36 579.485C1333.47 551.618 1326.02 519.427 1326.02 482.911V474.263C1326.02 437.267 1333.47 405.076 1348.36 377.689C1363.26 349.822 1383.92 328.441 1410.34 313.547C1437.25 298.172 1468.24 290.484 1503.31 290.484C1537.43 290.484 1567.22 298.172 1592.68 313.547C1618.63 328.441 1638.81 349.341 1653.22 376.248C1667.63 403.154 1674.84 434.624 1674.84 470.659V498.767H1401.7C1402.66 529.997 1412.99 554.982 1432.69 573.72C1452.87 591.978 1477.85 601.106 1507.64 601.106C1535.51 601.106 1556.41 594.86 1570.34 582.368C1584.75 569.876 1595.8 555.462 1603.49 539.126L1664.75 570.837C1658.03 584.29 1648.18 598.464 1635.2 613.358C1622.71 628.253 1606.13 640.745 1585.47 650.835C1564.81 660.925 1538.39 665.97 1506.2 665.97ZM1402.42 441.831H1599.17C1597.25 414.925 1587.64 394.025 1570.34 379.13C1553.04 363.755 1530.46 356.068 1502.59 356.068C1474.73 356.068 1451.9 363.755 1434.13 379.13C1416.83 394.025 1406.26 414.925 1402.42 441.831Z" fill="#0A0045"/>
<path d="M962.088 655.88V363.276H862.631V300.575H962.088V222.739C962.088 201.118 968.574 183.821 981.547 170.848C994.519 157.876 1011.82 151.389 1033.44 151.389H1124.97V214.09H1057.22C1043.29 214.09 1036.32 221.297 1036.32 235.711V300.575H1138.66V363.276H1036.32V655.88H962.088ZM1195.59 655.88V151.389H1269.83V655.88H1195.59Z" fill="#0A0045"/>
</svg>
