<svg width="20" height="20" viewBox="0 0 20 20" xmlns="http://www.w3.org/2000/svg">
<path d="M10 0C4.47715 0 0 4.47715 0 10C0 15.5229 4.47715 20 10 20C15.5229 20 20 15.5229 20 10C20 4.47715 15.5229 0 10 0ZM14.3111 14.3089C11.9313 16.6887 8.07301 16.6887 5.69324 14.3089C4.50801 13.1237 3.91309 11.5717 3.90844 10.0183C3.90687 9.49277 4.32625 9.05266 4.85176 9.04793C5.38164 9.04313 5.81273 9.47125 5.81273 10H5.81469C5.81469 11.0729 6.22305 12.1457 7.0398 12.9624C8.67328 14.5959 11.3311 14.5959 12.9646 12.9624C14.6046 11.3224 14.6046 8.67766 12.9646 7.03762C11.3311 5.40414 8.67328 5.40418 7.0398 7.03762C7.32758 7.32539 7.17852 7.81781 6.77941 7.89762L5.09625 8.23426C4.73969 8.30559 4.42531 7.99121 4.49664 7.63465L4.83328 5.95148C4.91309 5.55238 5.40551 5.40332 5.69328 5.69109C8.07305 3.31133 11.9314 3.31133 14.3111 5.69109C16.685 8.06496 16.685 11.935 14.3111 14.3089ZM11.9242 10.2851C12.2658 10.4823 12.3828 10.9191 12.1856 11.2606C11.9884 11.6022 11.5516 11.7192 11.2101 11.522L9.64508 10.6184L9.64512 10.6184C9.43172 10.4949 9.28801 10.2643 9.28801 10V7.47879C9.28801 7.08441 9.60773 6.76469 10.0021 6.76469C10.3965 6.76469 10.7162 7.08441 10.7162 7.47879V9.58773L11.9242 10.2851Z" fill="currentColor"/>
</svg>
