<svg width="84" height="89" viewBox="0 0 84 89" fill="none" xmlns="http://www.w3.org/2000/svg">
<g clip-path="url(#clip0_5590_88634)">
<path d="M60.4324 78.0123H5.49414V72.5185H8.24105V53.3752C8.24105 39.6736 19.3111 28.5679 32.9633 28.5679C46.6154 28.5679 57.6855 39.6736 57.6855 53.3752V72.5185H60.4324V78.0123ZM26.096 80.7592H39.8306C39.8306 82.5805 39.107 84.3273 37.8192 85.6151C36.5313 86.903 34.7846 87.6265 32.9633 87.6265C31.142 87.6265 29.3952 86.903 28.1074 85.6151C26.8195 84.3273 26.096 82.5805 26.096 80.7592Z" fill="#142837"/>
</g>
<g clip-path="url(#clip1_5590_88634)">
<g filter="url(#filter0_d_5590_88634)">
<path d="M81.6088 28.0188C81.6088 28.8421 81.0129 29.6084 80.4233 30.3665C79.9188 31.0153 79.4188 31.6582 79.301 32.3257C79.1821 32.9998 79.4394 33.7959 79.6976 34.5949C79.994 35.512 80.2916 36.4329 80.0233 37.1778C79.7552 37.9222 78.9496 38.4296 78.1443 38.9368C77.4415 39.3794 76.7391 39.8218 76.3943 40.4214C76.0491 41.0217 76.0241 41.8593 75.999 42.6983C75.9704 43.6576 75.9417 44.6186 75.4342 45.2288C74.9272 45.8383 74.0051 46.0342 73.0823 46.2302C72.2734 46.4021 71.4639 46.574 70.9331 47.0248C70.403 47.475 70.0991 48.2519 69.7952 49.0289C69.4476 49.9175 69.1 50.8063 68.4139 51.2067C67.7289 51.6065 66.799 51.4714 65.8678 51.3361C65.0508 51.2174 64.2327 51.0985 63.5781 51.3408C62.9257 51.5822 62.3803 52.2036 61.8352 52.8249C61.21 53.5373 60.5851 54.2494 59.7993 54.3878C59.017 54.5256 58.1949 54.0746 57.37 53.6221C56.6437 53.2236 55.9154 52.8241 55.2102 52.8241C54.5017 52.8241 53.764 53.2274 53.0319 53.6276C52.2075 54.0783 51.3903 54.525 50.6298 54.3878C49.8638 54.2496 49.2307 53.5365 48.5981 52.824C48.0449 52.201 47.4921 51.5784 46.851 51.3408C46.2116 51.1037 45.3948 51.2208 44.5763 51.3381C43.636 51.4729 42.6934 51.608 42.0152 51.2067C41.3392 50.8067 40.9884 49.9192 40.6376 49.0315C40.3301 48.2536 40.0226 47.4755 39.496 47.0248C38.9702 46.5748 38.1627 46.4046 37.3542 46.2341C36.4291 46.0392 35.5026 45.8439 34.995 45.2288C34.4888 44.6155 34.4589 43.6632 34.429 42.7097C34.4027 41.8712 34.3764 41.0319 34.0261 40.4214C33.6774 39.814 32.9793 39.377 32.2812 38.94C31.48 38.4385 30.6788 37.937 30.4058 37.1778C30.1333 36.42 30.4296 35.5174 30.7267 34.6123C30.9867 33.8203 31.2473 33.0263 31.1281 32.3257C31.0087 31.6243 30.4971 30.9717 29.9858 30.3195C29.4028 29.5758 28.8203 28.8328 28.8203 28.0188C28.8203 27.197 29.4139 26.4347 30.0024 25.679C30.5081 25.0295 31.01 24.385 31.1281 23.7118C31.2472 23.0328 30.9892 22.2354 30.7307 21.4364C30.4346 20.5212 30.1378 19.6039 30.4058 18.8598C30.6735 18.1165 31.4772 17.6095 32.28 17.103C32.9827 16.6597 33.6848 16.2167 34.0261 15.6161C34.3658 15.0182 34.3936 14.1848 34.4214 13.3492C34.4535 12.3866 34.4857 11.421 34.995 10.8088C35.5019 10.1993 36.424 10.0034 37.3468 9.80733C38.1558 9.63547 38.9653 9.46349 39.496 9.01269C40.0261 8.5625 40.33 7.78562 40.6339 7.00862C40.9815 6.12002 41.3291 5.23126 42.0152 4.83082C42.7002 4.43103 43.6301 4.56613 44.5613 4.70143C45.3784 4.82014 46.1965 4.939 46.851 4.69678C47.5034 4.45536 48.0488 3.8339 48.594 3.21265C49.2191 2.50026 49.8441 1.78816 50.6298 1.64974C51.412 1.51195 52.2315 1.9628 53.0539 2.41527C53.7783 2.81374 54.5048 3.21347 55.2102 3.21347C55.9185 3.21347 56.658 2.81033 57.3921 2.41017C58.2189 1.95942 59.0388 1.51247 59.7993 1.64974C60.5637 1.78769 61.1958 2.50056 61.8271 3.2126C62.3816 3.83801 62.9356 4.46279 63.5781 4.69678C64.215 4.92873 65.0261 4.81318 65.8402 4.6972C66.7824 4.56296 67.7287 4.42814 68.4139 4.83082C69.096 5.23165 69.4464 6.12173 69.7967 7.01118C70.1023 7.78733 70.4077 8.56299 70.9331 9.01269C71.4589 9.46278 72.2664 9.63298 73.075 9.8034C74.0001 9.99839 74.9265 10.1937 75.4342 10.8088C75.9417 11.4237 75.9704 12.3796 75.999 13.3356C76.0241 14.1715 76.0491 15.0076 76.3943 15.6161C76.7395 16.2248 77.4414 16.6623 78.1439 17.1002C78.947 17.6008 79.7508 18.1019 80.0233 18.8598C80.2958 19.6175 79.9995 20.5201 79.7024 21.4253C79.4424 22.2173 79.1818 23.0112 79.301 23.7118C79.4204 24.4132 79.932 25.0659 80.4433 25.7181C81.0263 26.4617 81.6088 27.2047 81.6088 28.0188Z" fill="#FF6224"/>
<path d="M81.6088 28.0188C81.6088 28.8421 81.0129 29.6084 80.4233 30.3665C79.9188 31.0153 79.4188 31.6582 79.301 32.3257C79.1821 32.9998 79.4394 33.7959 79.6976 34.5949C79.994 35.512 80.2916 36.4329 80.0233 37.1778C79.7552 37.9222 78.9496 38.4296 78.1443 38.9368C77.4415 39.3794 76.7391 39.8218 76.3943 40.4214C76.0491 41.0217 76.0241 41.8593 75.999 42.6983C75.9704 43.6576 75.9417 44.6186 75.4342 45.2288C74.9272 45.8383 74.0051 46.0342 73.0823 46.2302C72.2734 46.4021 71.4639 46.574 70.9331 47.0248C70.403 47.475 70.0991 48.2519 69.7952 49.0289C69.4476 49.9175 69.1 50.8063 68.4139 51.2067C67.7289 51.6065 66.799 51.4714 65.8678 51.3361C65.0508 51.2174 64.2327 51.0985 63.5781 51.3408C62.9257 51.5822 62.3803 52.2036 61.8352 52.8249C61.21 53.5373 60.5851 54.2494 59.7993 54.3878C59.017 54.5256 58.1949 54.0746 57.37 53.6221C56.6437 53.2236 55.9154 52.8241 55.2102 52.8241C54.5017 52.8241 53.764 53.2274 53.0319 53.6276C52.2075 54.0783 51.3903 54.525 50.6298 54.3878C49.8638 54.2496 49.2307 53.5365 48.5981 52.824C48.0449 52.201 47.4921 51.5784 46.851 51.3408C46.2116 51.1037 45.3948 51.2208 44.5763 51.3381C43.636 51.4729 42.6934 51.608 42.0152 51.2067C41.3392 50.8067 40.9884 49.9192 40.6376 49.0315C40.3301 48.2536 40.0226 47.4755 39.496 47.0248C38.9702 46.5748 38.1627 46.4046 37.3542 46.2341C36.4291 46.0392 35.5026 45.8439 34.995 45.2288C34.4888 44.6155 34.4589 43.6632 34.429 42.7097C34.4027 41.8712 34.3764 41.0319 34.0261 40.4214C33.6774 39.814 32.9793 39.377 32.2812 38.94C31.48 38.4385 30.6788 37.937 30.4058 37.1778C30.1333 36.42 30.4296 35.5174 30.7267 34.6123C30.9867 33.8203 31.2473 33.0263 31.1281 32.3257C31.0087 31.6243 30.4971 30.9717 29.9858 30.3195C29.4028 29.5758 28.8203 28.8328 28.8203 28.0188C28.8203 27.197 29.4139 26.4347 30.0024 25.679C30.5081 25.0295 31.01 24.385 31.1281 23.7118C31.2472 23.0328 30.9892 22.2354 30.7307 21.4364C30.4346 20.5212 30.1378 19.6039 30.4058 18.8598C30.6735 18.1165 31.4772 17.6095 32.28 17.103C32.9827 16.6597 33.6848 16.2167 34.0261 15.6161C34.3658 15.0182 34.3936 14.1848 34.4214 13.3492C34.4535 12.3866 34.4857 11.421 34.995 10.8088C35.5019 10.1993 36.424 10.0034 37.3468 9.80733C38.1558 9.63547 38.9653 9.46349 39.496 9.01269C40.0261 8.5625 40.33 7.78562 40.6339 7.00862C40.9815 6.12002 41.3291 5.23126 42.0152 4.83082C42.7002 4.43103 43.6301 4.56613 44.5613 4.70143C45.3784 4.82014 46.1965 4.939 46.851 4.69678C47.5034 4.45536 48.0488 3.8339 48.594 3.21265C49.2191 2.50026 49.8441 1.78816 50.6298 1.64974C51.412 1.51195 52.2315 1.9628 53.0539 2.41527C53.7783 2.81374 54.5048 3.21347 55.2102 3.21347C55.9185 3.21347 56.658 2.81033 57.3921 2.41017C58.2189 1.95942 59.0388 1.51247 59.7993 1.64974C60.5637 1.78769 61.1958 2.50056 61.8271 3.2126C62.3816 3.83801 62.9356 4.46279 63.5781 4.69678C64.215 4.92873 65.0261 4.81318 65.8402 4.6972C66.7824 4.56296 67.7287 4.42814 68.4139 4.83082C69.096 5.23165 69.4464 6.12173 69.7967 7.01118C70.1023 7.78733 70.4077 8.56299 70.9331 9.01269C71.4589 9.46278 72.2664 9.63298 73.075 9.8034C74.0001 9.99839 74.9265 10.1937 75.4342 10.8088C75.9417 11.4237 75.9704 12.3796 75.999 13.3356C76.0241 14.1715 76.0491 15.0076 76.3943 15.6161C76.7395 16.2248 77.4414 16.6623 78.1439 17.1002C78.947 17.6008 79.7508 18.1019 80.0233 18.8598C80.2958 19.6175 79.9995 20.5201 79.7024 21.4253C79.4424 22.2173 79.1818 23.0112 79.301 23.7118C79.4204 24.4132 79.932 25.0659 80.4433 25.7181C81.0263 26.4617 81.6088 27.2047 81.6088 28.0188Z" stroke="white"/>
<path d="M46.1546 26.0774L48.351 25.6152L50.1976 34.7341L48.4649 35.0972L43.2993 30.7399L44.3568 35.9554L42.1767 36.4093L40.3301 27.2905L42.0384 26.9356L47.2121 31.2846L46.1546 26.0774Z" fill="white"/>
<path d="M51.7688 34.404L49.9141 25.2934L56.308 23.9565L56.6741 25.7886L52.5741 26.6468L52.9239 28.3798L56.7717 27.5793L57.1459 29.4031L53.29 30.2036L53.6805 32.0933L57.7804 31.2351L58.1546 33.0754L51.7688 34.404Z" fill="white"/>
<path d="M68.6552 21.3738L70.876 20.9116L69.5093 30.6989L67.6465 31.0867L64.6447 26.0198L63.8231 31.8872L61.9521 32.2833L56.9004 23.8329L59.2839 23.3296L62.3182 28.7266L63.1642 22.5208L64.783 22.1825L67.8986 27.6703L68.6552 21.3738Z" fill="white"/>
</g>
</g>
<defs>
<filter id="filter0_d_5590_88634" x="27.1722" y="1.62451" width="54.4372" height="54.4367" filterUnits="userSpaceOnUse" color-interpolation-filters="sRGB">
<feFlood flood-opacity="0" result="BackgroundImageFix"/>
<feColorMatrix in="SourceAlpha" type="matrix" values="0 0 0 0 0 0 0 0 0 0 0 0 0 0 0 0 0 0 127 0" result="hardAlpha"/>
<feOffset dx="-1.64815" dy="1.64815"/>
<feComposite in2="hardAlpha" operator="out"/>
<feColorMatrix type="matrix" values="0 0 0 0 0.854167 0 0 0 0 0.267333 0 0 0 0 0.0355903 0 0 0 1 0"/>
<feBlend mode="normal" in2="BackgroundImageFix" result="effect1_dropShadow_5590_88634"/>
<feBlend mode="normal" in="SourceGraphic" in2="effect1_dropShadow_5590_88634" result="shape"/>
</filter>
<clipPath id="clip0_5590_88634">
<rect width="65.9259" height="65.9259" fill="white" transform="translate(0 23.0742)"/>
</clipPath>
<clipPath id="clip1_5590_88634">
<rect width="56.037" height="56.037" fill="white" transform="translate(27.1953)"/>
</clipPath>
</defs>
</svg>
