<svg width="32" height="32" viewBox="0 0 32 32" fill="none" xmlns="http://www.w3.org/2000/svg">
<g clip-path="url(#clip0_1090_38357)">
<path d="M16.0026 25.3338H18.6693V8.00047L27.1946 11.6538C27.4346 11.7567 27.6391 11.9278 27.7827 12.1458C27.9264 12.3639 28.0028 12.6193 28.0026 12.8805V25.3338H30.6693V28.0005H1.33594V25.3338H4.0026V7.5338C4.00257 7.27582 4.07738 7.02338 4.21796 6.80707C4.35853 6.59076 4.55885 6.41987 4.7946 6.31514L15.0653 1.7498C15.1669 1.70466 15.2782 1.68565 15.389 1.6945C15.4998 1.70335 15.6067 1.73978 15.6999 1.80047C15.793 1.86116 15.8695 1.94419 15.9224 2.042C15.9753 2.1398 16.0028 2.24928 16.0026 2.36047V25.3338Z" fill="#6B778C"/>
</g>
<defs>
<clipPath id="clip0_1090_38357">
<rect width="32" height="32" fill="white"/>
</clipPath>
</defs>
</svg>
