<svg width="36" height="36" viewBox="0 0 36 36" fill="none" xmlns="http://www.w3.org/2000/svg">
<g clip-path="url(#clip0_4323_20682)">
<rect width="36" height="36" rx="18" fill="#F4F5F7"/>
<g clip-path="url(#clip1_4323_20682)">
<path d="M45.3273 0H-9V36H45.3273V0Z" fill="#003399"/>
<path d="M18.1562 4L17.5345 5.90211L18.4913 6.21113L18.1562 4Z" fill="#FFCC00"/>
<path d="M18.1562 4L18.778 5.90211L17.8212 6.21113L18.1562 4Z" fill="#FFCC00"/>
<path d="M20.0781 5.38501L18.0675 5.38215L18.0689 6.37929L20.0781 5.38501Z" fill="#FFCC00"/>
<path d="M20.0781 5.38354L18.4516 6.55767L17.8589 5.74721L20.0781 5.38354Z" fill="#FFCC00"/>
<path d="M19.3438 7.61914L18.7208 5.71622L17.7651 6.02444L19.3438 7.61914Z" fill="#FFCC00"/>
<path d="M19.3438 7.61816L17.7151 6.4417L18.3056 5.63358L19.3438 7.61816Z" fill="#FFCC00"/>
<path d="M16.25 5.38501L18.2607 5.38215L18.2592 6.37929L16.25 5.38501Z" fill="#FFCC00"/>
<path d="M16.25 5.38354L17.8765 6.55767L18.4692 5.74721L16.25 5.38354Z" fill="#FFCC00"/>
<path d="M16.9844 7.61914L17.6073 5.71622L18.563 6.02444L16.9844 7.61914Z" fill="#FFCC00"/>
<path d="M16.9844 7.61816L18.613 6.4417L18.0225 5.63358L16.9844 7.61816Z" fill="#FFCC00"/>
<path d="M18.1562 28L17.5345 29.9021L18.4913 30.2111L18.1562 28Z" fill="#FFCC00"/>
<path d="M18.1562 28L18.778 29.9021L17.8212 30.2111L18.1562 28Z" fill="#FFCC00"/>
<path d="M20.0781 29.385L18.0675 29.3822L18.0689 30.3793L20.0781 29.385Z" fill="#FFCC00"/>
<path d="M20.0781 29.3835L18.4516 30.5577L17.8589 29.7472L20.0781 29.3835Z" fill="#FFCC00"/>
<path d="M19.3438 31.6191L18.7208 29.7162L17.7651 30.0244L19.3438 31.6191Z" fill="#FFCC00"/>
<path d="M19.3438 31.6182L17.7151 30.4417L18.3056 29.6336L19.3438 31.6182Z" fill="#FFCC00"/>
<path d="M16.25 29.385L18.2607 29.3822L18.2592 30.3793L16.25 29.385Z" fill="#FFCC00"/>
<path d="M16.25 29.3835L17.8765 30.5577L18.4692 29.7472L16.25 29.3835Z" fill="#FFCC00"/>
<path d="M16.9844 31.6191L17.6073 29.7162L18.563 30.0244L16.9844 31.6191Z" fill="#FFCC00"/>
<path d="M16.9844 31.6182L18.613 30.4417L18.0225 29.6336L16.9844 31.6182Z" fill="#FFCC00"/>
<path d="M6.08594 16L5.46416 17.9021L6.42098 18.2111L6.08594 16Z" fill="#FFCC00"/>
<path d="M6.08594 16L6.70772 17.9021L5.7509 18.2111L6.08594 16Z" fill="#FFCC00"/>
<path d="M8.00781 17.385L5.99714 17.3822L5.99859 18.3793L8.00781 17.385Z" fill="#FFCC00"/>
<path d="M8.00781 17.3835L6.38129 18.5577L5.78862 17.7472L8.00781 17.3835Z" fill="#FFCC00"/>
<path d="M7.27344 19.6189L6.65052 17.716L5.69484 18.0242L7.27344 19.6189Z" fill="#FFCC00"/>
<path d="M7.27344 19.6179L5.64479 18.4415L6.23532 17.6333L7.27344 19.6179Z" fill="#FFCC00"/>
<path d="M4.17969 17.385L6.19036 17.3822L6.18891 18.3793L4.17969 17.385Z" fill="#FFCC00"/>
<path d="M4.17969 17.3835L5.80621 18.5577L6.39888 17.7472L4.17969 17.3835Z" fill="#FFCC00"/>
<path d="M4.91406 19.6189L5.53698 17.716L6.49266 18.0242L4.91406 19.6189Z" fill="#FFCC00"/>
<path d="M4.91406 19.6179L6.54271 18.4415L5.95218 17.6333L4.91406 19.6179Z" fill="#FFCC00"/>
<path d="M10.9453 9.22583L12.574 8.04932L11.9835 7.24124L10.9453 9.22583Z" fill="#FFCC00"/>
<path d="M10.9453 9.22656L11.5683 7.32361L12.5239 7.63178L10.9453 9.22656Z" fill="#FFCC00"/>
<path d="M10.2188 6.99048L11.8459 8.16526L12.4379 7.35546L10.2188 6.99048Z" fill="#FFCC00"/>
<path d="M10.2188 6.99121L12.2301 6.98966L12.2293 7.9881L10.2188 6.99121Z" fill="#FFCC00"/>
<path d="M12.1328 5.60767L11.5098 7.51062L12.4655 7.8188L12.1328 5.60767Z" fill="#FFCC00"/>
<path d="M12.1328 5.60767L12.7534 7.50894L11.7954 7.8188L12.1328 5.60767Z" fill="#FFCC00"/>
<path d="M13.3125 9.22583L11.6854 8.05111L12.2775 7.24124L13.3125 9.22583Z" fill="#FFCC00"/>
<path d="M13.3125 9.2251L12.6918 7.32375L11.7339 7.63352L13.3125 9.2251Z" fill="#FFCC00"/>
<path d="M14.0391 6.98901L12.4106 8.16522L11.8199 7.35683L14.0391 6.98901Z" fill="#FFCC00"/>
<path d="M14.0391 6.98975L12.0276 6.991L12.0269 7.98975L14.0391 6.98975Z" fill="#FFCC00"/>
<path d="M8.89062 13.6189L8.26765 11.7159L7.31202 12.0241L8.89062 13.6189Z" fill="#FFCC00"/>
<path d="M8.89062 13.6182L7.26194 12.4417L7.85243 11.6336L8.89062 13.6182Z" fill="#FFCC00"/>
<path d="M6.52344 13.6179L8.15051 12.4432L7.55839 11.6333L6.52344 13.6179Z" fill="#FFCC00"/>
<path d="M6.52344 13.6172L7.14414 11.7158L8.10204 12.0256L6.52344 13.6172Z" fill="#FFCC00"/>
<path d="M5.79688 11.3811L7.42529 12.5573L8.01606 11.7489L5.79688 11.3811Z" fill="#FFCC00"/>
<path d="M5.79688 11.3818L7.80836 11.3831L7.809 12.3818L5.79688 11.3818Z" fill="#FFCC00"/>
<path d="M9.61719 11.3828L7.99006 12.5576L7.398 11.7478L9.61719 11.3828Z" fill="#FFCC00"/>
<path d="M9.61719 11.3835L7.60585 11.382L7.60663 12.3804L9.61719 11.3835Z" fill="#FFCC00"/>
<path d="M7.70312 9.99976L8.3261 11.9027L7.37047 12.2109L7.70312 9.99976Z" fill="#FFCC00"/>
<path d="M7.70312 9.99976L7.08254 11.901L8.04056 12.2109L7.70312 9.99976Z" fill="#FFCC00"/>
<path d="M9.61719 23.3857L7.60711 23.3817L7.60915 24.3777L9.61719 23.3857Z" fill="#FFCC00"/>
<path d="M9.61719 23.3838L7.9912 24.5573L7.398 23.7463L9.61719 23.3838Z" fill="#FFCC00"/>
<path d="M8.89062 25.6201L8.26579 23.7159L7.31202 24.0227L8.89062 25.6201Z" fill="#FFCC00"/>
<path d="M8.89062 25.6179L7.2606 24.44L7.84977 23.6333L8.89062 25.6179Z" fill="#FFCC00"/>
<path d="M6.52344 25.6179L8.14993 24.4438L7.55723 23.6333L6.52344 25.6179Z" fill="#FFCC00"/>
<path d="M6.52344 25.6165L7.14331 23.7157L8.10204 24.026L6.52344 25.6165Z" fill="#FFCC00"/>
<path d="M7.70312 22L8.32751 23.9039L7.3733 24.2111L7.70312 22Z" fill="#FFCC00"/>
<path d="M7.70312 22L7.08396 23.9003L8.0434 24.2111L7.70312 22Z" fill="#FFCC00"/>
<path d="M5.79688 23.3818L7.80819 23.3834L7.809 24.3818L5.79688 23.3818Z" fill="#FFCC00"/>
<path d="M5.79688 23.3811L7.42545 24.5575L8.01606 23.7492L5.79688 23.3811Z" fill="#FFCC00"/>
<path d="M14.0391 27.7781L12.029 27.7741L12.031 28.77L14.0391 27.7781Z" fill="#FFCC00"/>
<path d="M14.0391 27.7761L12.4131 28.9497L11.8199 28.1386L14.0391 27.7761Z" fill="#FFCC00"/>
<path d="M13.3125 30.0125L12.6877 28.1082L11.7339 28.415L13.3125 30.0125Z" fill="#FFCC00"/>
<path d="M13.3125 30.0103L11.6825 28.8323L12.2716 28.0257L13.3125 30.0103Z" fill="#FFCC00"/>
<path d="M10.9453 30.0103L12.5718 28.8362L11.9791 28.0257L10.9453 30.0103Z" fill="#FFCC00"/>
<path d="M10.9453 30.0088L11.5652 28.108L12.5239 28.4183L10.9453 30.0088Z" fill="#FFCC00"/>
<path d="M12.125 26.3923L12.7494 28.2963L11.7952 28.6035L12.125 26.3923Z" fill="#FFCC00"/>
<path d="M12.125 26.3923L11.5058 28.2926L12.4653 28.6035L12.125 26.3923Z" fill="#FFCC00"/>
<path d="M10.2188 27.7742L12.2301 27.7757L12.2309 28.7742L10.2188 27.7742Z" fill="#FFCC00"/>
<path d="M10.2188 27.7734L11.8473 28.9498L12.4379 28.1416L10.2188 27.7734Z" fill="#FFCC00"/>
<path d="M30.2422 16L30.864 17.9021L29.9071 18.2111L30.2422 16Z" fill="#FFCC00"/>
<path d="M30.2422 16L29.6204 17.9021L30.5772 18.2111L30.2422 16Z" fill="#FFCC00"/>
<path d="M28.3203 17.385L30.331 17.3822L30.3295 18.3793L28.3203 17.385Z" fill="#FFCC00"/>
<path d="M28.3203 17.3835L29.9468 18.5577L30.5395 17.7472L28.3203 17.3835Z" fill="#FFCC00"/>
<path d="M29.0547 19.6189L29.6776 17.716L30.6333 18.0242L29.0547 19.6189Z" fill="#FFCC00"/>
<path d="M29.0547 19.6179L30.6833 18.4415L30.0928 17.6333L29.0547 19.6179Z" fill="#FFCC00"/>
<path d="M32.1484 17.385L30.1378 17.3822L30.1392 18.3793L32.1484 17.385Z" fill="#FFCC00"/>
<path d="M32.1484 17.3835L30.5219 18.5577L29.9292 17.7472L32.1484 17.3835Z" fill="#FFCC00"/>
<path d="M31.4141 19.6189L30.7911 17.716L29.8355 18.0242L31.4141 19.6189Z" fill="#FFCC00"/>
<path d="M31.4141 19.6179L29.7854 18.4415L30.3759 17.6333L31.4141 19.6179Z" fill="#FFCC00"/>
<path d="M25.3828 9.22583L23.7541 8.04932L24.3446 7.24124L25.3828 9.22583Z" fill="#FFCC00"/>
<path d="M25.3828 9.22656L24.7598 7.32361L23.8042 7.63178L25.3828 9.22656Z" fill="#FFCC00"/>
<path d="M26.1094 6.99048L24.4822 8.16526L23.8902 7.35546L26.1094 6.99048Z" fill="#FFCC00"/>
<path d="M26.1094 6.99121L24.098 6.98966L24.0988 7.9881L26.1094 6.99121Z" fill="#FFCC00"/>
<path d="M24.1953 5.60767L24.8183 7.51062L23.8627 7.8188L24.1953 5.60767Z" fill="#FFCC00"/>
<path d="M24.1953 5.60767L23.5747 7.50894L24.5327 7.8188L24.1953 5.60767Z" fill="#FFCC00"/>
<path d="M23.0156 9.22583L24.6427 8.05111L24.0506 7.24124L23.0156 9.22583Z" fill="#FFCC00"/>
<path d="M23.0156 9.2251L23.6363 7.32375L24.5942 7.63352L23.0156 9.2251Z" fill="#FFCC00"/>
<path d="M22.2891 6.98901L23.9175 8.16522L24.5083 7.35683L22.2891 6.98901Z" fill="#FFCC00"/>
<path d="M22.2891 6.98975L24.3005 6.991L24.3012 7.98975L22.2891 6.98975Z" fill="#FFCC00"/>
<path d="M27.4375 13.6189L28.0605 11.7159L29.0161 12.0241L27.4375 13.6189Z" fill="#FFCC00"/>
<path d="M27.4375 13.6182L29.0662 12.4417L28.4757 11.6336L27.4375 13.6182Z" fill="#FFCC00"/>
<path d="M29.8047 13.6179L28.1776 12.4432L28.7697 11.6333L29.8047 13.6179Z" fill="#FFCC00"/>
<path d="M29.8047 13.6172L29.184 11.7158L28.2261 12.0256L29.8047 13.6172Z" fill="#FFCC00"/>
<path d="M30.5312 11.3811L28.9028 12.5573L28.3121 11.7489L30.5312 11.3811Z" fill="#FFCC00"/>
<path d="M30.5312 11.3818L28.5198 11.3831L28.5191 12.3818L30.5312 11.3818Z" fill="#FFCC00"/>
<path d="M26.7109 11.3828L28.3381 12.5576L28.9301 11.7478L26.7109 11.3828Z" fill="#FFCC00"/>
<path d="M26.7109 11.3835L28.7223 11.382L28.7215 12.3804L26.7109 11.3835Z" fill="#FFCC00"/>
<path d="M28.625 9.99976L28.002 11.9027L28.9577 12.2109L28.625 9.99976Z" fill="#FFCC00"/>
<path d="M28.625 9.99976L29.2456 11.901L28.2876 12.2109L28.625 9.99976Z" fill="#FFCC00"/>
<path d="M26.7109 23.3857L28.721 23.3817L28.719 24.3777L26.7109 23.3857Z" fill="#FFCC00"/>
<path d="M26.7109 23.3838L28.3369 24.5573L28.9301 23.7463L26.7109 23.3838Z" fill="#FFCC00"/>
<path d="M27.4375 25.6201L28.0623 23.7159L29.0161 24.0227L27.4375 25.6201Z" fill="#FFCC00"/>
<path d="M27.4375 25.6179L29.0675 24.44L28.4784 23.6333L27.4375 25.6179Z" fill="#FFCC00"/>
<path d="M29.8047 25.6179L28.1782 24.4438L28.7709 23.6333L29.8047 25.6179Z" fill="#FFCC00"/>
<path d="M29.8047 25.6165L29.1848 23.7157L28.2261 24.026L29.8047 25.6165Z" fill="#FFCC00"/>
<path d="M28.625 22L28.0006 23.9039L28.9548 24.2111L28.625 22Z" fill="#FFCC00"/>
<path d="M28.625 22L29.2442 23.9003L28.2847 24.2111L28.625 22Z" fill="#FFCC00"/>
<path d="M30.5312 23.3818L28.5199 23.3834L28.5191 24.3818L30.5312 23.3818Z" fill="#FFCC00"/>
<path d="M30.5312 23.3811L28.9027 24.5575L28.3121 23.7492L30.5312 23.3811Z" fill="#FFCC00"/>
<path d="M22.2891 27.7781L24.2991 27.7741L24.2971 28.77L22.2891 27.7781Z" fill="#FFCC00"/>
<path d="M22.2891 27.7761L23.915 28.9497L24.5083 28.1386L22.2891 27.7761Z" fill="#FFCC00"/>
<path d="M23.0156 30.0125L23.6405 28.1082L24.5942 28.415L23.0156 30.0125Z" fill="#FFCC00"/>
<path d="M23.0156 30.0103L24.6456 28.8323L24.0565 28.0257L23.0156 30.0103Z" fill="#FFCC00"/>
<path d="M25.3828 30.0103L23.7563 28.8362L24.349 28.0257L25.3828 30.0103Z" fill="#FFCC00"/>
<path d="M25.3828 30.0088L24.7629 28.108L23.8042 28.4183L25.3828 30.0088Z" fill="#FFCC00"/>
<path d="M24.2031 26.3923L23.5787 28.2963L24.533 28.6035L24.2031 26.3923Z" fill="#FFCC00"/>
<path d="M24.2031 26.3923L24.8223 28.2926L23.8629 28.6035L24.2031 26.3923Z" fill="#FFCC00"/>
<path d="M26.1094 27.7742L24.0981 27.7757L24.0973 28.7742L26.1094 27.7742Z" fill="#FFCC00"/>
<path d="M26.1094 27.7734L24.4808 28.9498L23.8902 28.1416L26.1094 27.7734Z" fill="#FFCC00"/>
</g>
</g>
<defs>
<clipPath id="clip0_4323_20682">
<rect width="36" height="36" rx="18" fill="white"/>
</clipPath>
<clipPath id="clip1_4323_20682">
<rect x="-9" width="54.3273" height="36" fill="white"/>
</clipPath>
</defs>
</svg>
