<svg width="36" height="36" viewBox="0 0 36 36" fill="none" xmlns="http://www.w3.org/2000/svg">
<g clip-path="url(#clip0_4221_73023)">
<rect x="-9" y="-0.321533" width="60.75" height="43.3929" rx="4" fill="white"/>
<mask id="mask0_4221_73023" style="mask-type:luminance" maskUnits="userSpaceOnUse" x="-9" y="-1" width="61" height="45">
<rect x="-9" y="-0.321533" width="60.75" height="43.3929" rx="4" fill="white"/>
</mask>
<g mask="url(#mask0_4221_73023)">
<path fill-rule="evenodd" clip-rule="evenodd" d="M51.75 -0.321533H-9V2.57132H51.75V-0.321533ZM51.75 5.46418H-9V8.35704H51.75V5.46418ZM-9 11.2499H51.75V14.1428H-9V11.2499ZM51.75 17.0356H-9V19.9285H51.75V17.0356ZM-9 22.8213H51.75V25.7142H-9V22.8213ZM51.75 28.607H-9V31.4999H51.75V28.607ZM-9 34.3928H51.75V37.2856H-9V34.3928ZM51.75 40.1785H-9V43.0713H51.75V40.1785Z" fill="#D02F44"/>
<rect x="-9" y="-0.321533" width="26.0357" height="20.25" fill="#46467F"/>
<g filter="url(#filter0_d_4221_73023)">
<path fill-rule="evenodd" clip-rule="evenodd" d="M-4.66295 5.46415C-3.86411 5.46415 -3.21652 4.81656 -3.21652 4.01772C-3.21652 3.21888 -3.86411 2.57129 -4.66295 2.57129C-5.46179 2.57129 -6.10938 3.21888 -6.10938 4.01772C-6.10938 4.81656 -5.46179 5.46415 -4.66295 5.46415ZM1.12277 5.46415C1.92161 5.46415 2.5692 4.81656 2.5692 4.01772C2.5692 3.21888 1.92161 2.57129 1.12277 2.57129C0.323926 2.57129 -0.323662 3.21888 -0.323662 4.01772C-0.323662 4.81656 0.323926 5.46415 1.12277 5.46415ZM8.35491 4.01772C8.35491 4.81656 7.70732 5.46415 6.90848 5.46415C6.10964 5.46415 5.46205 4.81656 5.46205 4.01772C5.46205 3.21888 6.10964 2.57129 6.90848 2.57129C7.70732 2.57129 8.35491 3.21888 8.35491 4.01772ZM12.6942 5.46415C13.493 5.46415 14.1406 4.81656 14.1406 4.01772C14.1406 3.21888 13.493 2.57129 12.6942 2.57129C11.8954 2.57129 11.2478 3.21888 11.2478 4.01772C11.2478 4.81656 11.8954 5.46415 12.6942 5.46415ZM-0.323661 6.91057C-0.323661 7.70941 -0.971249 8.357 -1.77009 8.357C-2.56893 8.357 -3.21652 7.70941 -3.21652 6.91057C-3.21652 6.11173 -2.56893 5.46415 -1.77009 5.46415C-0.971249 5.46415 -0.323661 6.11173 -0.323661 6.91057ZM4.01562 8.357C4.81447 8.357 5.46205 7.70941 5.46205 6.91057C5.46205 6.11173 4.81447 5.46415 4.01562 5.46415C3.21678 5.46415 2.5692 6.11173 2.5692 6.91057C2.5692 7.70941 3.21678 8.357 4.01562 8.357ZM11.2478 6.91057C11.2478 7.70941 10.6002 8.357 9.80134 8.357C9.0025 8.357 8.35491 7.70941 8.35491 6.91057C8.35491 6.11173 9.0025 5.46415 9.80134 5.46415C10.6002 5.46415 11.2478 6.11173 11.2478 6.91057ZM12.6942 11.2499C13.493 11.2499 14.1406 10.6023 14.1406 9.80343C14.1406 9.00459 13.493 8.357 12.6942 8.357C11.8954 8.357 11.2478 9.00459 11.2478 9.80343C11.2478 10.6023 11.8954 11.2499 12.6942 11.2499ZM8.35491 9.80343C8.35491 10.6023 7.70732 11.2499 6.90848 11.2499C6.10964 11.2499 5.46205 10.6023 5.46205 9.80343C5.46205 9.00459 6.10964 8.357 6.90848 8.357C7.70732 8.357 8.35491 9.00459 8.35491 9.80343ZM1.12277 11.2499C1.92161 11.2499 2.5692 10.6023 2.5692 9.80343C2.5692 9.00459 1.92161 8.357 1.12277 8.357C0.323926 8.357 -0.323662 9.00459 -0.323662 9.80343C-0.323662 10.6023 0.323926 11.2499 1.12277 11.2499ZM-3.21652 9.80343C-3.21652 10.6023 -3.86411 11.2499 -4.66295 11.2499C-5.46179 11.2499 -6.10938 10.6023 -6.10938 9.80343C-6.10938 9.00459 -5.46179 8.357 -4.66295 8.357C-3.86411 8.357 -3.21652 9.00459 -3.21652 9.80343ZM-1.77009 14.1427C-0.971249 14.1427 -0.323661 13.4951 -0.323661 12.6963C-0.323661 11.8974 -0.971249 11.2499 -1.77009 11.2499C-2.56893 11.2499 -3.21652 11.8974 -3.21652 12.6963C-3.21652 13.4951 -2.56893 14.1427 -1.77009 14.1427ZM5.46205 12.6963C5.46205 13.4951 4.81447 14.1427 4.01562 14.1427C3.21678 14.1427 2.5692 13.4951 2.5692 12.6963C2.5692 11.8974 3.21678 11.2499 4.01562 11.2499C4.81447 11.2499 5.46205 11.8974 5.46205 12.6963ZM9.80134 14.1427C10.6002 14.1427 11.2478 13.4951 11.2478 12.6963C11.2478 11.8974 10.6002 11.2499 9.80134 11.2499C9.0025 11.2499 8.35491 11.8974 8.35491 12.6963C8.35491 13.4951 9.0025 14.1427 9.80134 14.1427ZM14.1406 15.5891C14.1406 16.388 13.493 17.0356 12.6942 17.0356C11.8954 17.0356 11.2478 16.388 11.2478 15.5891C11.2478 14.7903 11.8954 14.1427 12.6942 14.1427C13.493 14.1427 14.1406 14.7903 14.1406 15.5891ZM6.90848 17.0356C7.70732 17.0356 8.35491 16.388 8.35491 15.5891C8.35491 14.7903 7.70732 14.1427 6.90848 14.1427C6.10964 14.1427 5.46205 14.7903 5.46205 15.5891C5.46205 16.388 6.10964 17.0356 6.90848 17.0356ZM2.5692 15.5891C2.5692 16.388 1.92161 17.0356 1.12277 17.0356C0.323926 17.0356 -0.323662 16.388 -0.323662 15.5891C-0.323662 14.7903 0.323926 14.1427 1.12277 14.1427C1.92161 14.1427 2.5692 14.7903 2.5692 15.5891ZM-4.66295 17.0356C-3.86411 17.0356 -3.21652 16.388 -3.21652 15.5891C-3.21652 14.7903 -3.86411 14.1427 -4.66295 14.1427C-5.46179 14.1427 -6.10938 14.7903 -6.10938 15.5891C-6.10938 16.388 -5.46179 17.0356 -4.66295 17.0356Z" fill="url(#paint0_linear_4221_73023)"/>
</g>
</g>
</g>
<defs>
<filter id="filter0_d_4221_73023" x="-6.10938" y="2.57129" width="20.25" height="16.4644" filterUnits="userSpaceOnUse" color-interpolation-filters="sRGB">
<feFlood flood-opacity="0" result="BackgroundImageFix"/>
<feColorMatrix in="SourceAlpha" type="matrix" values="0 0 0 0 0 0 0 0 0 0 0 0 0 0 0 0 0 0 127 0" result="hardAlpha"/>
<feOffset dy="2"/>
<feColorMatrix type="matrix" values="0 0 0 0 0 0 0 0 0 0 0 0 0 0 0 0 0 0 0.06 0"/>
<feBlend mode="normal" in2="BackgroundImageFix" result="effect1_dropShadow_4221_73023"/>
<feBlend mode="normal" in="SourceGraphic" in2="effect1_dropShadow_4221_73023" result="shape"/>
</filter>
<linearGradient id="paint0_linear_4221_73023" x1="-6.10938" y1="2.57129" x2="-6.10938" y2="17.0356" gradientUnits="userSpaceOnUse">
<stop stop-color="white"/>
<stop offset="1" stop-color="#F0F0F0"/>
</linearGradient>
<clipPath id="clip0_4221_73023">
<rect width="36" height="36" rx="18" fill="white"/>
</clipPath>
</defs>
</svg>
