<svg width="64" height="64" viewBox="0 0 64 64" fill="none" xmlns="http://www.w3.org/2000/svg">
<path fill-rule="evenodd" clip-rule="evenodd" d="M39.5514 8.75932L31.9994 1.45459L24.4474 8.75932L14.0445 7.28732L12.2292 17.6379L2.94922 22.56L7.56304 32L2.94922 41.44L12.2292 46.3622L14.0445 56.7128L24.4474 55.2408L31.9994 62.5455L39.5514 55.2408L49.9543 56.7128L51.7696 46.3622L61.0496 41.44L56.4358 32L61.0496 22.56L51.7696 17.6379L49.9543 7.28732L39.5514 8.75932ZM17.4539 33.1346L28.3339 44.0146L46.3703 24.32L42.0939 20.3637L28.1303 35.5782L21.5558 29.0037L17.4539 33.1346Z" fill="#FF6224"/>
<path fill-rule="evenodd" clip-rule="evenodd" d="M38.829 10.9732L31.9985 4.36377L25.165 10.9732L15.7541 9.64086L14.1105 19.0052L5.71484 23.459L9.88939 32.0001L5.71484 40.5412L14.1105 44.995L15.7541 54.3594L25.165 53.027L31.9985 59.6365L38.829 53.027L48.2428 54.3594L49.8836 44.995L58.2821 40.5412L54.1076 32.0001L58.2821 23.459L49.8836 19.0052L48.2428 9.64086L38.829 10.9732ZM17.453 33.1347L28.333 44.0147L46.3694 24.3201L42.093 20.3638L28.1294 35.5783L21.5548 29.0038L17.453 33.1347Z" fill="#FF6224"/>
</svg>
