<svg width="72" height="72" viewBox="0 0 72 72" fill="none" xmlns="http://www.w3.org/2000/svg">
<g clip-path="url(#clip0_4085_38630)">
<path d="M52.9703 44.483L48.7283 40.241L52.9703 35.999C54.0846 34.8847 54.9686 33.5618 55.5716 32.1059C56.1747 30.6499 56.4851 29.0894 56.4851 27.5135C56.4851 25.9376 56.1747 24.3772 55.5716 22.9212C54.9686 21.4653 54.0846 20.1424 52.9703 19.028C51.856 17.9137 50.5331 17.0298 49.0771 16.4267C47.6212 15.8236 46.0607 15.5132 44.4848 15.5132C42.9089 15.5132 41.3484 15.8236 39.8925 16.4267C38.4365 17.0298 37.1136 17.9137 35.9993 19.028L31.7573 23.27L27.5153 19.028L31.7573 14.786C35.1422 11.4558 39.706 9.598 44.4544 9.61734C49.2029 9.63667 53.7514 11.5316 57.1091 14.8893C60.4668 18.247 62.3617 22.7954 62.381 27.5439C62.4003 32.2924 60.5425 36.8561 57.2123 40.241L52.9703 44.483ZM44.4833 52.97L40.2413 57.212C38.5749 58.9058 36.5896 60.2529 34.3999 61.1756C32.2102 62.0983 29.8596 62.5784 27.4834 62.588C25.1073 62.5977 22.7528 62.1368 20.5557 61.232C18.3586 60.3272 16.3624 58.9963 14.6822 57.3161C13.0021 55.6359 11.6712 53.6397 10.7663 51.4426C9.8615 49.2455 9.40063 46.891 9.41031 44.5149C9.41998 42.1388 9.90001 39.7881 10.8227 37.5984C11.7454 35.4088 13.0925 33.4235 14.7863 31.757L19.0283 27.515L23.2703 31.757L19.0283 35.999C17.914 37.1134 17.03 38.4363 16.427 39.8922C15.8239 41.3482 15.5135 42.9086 15.5135 44.4845C15.5135 46.0604 15.8239 47.6209 16.427 49.0769C17.03 50.5328 17.914 51.8557 19.0283 52.97C20.1426 54.0844 21.4655 54.9683 22.9215 55.5714C24.3774 56.1744 25.9379 56.4848 27.5138 56.4848C29.0897 56.4848 30.6502 56.1744 32.1061 55.5714C33.5621 54.9683 34.885 54.0844 35.9993 52.97L40.2413 48.728L44.4833 52.97ZM44.4833 23.27L48.7283 27.515L27.5153 48.725L23.2703 44.483L44.4833 23.273V23.27Z" fill="#142837"/>
<path d="M25 47L47 25" stroke="#16C6A4" stroke-width="6"/>
</g>
<defs>
<clipPath id="clip0_4085_38630">
<rect width="72" height="72" fill="white"/>
</clipPath>
</defs>
</svg>
