<svg width="36" height="36" viewBox="0 0 36 36" fill="none" xmlns="http://www.w3.org/2000/svg">
<rect width="36" height="36" rx="18" fill="#F6F7FB"/>
<g clip-path="url(#clip0_12293_127192)">
<path d="M15.5003 18.833V21.333H20.5003V18.833H26.3337V24.6663C26.3337 24.8874 26.2459 25.0993 26.0896 25.2556C25.9333 25.4119 25.7213 25.4997 25.5003 25.4997H10.5003C10.2793 25.4997 10.0674 25.4119 9.91107 25.2556C9.75479 25.0993 9.66699 24.8874 9.66699 24.6663V18.833H15.5003ZM17.167 17.1663H18.8337V19.6663H17.167V17.1663ZM13.8337 12.1663V9.66634C13.8337 9.44533 13.9215 9.23337 14.0777 9.07709C14.234 8.92081 14.446 8.83301 14.667 8.83301H21.3337C21.5547 8.83301 21.7666 8.92081 21.9229 9.07709C22.0792 9.23337 22.167 9.44533 22.167 9.66634V12.1663H25.5003C25.7213 12.1663 25.9333 12.2541 26.0896 12.4104C26.2459 12.5667 26.3337 12.7787 26.3337 12.9997V17.1663H20.5003V15.4997H15.5003V17.1663H9.66699V12.9997C9.66699 12.7787 9.75479 12.5667 9.91107 12.4104C10.0674 12.2541 10.2793 12.1663 10.5003 12.1663H13.8337ZM15.5003 10.4997V12.1663H20.5003V10.4997H15.5003Z" fill="#A9B3C4"/>
<rect x="17.167" y="17.167" width="1.66667" height="2.5" fill="#A9B3C4"/>
</g>
<defs>
<clipPath id="clip0_12293_127192">
<rect width="20" height="20" fill="white" transform="translate(8 8)"/>
</clipPath>
</defs>
</svg>
