<svg width="24" height="24" viewBox="0 0 24 24" fill="none" xmlns="http://www.w3.org/2000/svg">
<path d="M2 9.35H14.5C14.9652 9.35 15.35 8.96523 15.35 8.5C15.35 8.03477 14.9652 7.65 14.5 7.65H2C1.53477 7.65 1.15 8.03477 1.15 8.5C1.15 8.96523 1.53477 9.35 2 9.35Z" fill="#000918" stroke="#000918" stroke-width="0.2"/>
<path d="M6 17.35H8C8.46523 17.35 8.85 16.9652 8.85 16.5C8.85 16.0348 8.46523 15.65 8 15.65H6C5.53477 15.65 5.15 16.0348 5.15 16.5C5.15 16.9652 5.53477 17.35 6 17.35Z" fill="#000918" stroke="#000918" stroke-width="0.2"/>
<path d="M10.5 17.35H14.5C14.9652 17.35 15.35 16.9652 15.35 16.5C15.35 16.0348 14.9652 15.65 14.5 15.65H10.5C10.0348 15.65 9.65 16.0348 9.65 16.5C9.65 16.9652 10.0348 17.35 10.5 17.35Z" fill="#000918" stroke="#000918" stroke-width="0.2"/>
<path d="M6.44 21.35H17.56C19.5533 21.35 20.8876 21.0512 21.7167 20.2272C22.5462 19.4029 22.845 18.0783 22.84 16.0997V14.02C22.84 13.5548 22.4552 13.17 21.99 13.17C21.5248 13.17 21.14 13.5548 21.14 14.02V16.1C21.14 16.8735 21.1055 17.4801 21.0071 17.9563C20.9088 18.4313 20.7485 18.7686 20.5023 19.0113C20.256 19.2541 19.9136 19.4123 19.4316 19.5091C18.9485 19.6062 18.3336 19.64 17.55 19.64H6.44C5.65642 19.64 5.04145 19.6062 4.55845 19.5091C4.07644 19.4123 3.734 19.2541 3.4877 19.0113C3.24154 18.7686 3.08116 18.4313 2.98293 17.9563C2.88445 17.4801 2.85 16.8735 2.85 16.1V7.89C2.85 7.11647 2.88445 6.50986 2.98293 6.03369C3.08116 5.55869 3.24154 5.22139 3.4877 4.97871C3.734 4.7359 4.07644 4.57768 4.55845 4.48085C5.04145 4.38382 5.65642 4.35 6.44 4.35H14.5C14.9652 4.35 15.35 3.96523 15.35 3.5C15.35 3.03477 14.9652 2.65 14.5 2.65H6.44C4.44667 2.65 3.11253 2.94884 2.28212 3.77146C1.45143 4.59437 1.15 5.91637 1.15 7.89V16.11C1.15 18.0836 1.45143 19.4056 2.28212 20.2285C3.11253 21.0512 4.44667 21.35 6.44 21.35Z" fill="#000918" stroke="#000918" stroke-width="0.2"/>
<path d="M19.6706 10.2819L19.6706 10.2819L19.6729 10.2828C19.7824 10.3267 19.885 10.35 20 10.35C20.2268 10.35 20.4422 10.2592 20.6007 10.1007L22.6007 8.10071C22.9298 7.77166 22.9298 7.22834 22.6007 6.89929C22.2717 6.57024 21.7283 6.57024 21.3993 6.89929L20.85 7.44858V3.5C20.85 3.03477 20.4652 2.65 20 2.65C19.5348 2.65 19.15 3.03477 19.15 3.5V9.5C19.15 9.84081 19.3546 10.1465 19.6706 10.2819Z" fill="#000918" stroke="#000918" stroke-width="0.2"/>
<path d="M19.3987 10.1011C19.5685 10.2709 19.7844 10.3504 19.9995 10.3504C20.2145 10.3504 20.4304 10.2709 20.6002 10.1011C20.9292 9.77209 20.9292 9.22877 20.6002 8.89972L18.6002 6.89972C18.2711 6.57067 17.7278 6.57067 17.3987 6.89972C17.0697 7.22877 17.0697 7.77209 17.3987 8.10114L19.3987 10.1011Z" fill="#000918" stroke="#000918" stroke-width="0.2"/>
</svg>
