<svg width="16" height="16" viewBox="0 0 16 16" fill="none" xmlns="http://www.w3.org/2000/svg">
<path d="M14.6124 7.73366C13.2657 4.60699 10.7324 2.66699 7.99907 2.66699C5.26573 2.66699 2.7324 4.60699 1.38573 7.73366C1.34903 7.81777 1.33008 7.90855 1.33008 8.00033C1.33008 8.0921 1.34903 8.18288 1.38573 8.26699C2.7324 11.3937 5.26573 13.3337 7.99907 13.3337C10.7324 13.3337 13.2657 11.3937 14.6124 8.26699C14.6491 8.18288 14.6681 8.0921 14.6681 8.00033C14.6681 7.90855 14.6491 7.81777 14.6124 7.73366ZM7.99907 12.0003C5.88573 12.0003 3.88573 10.4737 2.7324 8.00033C3.88573 5.52699 5.88573 4.00033 7.99907 4.00033C10.1124 4.00033 12.1124 5.52699 13.2657 8.00033C12.1124 10.4737 10.1124 12.0003 7.99907 12.0003ZM7.99907 5.33366C7.47165 5.33366 6.95608 5.49006 6.51755 5.78307C6.07902 6.07609 5.73722 6.49257 5.53539 6.97984C5.33356 7.46711 5.28075 8.00328 5.38364 8.52057C5.48653 9.03785 5.74051 9.513 6.11345 9.88594C6.48639 10.2589 6.96154 10.5129 7.47883 10.6158C7.99611 10.7186 8.53229 10.6658 9.01956 10.464C9.50683 10.2622 9.9233 9.92038 10.2163 9.48185C10.5093 9.04331 10.6657 8.52774 10.6657 8.00033C10.6657 7.29308 10.3848 6.6148 9.88469 6.11471C9.38459 5.61461 8.70631 5.33366 7.99907 5.33366ZM7.99907 9.33366C7.73536 9.33366 7.47757 9.25546 7.25831 9.10895C7.03904 8.96244 6.86814 8.7542 6.76723 8.51057C6.66631 8.26693 6.63991 7.99885 6.69135 7.7402C6.7428 7.48156 6.86979 7.24399 7.05626 7.05752C7.24273 6.87105 7.48031 6.74406 7.73895 6.69261C7.99759 6.64116 8.26568 6.66757 8.50931 6.76849C8.75295 6.8694 8.96118 7.0403 9.10769 7.25956C9.2542 7.47883 9.3324 7.73662 9.3324 8.00033C9.3324 8.35395 9.19192 8.69309 8.94188 8.94313C8.69183 9.19318 8.35269 9.33366 7.99907 9.33366Z" fill="white"/>
</svg>
