<svg width="24" height="24" viewBox="0 0 24 24" fill="none" xmlns="http://www.w3.org/2000/svg">
<path d="M1.15 12C1.15 17.9852 6.01477 22.85 12 22.85C17.9852 22.85 22.85 17.9852 22.85 12C22.85 11.5348 22.4652 11.15 22 11.15C21.5348 11.15 21.15 11.5348 21.15 12C21.15 17.0448 17.0448 21.15 12 21.15C6.95523 21.15 2.85 17.0448 2.85 12C2.85 6.95523 6.95523 2.85 12 2.85C12.4652 2.85 12.85 2.46523 12.85 2C12.85 1.53477 12.4652 1.15 12 1.15C6.01477 1.15 1.15 6.01477 1.15 12Z" fill="#000918" stroke="#000918" stroke-width="0.2"/>
<path d="M12.3987 11.6009C12.5685 11.7707 12.7844 11.8502 12.9995 11.8502C13.2145 11.8502 13.4304 11.7707 13.6002 11.6009L21.8002 3.40094C22.1292 3.07189 22.1292 2.52858 21.8002 2.19952C21.4711 1.87047 20.9278 1.87047 20.5987 2.19952L12.3987 10.3995C12.0697 10.7286 12.0697 11.2719 12.3987 11.6009Z" fill="#000918" stroke="#000918" stroke-width="0.2"/>
<path d="M21.1499 6.83C21.1499 7.29523 21.5347 7.68 21.9999 7.68C22.4652 7.68 22.8499 7.29523 22.8499 6.83V2C22.8499 1.53477 22.4651 1.15 21.9999 1.15H17.1699C16.7047 1.15 16.3199 1.53477 16.3199 2C16.3199 2.46523 16.7047 2.85 17.1699 2.85H21.1499V6.83Z" fill="#000918" stroke="#000918" stroke-width="0.2"/>
</svg>
