<svg width="20" height="20" viewBox="0 0 20 20" fill="none" xmlns="http://www.w3.org/2000/svg">
<path d="M13.7623 2.5C16.6364 2.5 18.3327 4.15383 18.3327 6.98483H14.8068V7.01372C13.1704 7.01372 11.8438 8.30707 11.8438 9.9025C11.8438 11.4979 13.1704 12.7913 14.8068 12.7913H18.3327V13.0513C18.3327 15.8462 16.6364 17.5 13.7623 17.5H6.23639C3.36231 17.5 1.66602 15.8462 1.66602 13.0513V6.94872C1.66602 4.15383 3.36231 2.5 6.23639 2.5H13.7623ZM17.7105 8.22701C18.0541 8.22701 18.3327 8.49861 18.3327 8.83365V10.9425C18.3287 11.2759 18.0524 11.5452 17.7105 11.5491H14.8734C14.045 11.56 13.3206 11.007 13.1327 10.2203C13.0386 9.73191 13.1707 9.22797 13.4936 8.84351C13.8165 8.45906 14.2971 8.2334 14.8068 8.22701H17.7105ZM15.2068 9.20197H14.9327C14.7644 9.20004 14.6024 9.26387 14.4827 9.3792C14.363 9.49453 14.2956 9.65177 14.2956 9.81584C14.2956 10.16 14.5797 10.4402 14.9327 10.4441H15.2068C15.5586 10.4441 15.8438 10.1661 15.8438 9.82306C15.8438 9.48004 15.5586 9.20197 15.2068 9.20197ZM10.3179 5.74266H5.61416C5.26521 5.74263 4.98118 6.01633 4.97713 6.35652C4.97713 6.70073 5.26114 6.98088 5.61416 6.98483H10.3179C10.6697 6.98483 10.9549 6.70676 10.9549 6.36375C10.9549 6.02073 10.6697 5.74266 10.3179 5.74266Z" fill="white"/>
</svg>
