<svg width="155" height="59" viewBox="0 0 155 59" fill="none" xmlns="http://www.w3.org/2000/svg">
<rect width="154.781" height="59" rx="4" fill="#142837"/>
<path d="M43.0271 30.3891C42.9953 26.8517 45.9235 25.1308 46.0574 25.0507C44.399 22.6328 41.8286 22.3024 40.9253 22.2761C38.7664 22.0489 36.6723 23.5679 35.5726 23.5679C34.4509 23.5679 32.7574 22.298 30.9322 22.3354C28.5834 22.3716 26.3862 23.7314 25.1811 25.8431C22.694 30.1488 24.5489 36.4761 26.9316 39.9564C28.1236 41.6609 29.5163 43.564 31.3394 43.4971C33.1229 43.4235 33.7891 42.36 35.9414 42.36C38.0739 42.36 38.6995 43.4971 40.5587 43.4543C42.4728 43.4235 43.6779 41.7421 44.8281 40.0222C46.2056 38.0686 46.7587 36.1446 46.7807 36.0458C46.7357 36.0305 43.0633 34.6289 43.0271 30.3891Z" fill="white"/>
<path d="M39.5152 19.9878C40.4744 18.7882 41.1307 17.1562 40.9485 15.5C39.5602 15.5615 37.8238 16.4603 36.824 17.6336C35.9394 18.6675 35.1491 20.3621 35.3533 21.9557C36.9129 22.0721 38.5142 21.1688 39.5152 19.9878Z" fill="white"/>
<path d="M63.2128 23L62.5288 21.116H58.7488L58.0648 23H56.8768L60.0088 14.6H61.2688L64.4008 23H63.2128ZM59.1328 20.072H62.1448L60.6328 15.932L59.1328 20.072ZM69.2493 17H70.3773L67.9773 23H66.7533L64.3533 17H65.4813L67.3653 21.884L69.2493 17ZM75.9939 17H77.0379V23H75.9939V21.968C75.4739 22.76 74.7179 23.156 73.7259 23.156C72.8859 23.156 72.1699 22.852 71.5779 22.244C70.9859 21.628 70.6899 20.88 70.6899 20C70.6899 19.12 70.9859 18.376 71.5779 17.768C72.1699 17.152 72.8859 16.844 73.7259 16.844C74.7179 16.844 75.4739 17.24 75.9939 18.032V17ZM73.8579 22.148C74.4659 22.148 74.9739 21.944 75.3819 21.536C75.7899 21.12 75.9939 20.608 75.9939 20C75.9939 19.392 75.7899 18.884 75.3819 18.476C74.9739 18.06 74.4659 17.852 73.8579 17.852C73.2579 17.852 72.7539 18.06 72.3459 18.476C71.9379 18.884 71.7339 19.392 71.7339 20C71.7339 20.608 71.9379 21.12 72.3459 21.536C72.7539 21.944 73.2579 22.148 73.8579 22.148ZM79.1476 15.908C78.9476 15.908 78.7796 15.84 78.6436 15.704C78.5076 15.568 78.4396 15.404 78.4396 15.212C78.4396 15.02 78.5076 14.856 78.6436 14.72C78.7796 14.576 78.9476 14.504 79.1476 14.504C79.3396 14.504 79.5036 14.576 79.6396 14.72C79.7756 14.856 79.8436 15.02 79.8436 15.212C79.8436 15.404 79.7756 15.568 79.6396 15.704C79.5036 15.84 79.3396 15.908 79.1476 15.908ZM78.6196 23V17H79.6636V23H78.6196ZM81.2564 23V14.24H82.3004V23H81.2564ZM88.8611 17H89.9051V23H88.8611V21.968C88.3411 22.76 87.5851 23.156 86.5931 23.156C85.7531 23.156 85.0371 22.852 84.4451 22.244C83.8531 21.628 83.5571 20.88 83.5571 20C83.5571 19.12 83.8531 18.376 84.4451 17.768C85.0371 17.152 85.7531 16.844 86.5931 16.844C87.5851 16.844 88.3411 17.24 88.8611 18.032V17ZM86.7251 22.148C87.3331 22.148 87.8411 21.944 88.2491 21.536C88.6571 21.12 88.8611 20.608 88.8611 20C88.8611 19.392 88.6571 18.884 88.2491 18.476C87.8411 18.06 87.3331 17.852 86.7251 17.852C86.1251 17.852 85.6211 18.06 85.2131 18.476C84.8051 18.884 84.6011 19.392 84.6011 20C84.6011 20.608 84.8051 21.12 85.2131 21.536C85.6211 21.944 86.1251 22.148 86.7251 22.148ZM94.7988 16.844C95.6388 16.844 96.3548 17.152 96.9468 17.768C97.5388 18.376 97.8348 19.12 97.8348 20C97.8348 20.88 97.5388 21.628 96.9468 22.244C96.3548 22.852 95.6388 23.156 94.7988 23.156C93.8068 23.156 93.0508 22.76 92.5308 21.968V23H91.4868V14.6H92.5308V18.032C93.0508 17.24 93.8068 16.844 94.7988 16.844ZM94.6668 22.148C95.2668 22.148 95.7708 21.944 96.1788 21.536C96.5868 21.12 96.7908 20.608 96.7908 20C96.7908 19.392 96.5868 18.884 96.1788 18.476C95.7708 18.06 95.2668 17.852 94.6668 17.852C94.0588 17.852 93.5508 18.06 93.1428 18.476C92.7348 18.884 92.5308 19.392 92.5308 20C92.5308 20.608 92.7348 21.12 93.1428 21.536C93.5508 21.944 94.0588 22.148 94.6668 22.148ZM99.0806 23V14.24H100.125V23H99.0806ZM102.449 20.48C102.553 21.016 102.797 21.432 103.181 21.728C103.573 22.024 104.053 22.172 104.621 22.172C105.413 22.172 105.989 21.88 106.349 21.296L107.237 21.8C106.653 22.704 105.773 23.156 104.597 23.156C103.645 23.156 102.869 22.86 102.269 22.268C101.677 21.668 101.381 20.912 101.381 20C101.381 19.096 101.673 18.344 102.257 17.744C102.841 17.144 103.597 16.844 104.525 16.844C105.405 16.844 106.121 17.156 106.673 17.78C107.233 18.396 107.513 19.14 107.513 20.012C107.513 20.164 107.501 20.32 107.477 20.48H102.449ZM104.525 17.828C103.965 17.828 103.501 17.988 103.133 18.308C102.765 18.62 102.537 19.04 102.449 19.568H106.457C106.369 19 106.145 18.568 105.785 18.272C105.425 17.976 105.005 17.828 104.525 17.828ZM116.777 22.244C116.161 22.852 115.413 23.156 114.533 23.156C113.653 23.156 112.905 22.852 112.289 22.244C111.681 21.636 111.377 20.888 111.377 20C111.377 19.112 111.681 18.364 112.289 17.756C112.905 17.148 113.653 16.844 114.533 16.844C115.413 16.844 116.161 17.148 116.777 17.756C117.393 18.364 117.701 19.112 117.701 20C117.701 20.888 117.393 21.636 116.777 22.244ZM114.533 22.136C115.133 22.136 115.637 21.932 116.045 21.524C116.453 21.116 116.657 20.608 116.657 20C116.657 19.392 116.453 18.884 116.045 18.476C115.637 18.068 115.133 17.864 114.533 17.864C113.941 17.864 113.441 18.068 113.033 18.476C112.625 18.884 112.421 19.392 112.421 20C112.421 20.608 112.625 21.116 113.033 21.524C113.441 21.932 113.941 22.136 114.533 22.136ZM121.92 16.844C122.624 16.844 123.188 17.068 123.612 17.516C124.036 17.956 124.248 18.556 124.248 19.316V23H123.204V19.376C123.204 18.888 123.072 18.512 122.808 18.248C122.544 17.976 122.18 17.84 121.716 17.84C121.196 17.84 120.776 18.004 120.456 18.332C120.136 18.652 119.976 19.148 119.976 19.82V23H118.932V17H119.976V17.864C120.4 17.184 121.048 16.844 121.92 16.844Z" fill="white"/>
<path d="M65.0208 41L64.3488 38.984H59.8848L59.2128 41H56.8288L60.7488 29.8H63.4848L67.4208 41H65.0208ZM60.5888 36.92H63.6608L62.1248 32.344L60.5888 36.92ZM73.0683 32.776C74.1456 32.776 75.0629 33.1867 75.8203 34.008C76.5883 34.8187 76.9723 35.816 76.9723 37C76.9723 38.184 76.5883 39.1867 75.8203 40.008C75.0629 40.8187 74.1456 41.224 73.0683 41.224C71.9483 41.224 71.0843 40.8347 70.4763 40.056V44.2H68.4123V33H70.4763V33.944C71.0843 33.1653 71.9483 32.776 73.0683 32.776ZM71.1003 38.632C71.5163 39.048 72.0443 39.256 72.6843 39.256C73.3243 39.256 73.8523 39.048 74.2683 38.632C74.6949 38.2053 74.9083 37.6613 74.9083 37C74.9083 36.3387 74.6949 35.8 74.2683 35.384C73.8523 34.9573 73.3243 34.744 72.6843 34.744C72.0443 34.744 71.5163 34.9573 71.1003 35.384C70.6843 35.8 70.4763 36.3387 70.4763 37C70.4763 37.6613 70.6843 38.2053 71.1003 38.632ZM83.0839 32.776C84.1612 32.776 85.0786 33.1867 85.8359 34.008C86.6039 34.8187 86.9879 35.816 86.9879 37C86.9879 38.184 86.6039 39.1867 85.8359 40.008C85.0786 40.8187 84.1612 41.224 83.0839 41.224C81.9639 41.224 81.0999 40.8347 80.4919 40.056V44.2H78.4279V33H80.4919V33.944C81.0999 33.1653 81.9639 32.776 83.0839 32.776ZM81.1159 38.632C81.5319 39.048 82.0599 39.256 82.6999 39.256C83.3399 39.256 83.8679 39.048 84.2839 38.632C84.7106 38.2053 84.9239 37.6613 84.9239 37C84.9239 36.3387 84.7106 35.8 84.2839 35.384C83.8679 34.9573 83.3399 34.744 82.6999 34.744C82.0599 34.744 81.5319 34.9573 81.1159 35.384C80.6999 35.8 80.4919 36.3387 80.4919 37C80.4919 37.6613 80.6999 38.2053 81.1159 38.632ZM96.3635 41.224C95.2542 41.224 94.3208 40.9787 93.5635 40.488C92.8062 39.9867 92.2728 39.3093 91.9635 38.456L93.8515 37.352C94.2888 38.4933 95.1475 39.064 96.4275 39.064C97.0462 39.064 97.4995 38.952 97.7875 38.728C98.0755 38.504 98.2195 38.2213 98.2195 37.88C98.2195 37.4853 98.0435 37.1813 97.6915 36.968C97.3395 36.744 96.7102 36.504 95.8035 36.248C95.3022 36.0987 94.8755 35.9493 94.5235 35.8C94.1822 35.6507 93.8355 35.4533 93.4835 35.208C93.1422 34.952 92.8808 34.632 92.6995 34.248C92.5182 33.864 92.4275 33.416 92.4275 32.904C92.4275 31.8907 92.7848 31.0853 93.4995 30.488C94.2248 29.88 95.0942 29.576 96.1075 29.576C97.0142 29.576 97.8088 29.8 98.4915 30.248C99.1848 30.6853 99.7235 31.2987 100.108 32.088L98.2515 33.16C97.8035 32.2 97.0888 31.72 96.1075 31.72C95.6488 31.72 95.2862 31.8267 95.0195 32.04C94.7635 32.2427 94.6355 32.5093 94.6355 32.84C94.6355 33.192 94.7795 33.48 95.0675 33.704C95.3662 33.9173 95.9315 34.152 96.7635 34.408C97.1048 34.5147 97.3608 34.6 97.5315 34.664C97.7128 34.7173 97.9528 34.808 98.2515 34.936C98.5608 35.0533 98.7955 35.1653 98.9555 35.272C99.1262 35.3787 99.3182 35.5227 99.5315 35.704C99.7448 35.8853 99.9048 36.072 100.012 36.264C100.129 36.456 100.225 36.6907 100.3 36.968C100.385 37.2347 100.428 37.528 100.428 37.848C100.428 38.8827 100.049 39.704 99.2915 40.312C98.5448 40.92 97.5688 41.224 96.3635 41.224ZM106.113 34.984H104.305V38.312C104.305 38.5893 104.375 38.792 104.513 38.92C104.652 39.048 104.855 39.1227 105.121 39.144C105.388 39.1547 105.719 39.1493 106.113 39.128V41C104.695 41.16 103.692 41.0267 103.105 40.6C102.529 40.1733 102.241 39.4107 102.241 38.312V34.984H100.849V33H102.241V31.384L104.305 30.76V33H106.113V34.984ZM114.135 40.008C113.313 40.8187 112.311 41.224 111.127 41.224C109.943 41.224 108.94 40.8187 108.119 40.008C107.308 39.1867 106.903 38.184 106.903 37C106.903 35.816 107.308 34.8187 108.119 34.008C108.94 33.1867 109.943 32.776 111.127 32.776C112.311 32.776 113.313 33.1867 114.135 34.008C114.956 34.8187 115.367 35.816 115.367 37C115.367 38.184 114.956 39.1867 114.135 40.008ZM109.575 38.584C109.991 39 110.508 39.208 111.127 39.208C111.745 39.208 112.263 39 112.679 38.584C113.095 38.168 113.303 37.64 113.303 37C113.303 36.36 113.095 35.832 112.679 35.416C112.263 35 111.745 34.792 111.127 34.792C110.508 34.792 109.991 35 109.575 35.416C109.169 35.832 108.967 36.36 108.967 37C108.967 37.64 109.169 38.168 109.575 38.584ZM118.883 34.376C119.075 33.864 119.389 33.48 119.827 33.224C120.275 32.968 120.771 32.84 121.315 32.84V35.144C120.685 35.0693 120.12 35.1973 119.619 35.528C119.128 35.8587 118.883 36.408 118.883 37.176V41H116.819V33H118.883V34.376ZM123.969 37.848C124.246 38.8507 124.998 39.352 126.225 39.352C127.014 39.352 127.611 39.0853 128.017 38.552L129.681 39.512C128.891 40.6533 127.729 41.224 126.193 41.224C124.87 41.224 123.809 40.824 123.009 40.024C122.209 39.224 121.809 38.216 121.809 37C121.809 35.7947 122.203 34.792 122.993 33.992C123.782 33.1813 124.795 32.776 126.033 32.776C127.206 32.776 128.171 33.1813 128.929 33.992C129.697 34.8027 130.081 35.8053 130.081 37C130.081 37.2667 130.054 37.5493 130.001 37.848H123.969ZM123.937 36.248H128.017C127.899 35.704 127.654 35.2987 127.281 35.032C126.918 34.7653 126.502 34.632 126.033 34.632C125.478 34.632 125.019 34.776 124.657 35.064C124.294 35.3413 124.054 35.736 123.937 36.248Z" fill="white"/>
</svg>
