<svg width="159" height="59" viewBox="0 0 159 59" fill="none" xmlns="http://www.w3.org/2000/svg">
<rect x="0.780762" width="157.24" height="59" rx="4" fill="#142837"/>
<path d="M36.5653 28.8712L24.8896 41.1731C24.8901 41.1757 24.891 41.1778 24.8914 41.1804C25.2495 42.5163 26.4786 43.4999 27.9374 43.4999C28.5205 43.4999 29.068 43.3434 29.5375 43.0686L29.5748 43.0469L42.718 35.5185L36.5659 28.8711" fill="white"/>
<path d="M36.5653 28.8712L24.8896 41.1731C24.8901 41.1757 24.891 41.1778 24.8914 41.1804C25.2495 42.5163 26.4786 43.4999 27.9374 43.4999C28.5205 43.4999 29.068 43.3434 29.5375 43.0686L29.5748 43.0469L42.718 35.5185L36.5659 28.8711" stroke="#142837"/>
<path d="M48.3781 26.7768L48.3669 26.7692L42.6926 23.5039L36.2998 29.1507L42.7148 35.5178L48.3592 32.285C49.3488 31.7547 50.0206 30.7191 50.0206 29.5249C50.0206 28.3393 49.3578 27.309 48.378 26.7769" fill="white"/>
<path d="M48.3781 26.7768L48.3669 26.7692L42.6926 23.5039L36.2998 29.1507L42.7148 35.5178L48.3592 32.285C49.3488 31.7547 50.0206 30.7191 50.0206 29.5249C50.0206 28.3393 49.3578 27.309 48.378 26.7769" stroke="#142837"/>
<path d="M24.8878 17.8262C24.8177 18.0831 24.7808 18.3522 24.7808 18.6317V40.3703C24.7808 40.6492 24.8172 40.9193 24.8883 41.1753L36.967 29.1877L24.8883 17.8265" fill="white"/>
<path d="M24.8878 17.8262C24.8177 18.0831 24.7808 18.3522 24.7808 18.6317V40.3703C24.7808 40.6492 24.8172 40.9193 24.8883 41.1753L36.967 29.1877L24.8883 17.8265" stroke="#142837"/>
<path d="M36.6516 29.5007L42.6953 23.5032L29.5669 15.9475C29.0897 15.6637 28.5328 15.5 27.9368 15.5C26.4781 15.5 25.2473 16.4854 24.8891 17.8228C24.8887 17.8241 24.8887 17.825 24.8887 17.8261L36.6515 29.5009" fill="white"/>
<path d="M36.6516 29.5007L42.6953 23.5032L29.5669 15.9475C29.0897 15.6637 28.5328 15.5 27.9368 15.5C26.4781 15.5 25.2473 16.4854 24.8891 17.8228C24.8887 17.8241 24.8887 17.825 24.8887 17.8261L36.6515 29.5009" stroke="#142837"/>
<path d="M66.4525 23L65.7685 21.116H61.9885L61.3045 23H60.1165L63.2485 14.6H64.5085L67.6405 23H66.4525ZM62.3725 20.072H65.3845L63.8725 15.932L62.3725 20.072ZM72.4891 17H73.6171L71.2171 23H69.9931L67.5931 17H68.7211L70.6051 21.884L72.4891 17ZM79.2336 17H80.2776V23H79.2336V21.968C78.7136 22.76 77.9576 23.156 76.9656 23.156C76.1256 23.156 75.4096 22.852 74.8176 22.244C74.2256 21.628 73.9296 20.88 73.9296 20C73.9296 19.12 74.2256 18.376 74.8176 17.768C75.4096 17.152 76.1256 16.844 76.9656 16.844C77.9576 16.844 78.7136 17.24 79.2336 18.032V17ZM77.0976 22.148C77.7056 22.148 78.2136 21.944 78.6216 21.536C79.0296 21.12 79.2336 20.608 79.2336 20C79.2336 19.392 79.0296 18.884 78.6216 18.476C78.2136 18.06 77.7056 17.852 77.0976 17.852C76.4976 17.852 75.9936 18.06 75.5856 18.476C75.1776 18.884 74.9736 19.392 74.9736 20C74.9736 20.608 75.1776 21.12 75.5856 21.536C75.9936 21.944 76.4976 22.148 77.0976 22.148ZM82.3874 15.908C82.1874 15.908 82.0194 15.84 81.8834 15.704C81.7474 15.568 81.6794 15.404 81.6794 15.212C81.6794 15.02 81.7474 14.856 81.8834 14.72C82.0194 14.576 82.1874 14.504 82.3874 14.504C82.5794 14.504 82.7434 14.576 82.8794 14.72C83.0154 14.856 83.0834 15.02 83.0834 15.212C83.0834 15.404 83.0154 15.568 82.8794 15.704C82.7434 15.84 82.5794 15.908 82.3874 15.908ZM81.8594 23V17H82.9034V23H81.8594ZM84.4961 23V14.24H85.5401V23H84.4961ZM92.1008 17H93.1448V23H92.1008V21.968C91.5808 22.76 90.8248 23.156 89.8328 23.156C88.9928 23.156 88.2768 22.852 87.6848 22.244C87.0928 21.628 86.7968 20.88 86.7968 20C86.7968 19.12 87.0928 18.376 87.6848 17.768C88.2768 17.152 88.9928 16.844 89.8328 16.844C90.8248 16.844 91.5808 17.24 92.1008 18.032V17ZM89.9648 22.148C90.5728 22.148 91.0808 21.944 91.4888 21.536C91.8968 21.12 92.1008 20.608 92.1008 20C92.1008 19.392 91.8968 18.884 91.4888 18.476C91.0808 18.06 90.5728 17.852 89.9648 17.852C89.3648 17.852 88.8608 18.06 88.4528 18.476C88.0448 18.884 87.8408 19.392 87.8408 20C87.8408 20.608 88.0448 21.12 88.4528 21.536C88.8608 21.944 89.3648 22.148 89.9648 22.148ZM98.0386 16.844C98.8786 16.844 99.5946 17.152 100.187 17.768C100.779 18.376 101.075 19.12 101.075 20C101.075 20.88 100.779 21.628 100.187 22.244C99.5946 22.852 98.8786 23.156 98.0386 23.156C97.0466 23.156 96.2906 22.76 95.7706 21.968V23H94.7266V14.6H95.7706V18.032C96.2906 17.24 97.0466 16.844 98.0386 16.844ZM97.9066 22.148C98.5066 22.148 99.0106 21.944 99.4186 21.536C99.8266 21.12 100.031 20.608 100.031 20C100.031 19.392 99.8266 18.884 99.4186 18.476C99.0106 18.06 98.5066 17.852 97.9066 17.852C97.2986 17.852 96.7906 18.06 96.3826 18.476C95.9746 18.884 95.7706 19.392 95.7706 20C95.7706 20.608 95.9746 21.12 96.3826 21.536C96.7906 21.944 97.2986 22.148 97.9066 22.148ZM102.32 23V14.24H103.364V23H102.32ZM105.689 20.48C105.793 21.016 106.037 21.432 106.421 21.728C106.813 22.024 107.293 22.172 107.861 22.172C108.653 22.172 109.229 21.88 109.589 21.296L110.477 21.8C109.893 22.704 109.013 23.156 107.837 23.156C106.885 23.156 106.109 22.86 105.509 22.268C104.917 21.668 104.621 20.912 104.621 20C104.621 19.096 104.913 18.344 105.497 17.744C106.081 17.144 106.837 16.844 107.765 16.844C108.645 16.844 109.361 17.156 109.913 17.78C110.473 18.396 110.753 19.14 110.753 20.012C110.753 20.164 110.741 20.32 110.717 20.48H105.689ZM107.765 17.828C107.205 17.828 106.741 17.988 106.373 18.308C106.005 18.62 105.777 19.04 105.689 19.568H109.697C109.609 19 109.385 18.568 109.025 18.272C108.665 17.976 108.245 17.828 107.765 17.828ZM120.017 22.244C119.401 22.852 118.653 23.156 117.773 23.156C116.893 23.156 116.145 22.852 115.529 22.244C114.921 21.636 114.617 20.888 114.617 20C114.617 19.112 114.921 18.364 115.529 17.756C116.145 17.148 116.893 16.844 117.773 16.844C118.653 16.844 119.401 17.148 120.017 17.756C120.633 18.364 120.941 19.112 120.941 20C120.941 20.888 120.633 21.636 120.017 22.244ZM117.773 22.136C118.373 22.136 118.877 21.932 119.285 21.524C119.693 21.116 119.897 20.608 119.897 20C119.897 19.392 119.693 18.884 119.285 18.476C118.877 18.068 118.373 17.864 117.773 17.864C117.181 17.864 116.681 18.068 116.273 18.476C115.865 18.884 115.661 19.392 115.661 20C115.661 20.608 115.865 21.116 116.273 21.524C116.681 21.932 117.181 22.136 117.773 22.136ZM125.16 16.844C125.864 16.844 126.428 17.068 126.852 17.516C127.276 17.956 127.488 18.556 127.488 19.316V23H126.444V19.376C126.444 18.888 126.312 18.512 126.048 18.248C125.784 17.976 125.42 17.84 124.956 17.84C124.436 17.84 124.016 18.004 123.696 18.332C123.376 18.652 123.216 19.148 123.216 19.82V23H122.172V17H123.216V17.864C123.64 17.184 124.288 16.844 125.16 16.844Z" fill="white"/>
<path d="M68.2605 41L67.5885 38.984H63.1245L62.4525 41H60.0685L63.9885 29.8H66.7245L70.6605 41H68.2605ZM63.8285 36.92H66.9005L65.3645 32.344L63.8285 36.92ZM76.308 32.776C77.3853 32.776 78.3027 33.1867 79.06 34.008C79.828 34.8187 80.212 35.816 80.212 37C80.212 38.184 79.828 39.1867 79.06 40.008C78.3027 40.8187 77.3853 41.224 76.308 41.224C75.188 41.224 74.324 40.8347 73.716 40.056V44.2H71.652V33H73.716V33.944C74.324 33.1653 75.188 32.776 76.308 32.776ZM74.34 38.632C74.756 39.048 75.284 39.256 75.924 39.256C76.564 39.256 77.092 39.048 77.508 38.632C77.9347 38.2053 78.148 37.6613 78.148 37C78.148 36.3387 77.9347 35.8 77.508 35.384C77.092 34.9573 76.564 34.744 75.924 34.744C75.284 34.744 74.756 34.9573 74.34 35.384C73.924 35.8 73.716 36.3387 73.716 37C73.716 37.6613 73.924 38.2053 74.34 38.632ZM86.3236 32.776C87.401 32.776 88.3183 33.1867 89.0756 34.008C89.8436 34.8187 90.2276 35.816 90.2276 37C90.2276 38.184 89.8436 39.1867 89.0756 40.008C88.3183 40.8187 87.401 41.224 86.3236 41.224C85.2036 41.224 84.3396 40.8347 83.7316 40.056V44.2H81.6676V33H83.7316V33.944C84.3396 33.1653 85.2036 32.776 86.3236 32.776ZM84.3556 38.632C84.7716 39.048 85.2996 39.256 85.9396 39.256C86.5796 39.256 87.1076 39.048 87.5236 38.632C87.9503 38.2053 88.1636 37.6613 88.1636 37C88.1636 36.3387 87.9503 35.8 87.5236 35.384C87.1076 34.9573 86.5796 34.744 85.9396 34.744C85.2996 34.744 84.7716 34.9573 84.3556 35.384C83.9396 35.8 83.7316 36.3387 83.7316 37C83.7316 37.6613 83.9396 38.2053 84.3556 38.632ZM99.6033 41.224C98.4939 41.224 97.5606 40.9787 96.8033 40.488C96.0459 39.9867 95.5126 39.3093 95.2033 38.456L97.0913 37.352C97.5286 38.4933 98.3873 39.064 99.6673 39.064C100.286 39.064 100.739 38.952 101.027 38.728C101.315 38.504 101.459 38.2213 101.459 37.88C101.459 37.4853 101.283 37.1813 100.931 36.968C100.579 36.744 99.9499 36.504 99.0433 36.248C98.5419 36.0987 98.1153 35.9493 97.7633 35.8C97.4219 35.6507 97.0753 35.4533 96.7233 35.208C96.3819 34.952 96.1206 34.632 95.9393 34.248C95.7579 33.864 95.6673 33.416 95.6673 32.904C95.6673 31.8907 96.0246 31.0853 96.7393 30.488C97.4646 29.88 98.3339 29.576 99.3473 29.576C100.254 29.576 101.049 29.8 101.731 30.248C102.425 30.6853 102.963 31.2987 103.347 32.088L101.491 33.16C101.043 32.2 100.329 31.72 99.3473 31.72C98.8886 31.72 98.5259 31.8267 98.2593 32.04C98.0033 32.2427 97.8753 32.5093 97.8753 32.84C97.8753 33.192 98.0193 33.48 98.3073 33.704C98.6059 33.9173 99.1713 34.152 100.003 34.408C100.345 34.5147 100.601 34.6 100.771 34.664C100.953 34.7173 101.193 34.808 101.491 34.936C101.801 35.0533 102.035 35.1653 102.195 35.272C102.366 35.3787 102.558 35.5227 102.771 35.704C102.985 35.8853 103.145 36.072 103.251 36.264C103.369 36.456 103.465 36.6907 103.539 36.968C103.625 37.2347 103.667 37.528 103.667 37.848C103.667 38.8827 103.289 39.704 102.531 40.312C101.785 40.92 100.809 41.224 99.6033 41.224ZM109.353 34.984H107.545V38.312C107.545 38.5893 107.614 38.792 107.753 38.92C107.892 39.048 108.094 39.1227 108.361 39.144C108.628 39.1547 108.958 39.1493 109.353 39.128V41C107.934 41.16 106.932 41.0267 106.345 40.6C105.769 40.1733 105.481 39.4107 105.481 38.312V34.984H104.089V33H105.481V31.384L107.545 30.76V33H109.353V34.984ZM117.374 40.008C116.553 40.8187 115.55 41.224 114.366 41.224C113.182 41.224 112.18 40.8187 111.358 40.008C110.548 39.1867 110.142 38.184 110.142 37C110.142 35.816 110.548 34.8187 111.358 34.008C112.18 33.1867 113.182 32.776 114.366 32.776C115.55 32.776 116.553 33.1867 117.374 34.008C118.196 34.8187 118.606 35.816 118.606 37C118.606 38.184 118.196 39.1867 117.374 40.008ZM112.814 38.584C113.23 39 113.748 39.208 114.366 39.208C114.985 39.208 115.502 39 115.918 38.584C116.334 38.168 116.542 37.64 116.542 37C116.542 36.36 116.334 35.832 115.918 35.416C115.502 35 114.985 34.792 114.366 34.792C113.748 34.792 113.23 35 112.814 35.416C112.409 35.832 112.206 36.36 112.206 37C112.206 37.64 112.409 38.168 112.814 38.584ZM122.122 34.376C122.314 33.864 122.629 33.48 123.066 33.224C123.514 32.968 124.01 32.84 124.554 32.84V35.144C123.925 35.0693 123.36 35.1973 122.858 35.528C122.368 35.8587 122.122 36.408 122.122 37.176V41H120.058V33H122.122V34.376ZM127.209 37.848C127.486 38.8507 128.238 39.352 129.465 39.352C130.254 39.352 130.851 39.0853 131.257 38.552L132.921 39.512C132.131 40.6533 130.969 41.224 129.433 41.224C128.11 41.224 127.049 40.824 126.249 40.024C125.449 39.224 125.049 38.216 125.049 37C125.049 35.7947 125.443 34.792 126.233 33.992C127.022 33.1813 128.035 32.776 129.273 32.776C130.446 32.776 131.411 33.1813 132.169 33.992C132.937 34.8027 133.321 35.8053 133.321 37C133.321 37.2667 133.294 37.5493 133.241 37.848H127.209ZM127.177 36.248H131.257C131.139 35.704 130.894 35.2987 130.521 35.032C130.158 34.7653 129.742 34.632 129.273 34.632C128.718 34.632 128.259 34.776 127.897 35.064C127.534 35.3413 127.294 35.736 127.177 36.248Z" fill="white"/>
</svg>
