<svg width="57" height="17" viewBox="0 0 57 17" fill="none" xmlns="http://www.w3.org/2000/svg">
<path d="M0.613281 0.220703H6.27727L10.2835 8.69151L14.2667 0.220703H19.9307V16.4449H15.2568V7.55744L12.0103 14.871H8.53366L5.28723 7.55744V16.4449H0.613281V0.220703Z" fill="#061130"/>
<path d="M20.9766 0.220703H26.6866L30.0251 10.8671L33.3406 0.220703H38.7974L32.6269 16.4449H27.101L20.9766 0.220703Z" fill="#061130"/>
<path d="M45.1173 0.220703L49.8427 7.94355L44.7684 16.4449H38.5597L44.2237 8.20548L38.905 0.220703H45.1173Z" fill="#061130"/>
<path d="M48.3985 2.5299L51.0471 7.70031L56.1042 0.220703H49.8186L48.3985 2.5299Z" fill="#061130"/>
<path d="M51.0425 8.19608L48.3061 13.5447L50.187 16.4449H56.5877L51.0425 8.19608Z" fill="#061130"/>
</svg>
