<svg width="159" height="30" viewBox="0 0 159 30" fill="none" xmlns="http://www.w3.org/2000/svg">
<path d="M52.2363 8.63641H55.6089L55.4887 12.8667H55.5194C56.2128 10.2161 57.7482 8.39844 60.8188 8.39844C64.0405 8.39844 65.8164 10.4845 65.8164 14.1477C65.8164 15.0717 65.7268 16.2615 65.6654 16.8869H62.5947C62.6561 16.3223 62.715 15.5755 62.715 14.892C62.715 12.4186 61.7528 11.2591 59.7646 11.2591C57.2057 11.2591 55.6115 13.4034 55.6115 16.9172V23.35H52.2389V8.63641H52.2363Z" fill="white"/>
<path d="M66.3235 19.1183C66.3235 16.8855 67.9202 15.1286 71.8916 15.1286H77.4009V14.0855C77.4009 11.8805 76.1061 10.8983 73.4884 10.8983C71.2007 10.8983 69.9059 11.7615 69.9059 13.3995C69.9059 13.4881 69.9059 13.7261 69.9366 13.964H66.8353C66.8045 13.7564 66.7738 13.3691 66.7738 13.1008C66.7738 10.1515 69.3634 8.39453 73.6061 8.39453C78.1225 8.39453 80.771 10.5084 80.771 14.3817V23.3461H77.3983C77.4598 22.6322 77.5493 21.2904 77.5493 20.1006H77.5186C77.0375 22.2752 75.2617 23.5866 71.9786 23.5866C68.6956 23.5866 66.3184 21.979 66.3184 19.1183H66.3235ZM77.4009 17.4196V17.1513H72.1936C70.2667 17.1513 69.4248 17.807 69.4248 18.969C69.4248 20.3082 70.6301 21.0828 72.6772 21.0828C75.5969 21.0828 77.4035 19.6829 77.4035 17.4196H77.4009Z" fill="white"/>
<path d="M112.954 16.6475H101.815C101.997 19.4778 103.591 20.9942 106.119 20.9942C108.287 20.9942 109.761 20.0424 109.912 18.3133H112.952C112.831 21.5892 110.122 23.5841 106.058 23.5841C101.363 23.5841 98.4121 20.7259 98.4121 16.1083C98.4121 11.4907 101.363 8.39453 106.058 8.39453C110.273 8.39453 112.952 10.8679 112.952 15.4526V16.645L112.954 16.6475ZM109.914 14.4146C109.914 12.2096 108.53 10.9894 106.091 10.9894C103.653 10.9894 102.299 12.1818 101.908 14.6222H109.914V14.4146Z" fill="white"/>
<path d="M127.522 18.9395H118.279L116.593 23.347H112.859L120.928 3.75H125.324L133.361 23.347H129.177L127.522 18.9395ZM126.619 16.5573L122.947 6.78791H122.885L119.182 16.5573H126.619Z" fill="white"/>
<path d="M133.844 3.65625H137.216V23.3495H133.844V3.65625Z" fill="white"/>
<path d="M138.84 3.65625H142.212V23.3495H138.84V3.65625Z" fill="white"/>
<path d="M36.8516 3.75391V6.70067H42.9929V6.71333H46.5933L43.9909 9.28796L42.9929 10.2753V23.3509H46.6061V6.70067H52.7474V3.75391H36.8516Z" fill="white"/>
<path d="M155.545 8.63534L151.361 19.9819H151.3L149.946 23.3464C148.833 26.0856 148.109 26.8602 146.545 26.8602C145.793 26.8602 145.099 26.6805 144.68 26.5615V29.1817C145.102 29.3311 146.005 29.569 147.149 29.569C150.099 29.569 151.545 28.0501 153.201 23.6426L158.861 8.63281H155.55L155.545 8.63534Z" fill="white"/>
<path d="M142.691 8.63672L148.521 21.9503L151.302 19.9833L146.576 8.63672H142.691Z" fill="white"/>
<path d="M94.4928 3.65625V11.3118H94.4621C93.8607 9.58523 92.113 8.48146 89.3136 8.48146C84.8893 8.48146 82.0898 11.5497 82.0898 15.9876C82.0898 20.4255 84.7997 23.671 89.1038 23.671C92.1437 23.671 94.0117 22.1824 94.5823 19.8584H94.6412C94.5823 21.2888 94.5516 22.5672 94.4902 23.433H97.8628V3.65625H94.4902H94.4928ZM94.4928 16.2256C94.4928 19.0837 92.6274 20.9318 89.7972 20.9318C87.1488 20.9318 85.4318 18.9065 85.4318 15.9876C85.4318 13.0687 87.1769 11.2232 89.8561 11.2232C92.5352 11.2232 94.4928 12.8915 94.4928 15.5117V16.2256Z" fill="white"/>
<path d="M21.4447 0.429688H3.86004C1.80802 0.429688 0.144531 2.07543 0.144531 4.10555V21.5026C0.144531 23.5327 1.80802 25.1785 3.86004 25.1785H21.4447C23.4967 25.1785 25.1602 23.5327 25.1602 21.5026V4.10555C25.1602 2.07543 23.4967 0.429688 21.4447 0.429688Z" fill="#16C6A4"/>
<path d="M18.4207 19.3752C18.4207 19.2993 18.3593 19.2385 18.2825 19.2385C15.9718 19.2385 14.0987 17.5221 14.0987 15.4057V11.2539C14.0987 11.1779 14.0373 11.1172 13.9605 11.1172H9.51318C9.43641 11.1172 9.375 11.1779 9.375 11.2539V15.5576C9.375 19.8664 13.1877 23.3574 17.8935 23.3574H18.2825C18.3593 23.3574 18.4207 23.2967 18.4207 23.2207V19.3727V19.3752Z" fill="white"/>
<path d="M16.9504 5.8076C17.7461 5.8076 18.3911 5.16948 18.3911 4.38232C18.3911 3.59515 17.7461 2.95703 16.9504 2.95703C16.1548 2.95703 15.5098 3.59515 15.5098 4.38232C15.5098 5.16948 16.1548 5.8076 16.9504 5.8076Z" fill="white"/>
<path d="M14.5006 2.53125H10.1147C10.0354 2.53125 9.97139 2.59707 9.97651 2.67555C9.98163 2.75403 9.98419 2.82998 9.98419 2.91099C9.98419 4.79196 8.70218 6.36154 6.99284 6.74128C6.92887 6.75647 6.88281 6.80963 6.88281 6.87545V11.4678C6.88281 11.5488 6.95446 11.6121 7.03379 11.6045C11.3046 11.169 14.6414 7.44253 14.6414 2.91099C14.6414 2.82745 14.6414 2.74643 14.6362 2.66542C14.6362 2.59201 14.5723 2.53125 14.4981 2.53125H14.5006Z" fill="white"/>
</svg>
