<svg width="145" height="71" viewBox="0 0 145 71" fill="none" xmlns="http://www.w3.org/2000/svg">
<path opacity="0.7" d="M47.6505 32.021C47.1616 32.1916 46.644 32.2636 46.1279 32.2328C45.611 32.202 45.1057 32.0689 44.6403 31.8413C44.175 31.6137 43.7591 31.2959 43.4155 30.9061C43.0719 30.5163 42.8085 30.0623 42.6395 29.5698L36.5547 11.4026C36.3865 10.9152 36.3156 10.3991 36.3471 9.88396C36.3786 9.36894 36.5118 8.86537 36.738 8.40254C36.9649 7.93964 37.2799 7.52676 37.6665 7.18779C38.053 6.84887 38.5026 6.59067 38.9886 6.42822L56.9567 0.228277C57.4442 0.0466878 57.9646 -0.0279543 58.4829 0.00934403C59.0019 0.0466424 59.5066 0.195021 59.9633 0.444554C60.4279 0.664351 60.8445 0.975177 61.1888 1.35889C61.5332 1.7426 61.798 2.19151 61.9677 2.67942L68.1241 20.8467C68.4448 21.8317 68.3689 22.9038 67.9143 23.8336C67.459 24.7634 66.6609 25.4768 65.6902 25.821L47.6505 32.021Z" fill="#EBECF0"/>
<path opacity="0.7" d="M57.7515 2.48344L39.7255 8.66339C38.865 8.95847 38.4047 9.9005 38.6975 10.7674L44.8296 28.9072C45.1224 29.7741 46.058 30.2377 46.9192 29.9425L64.9452 23.7625C65.8057 23.4675 66.266 22.5254 65.9732 21.6585L59.8411 3.51875C59.5476 2.65185 58.6127 2.18833 57.7515 2.48344Z" fill="#C1C7D0"/>
<g opacity="0.7">
<path opacity="0.7" d="M51.3015 22.4331L45.2883 19.3331C45.216 19.3022 45.1508 19.2565 45.0964 19.1992C45.0427 19.1417 45.0005 19.0737 44.974 18.9993C44.9468 18.9249 44.9361 18.8458 44.9404 18.7667C44.9454 18.6877 44.9661 18.6106 45.0019 18.5401L45.7894 17.0261C45.8266 16.9595 45.8767 16.9009 45.9368 16.8538C45.9963 16.8067 46.065 16.7721 46.138 16.752C46.2117 16.7318 46.2883 16.7266 46.3635 16.7365C46.4387 16.7464 46.511 16.7714 46.5768 16.8099L50.6572 18.9005L55.883 9.38437C55.9202 9.31768 55.9703 9.25907 56.0305 9.212C56.0899 9.16492 56.1586 9.13032 56.2316 9.1102C56.3053 9.09002 56.3819 9.08483 56.4571 9.0947C56.5323 9.10465 56.6046 9.12959 56.6704 9.16809L58.1737 9.96111C58.2954 10.048 58.3828 10.1744 58.4221 10.319C58.4608 10.4635 58.4493 10.6173 58.3885 10.7541L52.0173 22.2168C51.9873 22.2812 51.9443 22.3384 51.8914 22.3848C51.8377 22.4313 51.7754 22.4658 51.7074 22.4863C51.6401 22.5067 51.5692 22.5125 51.4991 22.5033C51.4289 22.4941 51.3616 22.4702 51.3015 22.4331Z" fill="#FAFBFC"/>
</g>
<path d="M53.708 63.9897C52.8835 63.8092 52.1023 63.4652 51.4108 62.9778C50.7194 62.4905 50.1313 61.8694 49.68 61.1509C49.2294 60.4324 48.9242 59.6307 48.7839 58.7925C48.6435 57.9544 48.6703 57.0964 48.862 56.2686L55.6609 25.5299C56.0406 23.8621 57.0597 22.4132 58.4962 21.4991C59.9319 20.5848 61.6692 20.2795 63.3277 20.6496L93.7782 27.4966C94.6085 27.6708 95.3955 28.0122 96.092 28.5004C96.7878 28.9886 97.3787 29.6134 97.8286 30.3374C98.2879 31.0521 98.6011 31.8517 98.7501 32.6896C98.8991 33.5276 98.881 34.387 98.6966 35.2177L91.8976 65.8836C91.727 66.7208 91.3914 67.5151 90.9104 68.2197C90.4301 68.9242 89.8146 69.525 89.1 69.9865C88.3861 70.448 87.5868 70.761 86.7507 70.907C85.9146 71.053 85.0575 71.0292 84.2308 70.8367L53.708 63.9897Z" fill="#EBECF0"/>
<path d="M93.0438 31.0472L62.4674 24.2207C61.0245 23.8985 59.5953 24.8154 59.2756 26.2686L52.5034 57.0325C52.1837 58.4856 53.0936 59.9249 54.5366 60.247L85.1129 67.0735C86.5559 67.3957 87.9851 66.4788 88.3048 65.0256L95.0769 34.2617C95.3973 32.8085 94.4867 31.3694 93.0438 31.0472Z" fill="#16C6A4"/>
<path d="M66.9439 53.7178L61.1576 44.1757C61.047 43.9506 61.0231 43.6924 61.0896 43.4505C61.1562 43.2085 61.3095 42.9999 61.5193 42.8645L63.9061 41.4077C64.0103 41.3404 64.1275 41.2945 64.249 41.2727C64.3712 41.2509 64.4963 41.2536 64.6171 41.2807C64.7386 41.3078 64.8529 41.3587 64.9542 41.4305C65.0554 41.5023 65.1422 41.5935 65.2081 41.6991L69.0415 48.1091L84.5199 39.2954C84.7325 39.1882 84.9777 39.1662 85.2055 39.2338C85.4341 39.3013 85.6287 39.4535 85.7495 39.6596L87.1237 42.1361C87.1874 42.2456 87.2286 42.3669 87.2452 42.4928C87.2619 42.6186 87.2525 42.7465 87.2192 42.8688C87.1852 42.9911 87.1273 43.1054 87.0485 43.2048C86.9704 43.3041 86.8727 43.3866 86.7621 43.4473L68.2459 54.0091C68.1417 54.0765 68.0253 54.1223 67.903 54.1441C67.7808 54.1659 67.6557 54.1632 67.5349 54.1361C67.4141 54.109 67.2991 54.0582 67.1978 53.9863C67.0966 53.9145 67.0105 53.8233 66.9439 53.7178Z" fill="#F4F5F7"/>
<path d="M10.4662 25.2539C11.0401 27.8168 12.3196 30.165 14.1579 32.0292C15.9962 33.8934 18.3188 35.1982 20.8596 35.7941C18.3244 36.3764 16.0039 37.6676 14.1652 39.5193C12.3265 41.371 11.0443 43.708 10.4662 46.2611C9.88246 43.6985 8.58938 41.3551 6.73697 39.5025C4.88452 37.6499 2.54858 36.3641 0 35.7941C2.55419 35.2104 4.89231 33.911 6.7443 32.046C8.59628 30.1809 9.8866 27.8262 10.4662 25.2539Z" fill="#16C6A4"/>
<path d="M22.2398 51.5312C22.4682 52.6091 23.0016 53.5973 23.7754 54.3766C24.5492 55.1558 25.5305 55.6929 26.6007 55.923C25.5324 56.1831 24.5578 56.7392 23.7871 57.5283C23.0164 58.3174 22.4804 59.3079 22.2398 60.3879C21.9992 59.3079 21.4632 58.3174 20.6926 57.5283C19.9218 56.7392 18.9472 56.1831 17.8789 55.923C18.9491 55.6929 19.9304 55.1558 20.7043 54.3766C21.478 53.5973 22.0114 52.6091 22.2398 51.5312Z" fill="#16C6A4"/>
<path d="M145 19.7656C142.368 19.1545 139.962 17.8062 138.058 15.8764C136.155 13.9466 134.833 11.514 134.243 8.85938C133.654 11.514 132.332 13.9466 130.428 15.8764C128.525 17.8062 126.118 19.1545 123.486 19.7656C126.117 20.3548 128.525 21.6868 130.43 23.6055C132.335 25.5242 133.658 27.95 134.243 30.5985C134.828 27.95 136.151 25.5242 138.056 23.6055C139.961 21.6868 142.37 20.3548 145 19.7656Z" fill="#16C6A4"/>
<path d="M118.034 7.46782C116.934 7.21844 115.926 6.65959 115.128 5.85626C114.33 5.05292 113.776 4.03807 113.528 2.92969C113.28 4.03807 112.725 5.05292 111.927 5.85626C111.13 6.65959 110.122 7.21844 109.021 7.46782C110.122 7.7172 111.13 8.27605 111.927 9.07937C112.725 9.88277 113.28 10.8976 113.528 12.006C113.776 10.8976 114.33 9.88277 115.128 9.07937C115.926 8.27605 116.934 7.7172 118.034 7.46782Z" fill="#16C6A4"/>
</svg>
