<svg width="132" height="132" viewBox="0 0 132 132" fill="none" xmlns="http://www.w3.org/2000/svg">
<g clip-path="url(#clip0_149_1713)">
<path d="M0 128.744V130.393C0 132.164 1.43544 133.599 3.20615 133.599H44.7935C46.5642 133.599 47.9997 132.164 47.9997 130.393V128.744C47.9997 115.489 37.2546 104.744 23.9998 104.744C10.7451 104.744 0 115.489 0 128.744Z" fill="#16C6A4"/>
<ellipse opacity="0.8" cx="24.0009" cy="100.62" rx="11.9999" ry="12.3666" fill="#142837"/>
<path d="M84 128.744V130.393C84 132.164 85.4354 133.599 87.2062 133.599H128.794C130.564 133.599 132 132.164 132 130.393V128.744C132 115.489 121.255 104.744 108 104.744C94.7451 104.744 84 115.489 84 128.744Z" fill="#16C6A4"/>
<ellipse opacity="0.8" cx="108" cy="100.62" rx="11.9999" ry="12.3666" fill="#142837"/>
<path d="M27.998 126.254V128.56C27.998 131.342 30.2537 133.598 33.0363 133.598H98.9593C101.742 133.598 103.998 131.342 103.998 128.56V126.254C103.998 105.267 86.9845 88.2539 65.9978 88.2539C45.0111 88.2539 27.998 105.267 27.998 126.254Z" fill="#142837"/>
<ellipse opacity="0.8" cx="67.9999" cy="80.0104" rx="19.9999" ry="20.611" fill="#16C6A4"/>
<path d="M94.1146 55.2092C95.2027 55.2092 96.0847 54.3282 96.0847 53.2413C96.0847 52.1545 95.2027 51.2734 94.1146 51.2734C93.0266 51.2734 92.1445 52.1545 92.1445 53.2413C92.1445 54.3282 93.0266 55.2092 94.1146 55.2092Z" fill="#6B778C"/>
<path d="M94.1226 59.3767C93.9246 59.3767 93.7189 59.3767 93.5176 59.3448L93.7343 57.1129C93.8993 57.1305 94.0643 57.136 94.2282 57.1316L94.2942 59.358L94.1226 59.3767ZM97.5854 58.3042L96.3259 56.465C96.4625 56.3704 96.5929 56.2671 96.7164 56.1559L98.197 57.8235C98.0033 57.9963 97.7991 58.1569 97.5854 58.3042ZM100.031 54.8942L97.8835 54.2958C97.9275 54.1352 97.9616 53.9735 97.9858 53.8085L100.198 54.0813V54.1407C100.157 54.3963 100.1 54.6491 100.027 54.8975L100.031 54.8942ZM88.1089 54.4905C88.0564 54.2371 88.0201 53.9807 88 53.7227L90.2253 53.5489C90.2385 53.7139 90.2627 53.8767 90.2968 54.0384L88.1078 54.4905H88.1089ZM97.6723 51.6085C97.603 51.4589 97.5244 51.3137 97.4369 51.174L99.3201 49.9838C99.4576 50.2038 99.5808 50.4326 99.6897 50.6691L97.6723 51.6085ZM90.6719 51.394L88.704 50.3435C88.8275 50.1137 88.9656 49.8922 89.1176 49.6802L90.9326 50.976C90.8358 51.1102 90.7478 51.251 90.6686 51.3973L90.6719 51.394ZM95.7924 49.7077C95.6432 49.6371 95.4896 49.5761 95.3326 49.5251L96.0212 47.4054C96.2687 47.4857 96.5096 47.5814 96.745 47.6936L95.7924 49.7077ZM92.6607 49.612L91.8291 47.544C92.0711 47.4472 92.3164 47.3658 92.5683 47.2998L93.1326 49.469C92.9723 49.5089 92.8147 49.5588 92.6607 49.6186V49.612Z" fill="#C1C7D0"/>
<path d="M27.5 77.6455L36.619 80.4879V74.7998L27.5 77.6455Z" fill="#16C6A4"/>
</g>
<defs>
<clipPath id="clip0_149_1713">
<rect width="132" height="132" rx="66" fill="white"/>
</clipPath>
</defs>
</svg>
