<svg width="42" height="42" viewBox="0 0 42 42" fill="none" xmlns="http://www.w3.org/2000/svg">
<path fill-rule="evenodd" clip-rule="evenodd" d="M4.59375 22.9688H18.375C18.549 22.9688 18.716 23.0379 18.839 23.161C18.9621 23.284 19.0312 23.451 19.0312 23.625V37.4062C19.0312 37.5803 18.9621 37.7472 18.839 37.8703C18.716 37.9934 18.549 38.0625 18.375 38.0625H4.59375C4.4197 38.0625 4.25278 37.9934 4.12971 37.8703C4.00664 37.7472 3.9375 37.5803 3.9375 37.4062V23.625C3.9375 23.451 4.00664 23.284 4.12971 23.161C4.25278 23.0379 4.4197 22.9688 4.59375 22.9688ZM23.625 22.9688H37.4062C37.5803 22.9688 37.7472 23.0379 37.8703 23.161C37.9934 23.284 38.0625 23.451 38.0625 23.625V37.4062C38.0625 37.5803 37.9934 37.7472 37.8703 37.8703C37.7472 37.9934 37.5803 38.0625 37.4062 38.0625H23.625C23.451 38.0625 23.284 37.9934 23.161 37.8703C23.0379 37.7472 22.9688 37.5803 22.9688 37.4062V23.625C22.9688 23.451 23.0379 23.284 23.161 23.161C23.284 23.0379 23.451 22.9688 23.625 22.9688ZM14.1094 3.9375H27.8906C28.0647 3.9375 28.2316 4.00664 28.3547 4.12971C28.4777 4.25278 28.5469 4.4197 28.5469 4.59375V18.375C28.5469 18.549 28.4777 18.716 28.3547 18.839C28.2316 18.9621 28.0647 19.0312 27.8906 19.0312H14.1094C13.9353 19.0312 13.7684 18.9621 13.6453 18.839C13.5223 18.716 13.4531 18.549 13.4531 18.375V4.59375C13.4531 4.4197 13.5223 4.25278 13.6453 4.12971C13.7684 4.00664 13.9353 3.9375 14.1094 3.9375Z" fill="#142837"/>
</svg>
