<svg width="556" height="320" viewBox="0 0 556 320" fill="none" xmlns="http://www.w3.org/2000/svg">
<g clip-path="url(#clip0_256_1591)">
<rect width="556" height="320" rx="16" fill="#16C6A4"/>
<path opacity="0.6" d="M380.969 163.543C380.995 164.338 381.013 165.136 381.022 165.935L380.419 165.942C380.423 166.339 380.426 166.737 380.426 167.136C380.426 167.534 380.423 167.932 380.419 168.33L381.022 168.336C381.013 169.136 380.995 169.933 380.969 170.728L380.366 170.708C380.34 171.5 380.305 172.29 380.261 173.078L380.863 173.112C380.819 173.91 380.766 174.707 380.704 175.501L380.102 175.454C380.041 176.244 379.971 177.031 379.892 177.816L380.492 177.876C380.412 178.673 380.323 179.466 380.225 180.257L379.627 180.183C379.53 180.97 379.424 181.755 379.31 182.536L379.906 182.623C379.791 183.414 379.666 184.202 379.533 184.987L378.939 184.886C378.806 185.668 378.665 186.448 378.516 187.224L379.108 187.338C378.957 188.122 378.797 188.902 378.629 189.68L378.039 189.552C377.872 190.328 377.695 191.101 377.51 191.87L378.097 192.011C377.91 192.786 377.716 193.558 377.513 194.327L376.93 194.173C376.727 194.941 376.515 195.705 376.295 196.466L376.875 196.633C376.654 197.399 376.424 198.161 376.187 198.919L375.611 198.738C375.374 199.496 375.128 200.251 374.874 201.001L375.445 201.194C375.189 201.949 374.925 202.7 374.653 203.447L374.087 203.241C373.815 203.987 373.535 204.729 373.247 205.467L373.809 205.686C373.52 206.429 373.222 207.168 372.916 207.902L372.359 207.67C372.054 208.403 371.741 209.131 371.421 209.855L371.972 210.099C371.649 210.828 371.318 211.553 370.979 212.273L370.433 212.017C370.096 212.734 369.75 213.447 369.397 214.156L369.937 214.425C369.581 215.138 369.217 215.848 368.846 216.552L368.313 216.271C367.943 216.972 367.566 217.669 367.181 218.361L367.708 218.654C367.321 219.351 366.926 220.043 366.523 220.73L366.003 220.425C365.602 221.109 365.194 221.788 364.778 222.462L365.292 222.778C364.873 223.457 364.447 224.131 364.014 224.8L363.508 224.472C363.077 225.137 362.639 225.797 362.194 226.451L362.692 226.79C362.244 227.45 361.788 228.104 361.325 228.752L360.834 228.402C360.374 229.047 359.907 229.687 359.432 230.321L359.915 230.682C359.438 231.32 358.953 231.953 358.462 232.58L357.987 232.208C357.498 232.832 357.003 233.45 356.5 234.063L356.967 234.445C356.461 235.062 355.949 235.672 355.43 236.277L354.972 235.884C354.456 236.485 353.933 237.081 353.404 237.67L353.853 238.073C353.32 238.666 352.782 239.253 352.236 239.834L351.797 239.421C351.254 239.999 350.705 240.57 350.15 241.136L350.58 241.558C350.022 242.127 349.458 242.689 348.887 243.245L348.466 242.813C347.899 243.366 347.325 243.913 346.745 244.453L347.156 244.894C346.573 245.437 345.984 245.974 345.389 246.504L344.988 246.054C344.396 246.58 343.799 247.101 343.195 247.615L343.586 248.074C342.98 248.59 342.367 249.1 341.749 249.603L341.368 249.136C340.754 249.635 340.134 250.129 339.508 250.615L339.878 251.091C339.249 251.58 338.614 252.062 337.974 252.537L337.615 252.053C336.979 252.525 336.337 252.99 335.691 253.448L336.039 253.94C335.389 254.4 334.733 254.854 334.072 255.3L333.735 254.8C333.078 255.243 332.417 255.679 331.751 256.107L332.077 256.614C331.406 257.045 330.731 257.469 330.051 257.885L329.736 257.37C329.061 257.783 328.381 258.189 327.695 258.587L327.998 259.109C327.31 259.509 326.616 259.902 325.918 260.287L325.626 259.759C324.933 260.142 324.236 260.516 323.533 260.884L323.812 261.418C323.107 261.787 322.396 262.148 321.681 262.502L321.414 261.961C320.704 262.312 319.99 262.655 319.272 262.991L319.527 263.537C318.806 263.874 318.08 264.203 317.35 264.524L317.107 263.972C316.382 264.29 315.653 264.601 314.92 264.904L315.15 265.461C314.415 265.765 313.675 266.061 312.932 266.348L312.714 265.786C311.975 266.072 311.232 266.35 310.486 266.619L310.691 267.187C309.943 267.457 309.191 267.719 308.436 267.972L308.244 267.401C307.492 267.653 306.738 267.897 305.979 268.133L306.158 268.709C305.399 268.945 304.637 269.173 303.871 269.392L303.705 268.813C302.944 269.031 302.179 269.24 301.41 269.442L301.563 270.025C300.794 270.227 300.022 270.42 299.247 270.605L299.107 270.018C298.337 270.202 297.564 270.377 296.787 270.543L296.914 271.133C296.136 271.3 295.356 271.458 294.572 271.608L294.459 271.016C293.682 271.165 292.902 271.305 292.12 271.436L292.22 272.031C291.435 272.163 290.647 272.286 289.856 272.401L289.77 271.804C288.988 271.917 288.204 272.022 287.416 272.119L287.49 272.717C286.699 272.814 285.905 272.902 285.109 272.982L285.049 272.382C284.264 272.46 283.477 272.53 282.687 272.591L282.733 273.192C281.939 273.253 281.142 273.306 280.343 273.35L280.31 272.748C279.522 272.791 278.732 272.826 277.94 272.852L277.96 273.455C277.165 273.481 276.368 273.499 275.568 273.508L275.562 272.905C275.164 272.909 274.766 272.911 274.368 272.911C273.969 272.911 273.571 272.909 273.174 272.905L273.167 273.508C272.368 273.499 271.57 273.481 270.775 273.455L270.795 272.852C270.003 272.826 269.213 272.791 268.425 272.748L268.392 273.35C267.593 273.306 266.796 273.253 266.002 273.192L266.048 272.591C265.259 272.53 264.471 272.46 263.686 272.382L263.627 272.982C262.83 272.902 262.037 272.814 261.245 272.717L261.319 272.119C260.532 272.022 259.747 271.917 258.965 271.804L258.879 272.401C258.088 272.286 257.3 272.163 256.515 272.031L256.615 271.436C255.833 271.305 255.053 271.165 254.276 271.016L254.163 271.608C253.379 271.458 252.599 271.3 251.821 271.133L251.948 270.544C251.171 270.377 250.398 270.202 249.628 270.018L249.488 270.605C248.713 270.42 247.941 270.227 247.172 270.025L247.325 269.442C246.557 269.24 245.792 269.031 245.03 268.813L244.864 269.392C244.098 269.173 243.336 268.945 242.577 268.709L242.756 268.133C241.998 267.897 241.243 267.653 240.492 267.401L240.299 267.972C239.544 267.719 238.792 267.457 238.045 267.187L238.249 266.619C237.503 266.35 236.76 266.072 236.021 265.786L235.804 266.348C235.06 266.061 234.321 265.765 233.585 265.461L233.815 264.904C233.082 264.601 232.353 264.29 231.628 263.972L231.385 264.524C230.655 264.203 229.93 263.874 229.208 263.537L229.463 262.991C228.745 262.655 228.031 262.312 227.321 261.961L227.054 262.502C226.339 262.148 225.628 261.787 224.923 261.418L225.202 260.884C224.5 260.516 223.802 260.142 223.109 259.759L222.817 260.287C222.119 259.902 221.425 259.509 220.737 259.109L221.04 258.587C220.355 258.189 219.674 257.784 218.999 257.37L218.685 257.885C218.004 257.469 217.329 257.045 216.659 256.614L216.985 256.107C216.318 255.679 215.657 255.243 215.001 254.8L214.663 255.3C214.002 254.854 213.346 254.4 212.696 253.94L213.045 253.448C212.398 252.99 211.756 252.525 211.121 252.053L210.761 252.537C210.121 252.062 209.486 251.58 208.857 251.091L209.227 250.615C208.601 250.129 207.981 249.635 207.367 249.136L206.986 249.603C206.368 249.1 205.756 248.59 205.149 248.074L205.54 247.615C204.937 247.101 204.339 246.58 203.748 246.054L203.346 246.504C202.751 245.974 202.162 245.437 201.579 244.894L201.99 244.453C201.41 243.913 200.837 243.366 200.269 242.813L199.848 243.245C199.278 242.689 198.713 242.127 198.155 241.558L198.585 241.136C198.03 240.57 197.481 239.999 196.939 239.421L196.499 239.834C195.954 239.253 195.415 238.666 194.882 238.073L195.331 237.67C194.802 237.081 194.279 236.485 193.763 235.884L193.305 236.277C192.786 235.672 192.274 235.062 191.769 234.445L192.235 234.063C191.733 233.45 191.237 232.832 190.748 232.209L190.274 232.58C189.782 231.953 189.298 231.32 188.82 230.682L189.303 230.321C188.829 229.687 188.361 229.047 187.901 228.402L187.41 228.752C186.947 228.104 186.492 227.45 186.043 226.79L186.542 226.451C186.096 225.797 185.658 225.137 185.227 224.472L184.721 224.8C184.288 224.131 183.862 223.457 183.443 222.778L183.957 222.462C183.541 221.788 183.133 221.109 182.733 220.426L182.212 220.73C181.81 220.043 181.414 219.351 181.027 218.654L181.554 218.361C181.169 217.669 180.792 216.972 180.422 216.271L179.889 216.552C179.518 215.848 179.154 215.138 178.798 214.425L179.338 214.156C178.985 213.447 178.64 212.734 178.302 212.017L177.756 212.273C177.417 211.553 177.086 210.828 176.763 210.099L177.315 209.855C176.994 209.131 176.681 208.403 176.376 207.67L175.819 207.902C175.513 207.168 175.216 206.429 174.926 205.686L175.488 205.467C175.2 204.729 174.92 203.987 174.649 203.241L174.082 203.447C173.81 202.7 173.546 201.949 173.29 201.195L173.862 201.001C173.607 200.251 173.362 199.496 173.124 198.738L172.549 198.919C172.311 198.161 172.081 197.399 171.86 196.633L172.44 196.466C172.22 195.705 172.009 194.941 171.806 194.173L171.223 194.327C171.02 193.558 170.825 192.786 170.639 192.011L171.225 191.87C171.04 191.101 170.864 190.328 170.696 189.552L170.106 189.68C169.938 188.902 169.779 188.122 169.627 187.338L170.22 187.224C170.07 186.448 169.929 185.668 169.796 184.886L169.202 184.987C169.069 184.202 168.944 183.414 168.829 182.623L169.425 182.536C169.311 181.755 169.205 180.97 169.108 180.183L168.51 180.257C168.412 179.466 168.324 178.673 168.243 177.876L168.843 177.816C168.765 177.031 168.694 176.244 168.633 175.454L168.032 175.501C167.97 174.707 167.916 173.911 167.872 173.112L168.474 173.078C168.43 172.29 168.395 171.5 168.369 170.708L167.766 170.728C167.74 169.933 167.722 169.136 167.713 168.336L168.316 168.33C168.312 167.932 168.31 167.534 168.31 167.136C168.31 166.737 168.312 166.339 168.316 165.942L167.713 165.935C167.722 165.136 167.74 164.339 167.766 163.543L168.369 163.564C168.395 162.771 168.43 161.981 168.474 161.193L167.872 161.16C167.916 160.361 167.97 159.564 168.032 158.77L168.633 158.817C168.694 158.027 168.765 157.24 168.843 156.455L168.243 156.395C168.324 155.599 168.412 154.805 168.51 154.014L169.108 154.088C169.205 153.301 169.311 152.517 169.425 151.735L168.829 151.648C168.944 150.857 169.069 150.07 169.202 149.285L169.796 149.386C169.929 148.603 170.07 147.824 170.22 147.047L169.627 146.933C169.779 146.15 169.938 145.369 170.106 144.592L170.696 144.719C170.864 143.943 171.04 143.171 171.225 142.401L170.639 142.26C170.825 141.485 171.019 140.713 171.223 139.945L171.806 140.099C172.009 139.331 172.22 138.566 172.44 137.806L171.86 137.638C172.081 136.873 172.311 136.111 172.549 135.353L173.124 135.533C173.362 134.775 173.607 134.021 173.862 133.27L173.29 133.077C173.546 132.322 173.81 131.571 174.082 130.824L174.649 131.03C174.92 130.284 175.2 129.542 175.488 128.804L174.926 128.585C175.216 127.842 175.513 127.104 175.819 126.369L176.376 126.601C176.681 125.869 176.994 125.14 177.315 124.416L176.763 124.172C177.086 123.443 177.417 122.718 177.756 121.998L178.302 122.255C178.64 121.537 178.985 120.824 179.338 120.116L178.798 119.847C179.154 119.133 179.518 118.424 179.889 117.719L180.422 118C180.792 117.299 181.169 116.602 181.554 115.911L181.027 115.617C181.414 114.92 181.81 114.228 182.212 113.541L182.732 113.846C183.133 113.162 183.541 112.483 183.957 111.809L183.443 111.493C183.862 110.814 184.288 110.14 184.721 109.472L185.227 109.8C185.658 109.135 186.096 108.475 186.542 107.82L186.043 107.481C186.492 106.822 186.947 106.168 187.41 105.519L187.901 105.869C188.361 105.224 188.829 104.585 189.303 103.951L188.82 103.59C189.298 102.951 189.782 102.318 190.274 101.691L190.748 102.063C191.237 101.439 191.732 100.821 192.235 100.208L191.769 99.8261C192.274 99.2098 192.786 98.5993 193.305 97.9947L193.763 98.3874C194.279 97.7861 194.802 97.1906 195.331 96.6011L194.882 96.1982C195.415 95.6053 195.954 95.0183 196.499 94.4374L196.939 94.8502C197.481 94.2725 198.03 93.7009 198.585 93.1355L198.155 92.7131C198.713 92.1445 199.277 91.5821 199.848 91.0261L200.269 91.4581C200.837 90.9052 201.41 90.3587 201.99 89.8185L201.579 89.3773C202.162 88.8342 202.751 88.2976 203.346 87.7675L203.747 88.2178C204.339 87.6909 204.937 87.1705 205.54 86.6567L205.149 86.1976C205.756 85.6811 206.368 85.1712 206.986 84.6681L207.367 85.1358C207.981 84.6359 208.601 84.1427 209.227 83.6564L208.857 83.1803C209.486 82.6913 210.121 82.2092 210.761 81.734L211.121 82.2183C211.756 81.7464 212.398 81.2815 213.044 80.8237L212.696 80.3315C213.346 79.871 214.002 79.4177 214.663 78.9715L215.001 79.4713C215.657 79.0285 216.318 78.5928 216.985 78.1643L216.658 77.6571C217.329 77.2262 218.004 76.8026 218.685 76.3864L218.999 76.9009C219.674 76.4878 220.355 76.0822 221.04 75.6839L220.737 75.1626C221.425 74.7623 222.119 74.3694 222.817 73.9841L223.109 74.5121C223.802 74.1298 224.5 73.755 225.202 73.3878L224.923 72.8534C225.628 72.4844 226.339 72.1232 227.054 71.7697L227.321 72.3102C228.031 71.9593 228.745 71.6161 229.463 71.2808L229.208 70.7343C229.93 70.3976 230.655 70.0688 231.385 69.7478L231.628 70.2998C232.353 69.9811 233.082 69.6703 233.815 69.3674L233.585 68.8101C234.32 68.5064 235.06 68.2106 235.804 67.9229L236.021 68.4853C236.76 68.1995 237.503 67.9216 238.249 67.6519L238.044 67.0848C238.792 66.8147 239.544 66.5527 240.299 66.2989L240.491 66.8705C241.243 66.6182 241.998 66.374 242.756 66.138L242.577 65.5622C243.336 65.3263 244.098 65.0985 244.864 64.8791L245.03 65.4588C245.792 65.2407 246.557 65.0309 247.325 64.8294L247.172 64.2461C247.941 64.0445 248.713 63.8512 249.488 63.6664L249.628 64.253C250.398 64.0696 251.171 63.8945 251.948 63.7278L251.821 63.1382C252.599 62.9714 253.379 62.8129 254.163 62.6631L254.276 63.2553C255.053 63.1068 255.833 62.9667 256.615 62.8352L256.515 62.2405C257.3 62.1086 258.088 61.9853 258.879 61.8705L258.965 62.4673C259.747 62.3539 260.532 62.249 261.319 62.1527L261.245 61.5541C262.036 61.4573 262.83 61.3692 263.626 61.2898L263.686 61.8898C264.471 61.8115 265.258 61.7418 266.048 61.6807L266.002 61.0795C266.796 61.018 267.593 60.9652 268.392 60.9212L268.425 61.5233C269.213 61.4799 270.003 61.4451 270.795 61.419L270.775 60.8163C271.57 60.79 272.368 60.7725 273.167 60.7637L273.174 61.3667C273.571 61.3623 273.969 61.3601 274.368 61.3601C274.766 61.3601 275.164 61.3623 275.561 61.3667L275.568 60.7637C276.367 60.7725 277.165 60.79 277.96 60.8163L277.94 61.419C278.732 61.4451 279.522 61.4799 280.31 61.5233L280.343 60.9212C281.142 60.9652 281.939 61.018 282.733 61.0795L282.687 61.6807C283.477 61.7418 284.264 61.8115 285.049 61.8898L285.109 61.2898C285.905 61.3692 286.699 61.4573 287.49 61.5541L287.416 62.1527C288.204 62.249 288.988 62.3539 289.77 62.4673L289.856 61.8705C290.647 61.9853 291.435 62.1086 292.22 62.2405L292.12 62.8352C292.902 62.9667 293.682 63.1068 294.459 63.2553L294.572 62.6631C295.356 62.8129 296.136 62.9714 296.914 63.1382L296.787 63.7278C297.564 63.8945 298.337 64.0696 299.107 64.253L299.247 63.6664C300.022 63.8512 300.794 64.0445 301.563 64.2461L301.41 64.8294C302.179 65.0308 302.943 65.2407 303.705 65.4588L303.871 64.8791C304.637 65.0985 305.399 65.3263 306.158 65.5622L305.979 66.138C306.737 66.374 307.492 66.6181 308.244 66.8705L308.436 66.2989C309.191 66.5527 309.943 66.8147 310.691 67.0848L310.486 67.6519C311.232 67.9216 311.975 68.1994 312.714 68.4853L312.932 67.9229C313.675 68.2106 314.415 68.5064 315.15 68.8101L314.92 69.3674C315.653 69.6703 316.382 69.9811 317.107 70.2998L317.35 69.7478C318.08 70.0687 318.805 70.3976 319.527 70.7343L319.272 71.2807C319.99 71.6161 320.704 71.9593 321.414 72.3102L321.681 71.7696C322.396 72.1231 323.107 72.4844 323.812 72.8533L323.533 73.3877C324.236 73.7549 324.933 74.1298 325.626 74.5121L325.918 73.9841C326.616 74.3694 327.31 74.7622 327.998 75.1626L327.695 75.6839C328.38 76.0821 329.061 76.4878 329.736 76.9008L330.051 76.3864C330.731 76.8026 331.406 77.2262 332.077 77.657L331.751 78.1643C332.417 78.5927 333.078 79.0284 333.734 79.4713L334.072 78.9715C334.733 79.4176 335.389 79.871 336.039 80.3315L335.691 80.8236C336.337 81.2815 336.979 81.7464 337.615 82.2183L337.974 81.734C338.614 82.2092 339.249 82.6913 339.878 83.1803L339.508 83.6564C340.134 84.1427 340.754 84.6359 341.368 85.1358L341.749 84.6681C342.367 85.1712 342.979 85.681 343.586 86.1976L343.195 86.6567C343.799 87.1705 344.396 87.6909 344.988 88.2178L345.389 87.7675C345.984 88.2976 346.573 88.8342 347.156 89.3773L346.745 89.8185C347.325 90.3587 347.898 90.9052 348.466 91.4581L348.887 91.0261C349.458 91.5821 350.022 92.1445 350.58 92.713L350.15 93.1355C350.705 93.7009 351.254 94.2725 351.796 94.8501L352.236 94.4374C352.782 95.0182 353.32 95.6052 353.853 96.1982L353.404 96.6011C353.933 97.1906 354.456 97.786 354.972 98.3874L355.43 97.9946C355.949 98.5993 356.461 99.2098 356.967 99.826L356.5 100.208C357.003 100.821 357.498 101.439 357.987 102.063L358.462 101.691C358.953 102.318 359.438 102.951 359.915 103.589L359.432 103.951C359.907 104.585 360.374 105.224 360.834 105.869L361.325 105.519C361.788 106.168 362.244 106.822 362.692 107.481L362.194 107.82C362.639 108.475 363.077 109.135 363.508 109.8L364.014 109.472C364.447 110.14 364.873 110.814 365.292 111.493L364.778 111.809C365.194 112.483 365.602 113.162 366.003 113.846L366.523 113.541C366.926 114.228 367.321 114.92 367.708 115.617L367.181 115.911C367.566 116.602 367.943 117.299 368.313 118L368.846 117.719C369.217 118.424 369.581 119.133 369.937 119.847L369.397 120.116C369.75 120.824 370.096 121.537 370.433 122.255L370.979 121.998C371.318 122.718 371.649 123.443 371.972 124.172L371.421 124.416C371.741 125.14 372.054 125.869 372.359 126.601L372.916 126.369C373.222 127.104 373.52 127.842 373.809 128.585L373.247 128.804C373.535 129.542 373.815 130.284 374.087 131.03L374.653 130.824C374.925 131.571 375.189 132.322 375.445 133.077L374.874 133.27C375.128 134.021 375.374 134.775 375.611 135.533L376.187 135.352C376.424 136.111 376.654 136.873 376.875 137.638L376.295 137.806C376.515 138.566 376.727 139.331 376.93 140.099L377.512 139.944C377.716 140.713 377.91 141.485 378.097 142.26L377.51 142.401C377.695 143.171 377.872 143.943 378.039 144.719L378.629 144.592C378.797 145.369 378.957 146.15 379.108 146.933L378.516 147.047C378.665 147.824 378.806 148.603 378.939 149.386L379.533 149.285C379.666 150.07 379.791 150.857 379.906 151.648L379.31 151.735C379.424 152.517 379.53 153.301 379.627 154.088L380.225 154.014C380.323 154.805 380.412 155.599 380.492 156.395L379.892 156.455C379.971 157.24 380.041 158.027 380.102 158.817L380.704 158.77C380.766 159.564 380.819 160.361 380.863 161.16L380.261 161.193C380.305 161.981 380.34 162.771 380.366 163.563L380.969 163.543Z" stroke="white" stroke-width="1.20603" stroke-dasharray="2.41 2.41"/>
<path opacity="0.6" d="M339.304 163.491C339.348 164.296 339.378 165.104 339.393 165.916L338.79 165.927C338.798 166.329 338.801 166.732 338.801 167.135C338.801 167.539 338.798 167.941 338.79 168.343L339.393 168.354C339.378 169.166 339.348 169.975 339.304 170.779L338.702 170.746C338.657 171.55 338.597 172.351 338.523 173.147L339.124 173.203C339.048 174.012 338.958 174.818 338.853 175.618L338.255 175.54C338.151 176.338 338.032 177.131 337.898 177.919L338.493 178.02C338.357 178.82 338.207 179.615 338.042 180.405L337.452 180.282C337.288 181.07 337.109 181.852 336.916 182.629L337.502 182.774C337.306 183.563 337.096 184.345 336.872 185.121L336.292 184.954C336.069 185.726 335.832 186.493 335.581 187.253L336.154 187.442C335.9 188.212 335.631 188.976 335.349 189.733L334.784 189.522C334.503 190.275 334.209 191.022 333.901 191.761L334.458 191.993C334.146 192.742 333.82 193.484 333.482 194.218L332.934 193.965C332.598 194.695 332.248 195.417 331.885 196.131L332.423 196.404C332.056 197.127 331.675 197.842 331.282 198.549L330.755 198.256C330.365 198.957 329.962 199.651 329.547 200.336L330.062 200.649C329.642 201.342 329.209 202.027 328.764 202.703L328.26 202.371C327.819 203.042 327.365 203.703 326.899 204.356L327.39 204.706C326.92 205.366 326.437 206.016 325.942 206.657L325.465 206.289C324.975 206.924 324.473 207.55 323.96 208.166L324.423 208.552C323.905 209.175 323.375 209.787 322.834 210.39L322.385 209.987C321.849 210.584 321.302 211.171 320.744 211.748L321.178 212.167C320.615 212.749 320.041 213.32 319.457 213.881L319.039 213.446C318.46 214.002 317.871 214.546 317.272 215.08L317.673 215.53C317.068 216.069 316.454 216.596 315.829 217.112L315.445 216.647C314.827 217.158 314.199 217.658 313.561 218.146L313.928 218.624C313.285 219.116 312.633 219.596 311.972 220.065L311.623 219.572C310.969 220.036 310.306 220.487 309.634 220.926L309.963 221.431C309.286 221.874 308.6 222.304 307.905 222.722L307.594 222.205C306.907 222.618 306.212 223.019 305.509 223.407L305.8 223.935C305.092 224.326 304.376 224.703 303.652 225.068L303.381 224.53C302.665 224.89 301.942 225.238 301.212 225.572L301.463 226.12C300.727 226.457 299.985 226.78 299.235 227.09L299.004 226.533C298.264 226.838 297.517 227.131 296.763 227.41L296.972 227.975C296.214 228.255 295.45 228.522 294.679 228.774L294.491 228.201C293.731 228.45 292.964 228.686 292.191 228.907L292.357 229.487C291.58 229.709 290.797 229.918 290.009 230.112L289.865 229.527C289.087 229.718 288.305 229.895 287.516 230.058L287.638 230.649C286.848 230.812 286.053 230.961 285.253 231.096L285.153 230.501C284.364 230.634 283.571 230.752 282.773 230.855L282.851 231.453C282.05 231.557 281.245 231.647 280.435 231.722L280.38 231.121C279.583 231.195 278.783 231.254 277.978 231.298L278.011 231.9C277.207 231.944 276.398 231.974 275.586 231.989L275.575 231.386C275.174 231.394 274.771 231.397 274.367 231.397C273.964 231.397 273.561 231.394 273.159 231.386L273.148 231.989C272.336 231.974 271.528 231.944 270.723 231.9L270.757 231.298C269.952 231.254 269.151 231.195 268.355 231.121L268.3 231.722C267.49 231.647 266.685 231.557 265.884 231.453L265.962 230.855C265.164 230.752 264.37 230.634 263.582 230.501L263.482 231.096C262.682 230.961 261.886 230.812 261.096 230.649L261.218 230.058C260.43 229.895 259.647 229.718 258.87 229.527L258.726 230.112C257.937 229.918 257.154 229.709 256.377 229.487L256.543 228.907C255.771 228.686 255.004 228.45 254.243 228.201L254.055 228.774C253.285 228.522 252.52 228.255 251.763 227.975L251.972 227.41C251.218 227.131 250.47 226.838 249.73 226.533L249.5 227.09C248.75 226.78 248.007 226.457 247.272 226.12L247.523 225.572C246.792 225.238 246.069 224.89 245.354 224.53L245.082 225.068C244.359 224.703 243.642 224.326 242.934 223.935L243.226 223.407C242.522 223.019 241.827 222.618 241.14 222.205L240.83 222.722C240.135 222.304 239.449 221.874 238.771 221.431L239.101 220.926C238.429 220.487 237.766 220.036 237.111 219.572L236.763 220.065C236.101 219.596 235.449 219.116 234.807 218.624L235.173 218.146C234.536 217.658 233.908 217.158 233.29 216.648L232.906 217.112C232.281 216.596 231.666 216.069 231.062 215.53L231.463 215.08C230.864 214.546 230.274 214.002 229.696 213.446L229.278 213.881C228.694 213.321 228.12 212.749 227.557 212.167L227.99 211.748C227.433 211.171 226.885 210.584 226.349 209.987L225.901 210.39C225.36 209.787 224.83 209.175 224.312 208.552L224.775 208.166C224.262 207.55 223.76 206.924 223.27 206.289L222.792 206.657C222.298 206.016 221.815 205.366 221.344 204.706L221.835 204.356C221.37 203.703 220.916 203.042 220.474 202.371L219.971 202.703C219.525 202.027 219.092 201.342 218.672 200.649L219.188 200.336C218.772 199.651 218.369 198.957 217.979 198.256L217.452 198.549C217.059 197.842 216.679 197.127 216.312 196.404L216.85 196.131C216.487 195.417 216.137 194.695 215.8 193.966L215.253 194.218C214.914 193.484 214.589 192.742 214.277 191.993L214.834 191.761C214.526 191.022 214.231 190.275 213.951 189.522L213.386 189.733C213.103 188.976 212.835 188.212 212.581 187.442L213.153 187.253C212.902 186.493 212.665 185.726 212.442 184.954L211.863 185.121C211.639 184.345 211.429 183.563 211.233 182.774L211.818 182.629C211.625 181.852 211.447 181.07 211.283 180.282L210.692 180.405C210.528 179.615 210.377 178.82 210.242 178.02L210.836 177.919C210.703 177.131 210.584 176.338 210.479 175.54L209.881 175.618C209.776 174.818 209.686 174.012 209.611 173.203L210.211 173.147C210.137 172.351 210.078 171.55 210.033 170.746L209.431 170.779C209.386 169.975 209.356 169.166 209.341 168.354L209.944 168.343C209.937 167.941 209.933 167.539 209.933 167.135C209.933 166.732 209.937 166.329 209.944 165.927L209.341 165.916C209.356 165.104 209.386 164.296 209.431 163.491L210.033 163.525C210.078 162.72 210.137 161.92 210.211 161.124L209.611 161.068C209.686 160.258 209.776 159.453 209.881 158.652L210.479 158.731C210.584 157.933 210.703 157.14 210.836 156.351L210.242 156.251C210.377 155.45 210.528 154.655 210.692 153.865L211.283 153.989C211.447 153.201 211.625 152.418 211.818 151.641L211.233 151.496C211.429 150.708 211.639 149.925 211.863 149.149L212.442 149.316C212.665 148.544 212.902 147.778 213.153 147.018L212.581 146.829C212.835 146.059 213.103 145.295 213.386 144.538L213.951 144.748C214.231 143.995 214.526 143.249 214.834 142.509L214.277 142.278C214.589 141.529 214.914 140.787 215.253 140.052L215.8 140.305C216.137 139.576 216.487 138.854 216.85 138.139L216.312 137.866C216.679 137.143 217.059 136.429 217.452 135.722L217.979 136.015C218.369 135.313 218.772 134.619 219.188 133.934L218.672 133.621C219.092 132.928 219.525 132.244 219.97 131.568L220.474 131.899C220.916 131.229 221.37 130.567 221.835 129.914L221.344 129.564C221.815 128.905 222.298 128.254 222.792 127.614L223.27 127.982C223.76 127.347 224.262 126.721 224.775 126.104L224.312 125.718C224.83 125.096 225.36 124.483 225.901 123.881L226.349 124.284C226.885 123.687 227.432 123.099 227.99 122.523L227.557 122.104C228.12 121.522 228.694 120.95 229.278 120.389L229.696 120.824C230.274 120.269 230.864 119.724 231.463 119.19L231.062 118.74C231.666 118.202 232.281 117.674 232.906 117.158L233.29 117.623C233.908 117.112 234.536 116.613 235.173 116.125L234.807 115.646C235.449 115.154 236.101 114.674 236.763 114.206L237.111 114.698C237.766 114.235 238.429 113.783 239.101 113.344L238.771 112.839C239.449 112.397 240.135 111.966 240.83 111.548L241.14 112.065C241.827 111.652 242.522 111.251 243.226 110.864L242.934 110.336C243.642 109.945 244.358 109.567 245.082 109.202L245.354 109.741C246.069 109.38 246.792 109.033 247.523 108.699L247.272 108.15C248.007 107.814 248.75 107.49 249.5 107.181L249.73 107.738C250.47 107.432 251.218 107.14 251.972 106.861L251.763 106.295C252.52 106.015 253.285 105.749 254.055 105.496L254.243 106.069C255.004 105.82 255.771 105.585 256.543 105.363L256.377 104.784C257.154 104.561 257.937 104.353 258.726 104.158L258.87 104.744C259.647 104.553 260.43 104.375 261.218 104.212L261.096 103.622C261.886 103.458 262.682 103.309 263.482 103.175L263.582 103.769C264.37 103.637 265.164 103.519 265.962 103.415L265.884 102.817C266.685 102.713 267.49 102.624 268.3 102.549L268.355 103.149C269.151 103.076 269.952 103.017 270.757 102.972L270.723 102.37C271.528 102.326 272.336 102.296 273.148 102.281L273.159 102.884C273.561 102.877 273.964 102.873 274.367 102.873C274.771 102.873 275.174 102.877 275.575 102.884L275.586 102.281C276.398 102.296 277.207 102.326 278.011 102.37L277.978 102.972C278.783 103.017 279.583 103.076 280.38 103.149L280.435 102.549C281.245 102.624 282.05 102.713 282.851 102.817L282.773 103.415C283.571 103.519 284.364 103.637 285.153 103.769L285.253 103.175C286.053 103.309 286.848 103.458 287.638 103.622L287.516 104.212C288.305 104.375 289.087 104.553 289.865 104.744L290.009 104.158C290.798 104.353 291.58 104.561 292.357 104.784L292.191 105.363C292.964 105.585 293.731 105.82 294.491 106.069L294.679 105.496C295.45 105.749 296.214 106.015 296.972 106.295L296.763 106.861C297.517 107.14 298.264 107.432 299.004 107.738L299.235 107.181C299.985 107.49 300.727 107.814 301.463 108.15L301.212 108.699C301.942 109.033 302.665 109.38 303.381 109.741L303.652 109.202C304.376 109.567 305.092 109.945 305.8 110.336L305.509 110.864C306.212 111.251 306.907 111.652 307.594 112.065L307.905 111.548C308.6 111.966 309.286 112.397 309.963 112.839L309.633 113.344C310.306 113.783 310.969 114.235 311.623 114.698L311.972 114.206C312.633 114.674 313.285 115.154 313.928 115.646L313.561 116.125C314.199 116.613 314.827 117.112 315.445 117.623L315.829 117.158C316.454 117.674 317.068 118.202 317.673 118.74L317.272 119.19C317.871 119.724 318.46 120.269 319.039 120.824L319.457 120.389C320.041 120.95 320.615 121.522 321.178 122.104L320.744 122.523C321.302 123.099 321.849 123.686 322.385 124.284L322.834 123.881C323.375 124.483 323.905 125.096 324.423 125.718L323.96 126.104C324.473 126.72 324.975 127.346 325.465 127.982L325.942 127.614C326.437 128.254 326.919 128.905 327.39 129.564L326.899 129.914C327.365 130.567 327.819 131.229 328.26 131.899L328.764 131.568C329.209 132.244 329.642 132.928 330.062 133.621L329.547 133.934C329.962 134.619 330.365 135.313 330.755 136.015L331.282 135.722C331.675 136.429 332.056 137.143 332.423 137.866L331.885 138.139C332.248 138.854 332.598 139.576 332.934 140.305L333.482 140.052C333.82 140.787 334.146 141.529 334.458 142.278L333.901 142.509C334.209 143.249 334.503 143.995 334.784 144.748L335.349 144.538C335.631 145.295 335.9 146.059 336.154 146.829L335.581 147.018C335.832 147.778 336.069 148.544 336.292 149.316L336.872 149.149C337.096 149.925 337.306 150.708 337.502 151.496L336.916 151.641C337.109 152.418 337.288 153.201 337.452 153.989L338.042 153.865C338.207 154.655 338.357 155.45 338.493 156.251L337.898 156.351C338.032 157.14 338.151 157.933 338.255 158.731L338.853 158.652C338.958 159.453 339.048 160.258 339.124 161.068L338.523 161.124C338.597 161.92 338.657 162.72 338.702 163.525L339.304 163.491Z" stroke="white" stroke-width="1.20603" stroke-dasharray="2.41 2.41"/>
<g filter="url(#filter0_dd_256_1591)">
<g clip-path="url(#clip1_256_1591)">
<rect x="161.741" y="221.048" width="63.9604" height="45.2553" rx="3.76884" fill="white" stroke="white" stroke-width="1.07681"/>
<mask id="mask0_256_1591" style="mask-type:luminance" maskUnits="userSpaceOnUse" x="161" y="220" width="66" height="47">
<rect x="161.741" y="221.048" width="63.9604" height="45.2553" rx="3.76884" fill="white" stroke="white" stroke-width="1.07681"/>
</mask>
<g mask="url(#mask0_256_1591)">
<rect x="204.561" y="220.51" width="21.6791" height="46.3321" fill="#189B62"/>
<path fill-rule="evenodd" clip-rule="evenodd" d="M161.203 266.842H182.882V220.51H161.203V266.842Z" fill="#189B62"/>
</g>
</g>
<rect x="168.499" y="218.515" width="50.4449" height="50.3209" rx="25.1604" stroke="white" stroke-width="3.61809"/>
</g>
<g filter="url(#filter1_dd_256_1591)">
<g clip-path="url(#clip2_256_1591)">
<rect x="300.383" y="233.019" width="65.0372" height="47.2588" rx="4.82412" fill="white"/>
<mask id="mask1_256_1591" style="mask-type:luminance" maskUnits="userSpaceOnUse" x="300" y="233" width="66" height="48">
<rect x="300.383" y="233.019" width="65.0372" height="47.2588" rx="4.82412" fill="white"/>
</mask>
<g mask="url(#mask1_256_1591)">
<path fill-rule="evenodd" clip-rule="evenodd" d="M297.286 283.429H368.517V229.869H297.286V283.429Z" fill="#FE3030"/>
<path fill-rule="evenodd" clip-rule="evenodd" d="M297.286 258.224H334.45V229.869H297.286V258.224Z" fill="#0909B6"/>
<path fill-rule="evenodd" clip-rule="evenodd" d="M317.417 249.56L314.454 252.898L314.679 248.406L310.264 248.636L313.546 245.622L310.264 242.607L314.679 242.837L314.454 238.345L317.417 241.683L320.38 238.345L320.154 242.837L324.57 242.607L321.288 245.622L324.57 248.636L320.154 248.406L320.38 252.898L317.417 249.56Z" fill="white"/>
</g>
</g>
<rect x="307.679" y="231.488" width="50.4449" height="50.3209" rx="25.1604" stroke="white" stroke-width="3.61809"/>
</g>
<g filter="url(#filter2_dd_256_1591)">
<g clip-path="url(#clip3_256_1591)">
<path d="M179.414 145.081C192.345 145.081 202.827 134.627 202.827 121.73C202.827 108.833 192.345 98.3787 179.414 98.3787C166.483 98.3787 156 108.833 156 121.73C156 134.627 166.483 145.081 179.414 145.081Z" fill="#338AF3"/>
<path d="M179.414 108.531L180.424 111.634H183.695L181.049 113.551L182.06 116.654L179.414 114.736L176.768 116.654L177.778 113.551L175.132 111.634H178.403L179.414 108.531Z" fill="white"/>
<path d="M166.18 121.731L169.291 120.722V117.46L171.213 120.099L174.324 119.091L172.402 121.731L174.324 124.369L171.213 123.361L169.291 126.001V122.738L166.18 121.731Z" fill="white"/>
<path d="M179.414 134.929L178.403 131.826H175.132L177.779 129.909L176.768 126.806L179.414 128.724L182.06 126.806L181.049 129.909L183.695 131.826H180.425L179.414 134.929Z" fill="white"/>
<path d="M192.647 121.73L189.537 122.738V126.001L187.614 123.361L184.503 124.369L186.426 121.73L184.503 119.091L187.614 120.099L189.537 117.46V120.722L192.647 121.73Z" fill="white"/>
</g>
<rect x="154.191" y="96.5696" width="50.4449" height="50.3209" rx="25.1604" stroke="white" stroke-width="3.61809"/>
</g>
<g filter="url(#filter3_dd_256_1591)">
<g clip-path="url(#clip4_256_1591)">
<path d="M274.367 86.703C287.297 86.703 297.78 76.2483 297.78 63.3516C297.78 50.455 287.297 40.0002 274.367 40.0002C261.436 40.0002 250.953 50.455 250.953 63.3516C250.953 76.2483 261.436 86.703 274.367 86.703Z" fill="white"/>
<path d="M257.811 79.8633C248.667 70.744 248.667 55.9587 257.811 46.8394C257.81 46.8404 271.313 63.3513 271.313 63.3513L257.811 79.8633Z" fill="black"/>
<path d="M271.312 63.3518L254.058 51.7229C253.523 52.6503 253.051 53.6183 252.646 54.6202L261.381 63.3519L252.646 72.084C253.051 73.0852 253.523 74.0526 254.057 74.9793L271.312 63.3518Z" fill="#FFDA44"/>
<path d="M297.582 60.3057H271.312L257.811 46.8398C256.356 48.2909 255.092 49.932 254.059 51.7227L265.696 63.3515L254.058 74.9788C255.091 76.77 256.355 78.4116 257.811 79.863L271.312 66.3973H297.582C297.712 65.4003 297.78 64.3838 297.78 63.3515C297.78 62.3192 297.712 61.3027 297.582 60.3057Z" fill="#6DA544"/>
<path d="M260.111 81.8759C264.06 84.9026 269.002 86.7033 274.366 86.7033C285.184 86.7033 294.286 79.3858 296.973 69.4436H272.577L260.111 81.8759Z" fill="#0052B4"/>
<path d="M296.973 57.2597C294.286 47.3175 285.184 40 274.366 40C269.002 40 264.06 41.8007 260.111 44.8274L272.577 57.2597H296.973Z" fill="#D80027"/>
</g>
<rect x="249.144" y="38.191" width="50.4449" height="50.3209" rx="25.1604" stroke="white" stroke-width="3.61809"/>
</g>
<g filter="url(#filter4_dd_256_1591)">
<g clip-path="url(#clip5_256_1591)">
<rect x="345.907" y="137.205" width="68.9394" height="48.1854" rx="4.82412" fill="white"/>
<mask id="mask2_256_1591" style="mask-type:luminance" maskUnits="userSpaceOnUse" x="345" y="137" width="70" height="49">
<rect x="345.907" y="137.205" width="68.9394" height="48.1854" rx="4.82412" fill="white"/>
</mask>
<g mask="url(#mask2_256_1591)">
<rect x="345.907" y="137.205" width="68.9394" height="48.1854" fill="#00255E"/>
<path fill-rule="evenodd" clip-rule="evenodd" d="M342.75 132.588L372.17 152.006V133.993H388.584V152.006L418.004 132.588L421.676 137.915L398.415 153.267H414.847V169.329H398.416L421.676 184.682L418.004 190.008L388.584 170.59V188.603H372.17V170.59L342.75 190.008L339.078 184.682L362.339 169.329H345.907V153.267H362.339L339.078 137.914L342.75 132.588Z" fill="white"/>
<path d="M391.87 152.461L423.054 132.387" stroke="#DB1F35" stroke-width="1.60804" stroke-linecap="round"/>
<path d="M395.181 170.206L423.136 188.644" stroke="#DB1F35" stroke-width="1.60804" stroke-linecap="round"/>
<path d="M365.617 152.409L336.458 133.179" stroke="#DB1F35" stroke-width="1.60804" stroke-linecap="round"/>
<path d="M368.78 169.983L336.458 190.957" stroke="#DB1F35" stroke-width="1.60804" stroke-linecap="round"/>
<path fill-rule="evenodd" clip-rule="evenodd" d="M345.907 166.116H375.453V185.39H385.301V166.116H414.847V156.479H385.301V137.205H375.453V156.479H345.907V166.116Z" fill="#E6273E"/>
</g>
</g>
<rect x="355.805" y="136.786" width="50.4449" height="50.3209" rx="25.1604" stroke="white" stroke-width="3.61809"/>
</g>
<g filter="url(#filter5_dd_256_1591)">
<g clip-path="url(#clip6_256_1591)">
<rect x="329.54" y="135.445" width="105.36" height="75.0581" rx="4.82412" fill="white"/>
<mask id="mask3_256_1591" style="mask-type:luminance" maskUnits="userSpaceOnUse" x="329" y="135" width="106" height="76">
<rect x="329.54" y="135.445" width="105.36" height="75.0581" rx="4.82412" fill="white"/>
</mask>
<g mask="url(#mask3_256_1591)">
<path fill-rule="evenodd" clip-rule="evenodd" d="M434.9 135.445H329.54V140.448H434.9V135.445ZM434.9 145.452H329.54V150.456H434.9V145.452ZM329.54 155.46H434.9V160.464H329.54V155.46ZM434.9 165.467H329.54V170.471H434.9V165.467ZM329.54 175.475H434.9V180.479H329.54V175.475ZM434.9 185.483H329.54V190.487H434.9V185.483ZM329.54 195.491H434.9V200.495H329.54V195.491ZM434.9 205.498H329.54V210.502H434.9V205.498Z" fill="#D02F44"/>
<rect x="329.54" y="135.445" width="45.1544" height="35.0271" fill="#46467F"/>
<g filter="url(#filter6_d_256_1591)">
<path fill-rule="evenodd" clip-rule="evenodd" d="M337.065 145.452C338.451 145.452 339.574 144.332 339.574 142.95C339.574 141.568 338.451 140.448 337.065 140.448C335.68 140.448 334.557 141.568 334.557 142.95C334.557 144.332 335.68 145.452 337.065 145.452ZM347.1 145.452C348.485 145.452 349.609 144.332 349.609 142.95C349.609 141.568 348.485 140.448 347.1 140.448C345.714 140.448 344.591 141.568 344.591 142.95C344.591 144.332 345.714 145.452 347.1 145.452ZM359.642 142.95C359.642 144.332 358.519 145.452 357.134 145.452C355.748 145.452 354.625 144.332 354.625 142.95C354.625 141.568 355.748 140.448 357.134 140.448C358.519 140.448 359.642 141.568 359.642 142.95ZM367.168 145.452C368.554 145.452 369.677 144.332 369.677 142.95C369.677 141.568 368.554 140.448 367.168 140.448C365.783 140.448 364.66 141.568 364.66 142.95C364.66 144.332 365.783 145.452 367.168 145.452ZM344.591 147.954C344.591 149.336 343.468 150.456 342.083 150.456C340.697 150.456 339.574 149.336 339.574 147.954C339.574 146.572 340.697 145.452 342.083 145.452C343.468 145.452 344.591 146.572 344.591 147.954ZM352.117 150.456C353.502 150.456 354.625 149.336 354.625 147.954C354.625 146.572 353.502 145.452 352.117 145.452C350.731 145.452 349.608 146.572 349.608 147.954C349.608 149.336 350.731 150.456 352.117 150.456ZM364.66 147.954C364.66 149.336 363.537 150.456 362.151 150.456C360.766 150.456 359.643 149.336 359.643 147.954C359.643 146.572 360.766 145.452 362.151 145.452C363.537 145.452 364.66 146.572 364.66 147.954ZM367.168 155.46C368.554 155.46 369.677 154.339 369.677 152.958C369.677 151.576 368.554 150.456 367.168 150.456C365.783 150.456 364.66 151.576 364.66 152.958C364.66 154.339 365.783 155.46 367.168 155.46ZM359.642 152.958C359.642 154.339 358.519 155.46 357.134 155.46C355.748 155.46 354.625 154.339 354.625 152.958C354.625 151.576 355.748 150.456 357.134 150.456C358.519 150.456 359.642 151.576 359.642 152.958ZM347.1 155.46C348.485 155.46 349.609 154.339 349.609 152.958C349.609 151.576 348.485 150.456 347.1 150.456C345.714 150.456 344.591 151.576 344.591 152.958C344.591 154.339 345.714 155.46 347.1 155.46ZM339.574 152.958C339.574 154.339 338.451 155.46 337.065 155.46C335.68 155.46 334.557 154.339 334.557 152.958C334.557 151.576 335.68 150.456 337.065 150.456C338.451 150.456 339.574 151.576 339.574 152.958ZM342.083 160.464C343.468 160.464 344.591 159.344 344.591 157.962C344.591 156.58 343.468 155.46 342.083 155.46C340.697 155.46 339.574 156.58 339.574 157.962C339.574 159.344 340.697 160.464 342.083 160.464ZM354.625 157.962C354.625 159.344 353.502 160.464 352.117 160.464C350.731 160.464 349.608 159.344 349.608 157.962C349.608 156.58 350.731 155.46 352.117 155.46C353.502 155.46 354.625 156.58 354.625 157.962ZM362.151 160.464C363.537 160.464 364.66 159.344 364.66 157.962C364.66 156.58 363.537 155.46 362.151 155.46C360.766 155.46 359.643 156.58 359.643 157.962C359.643 159.344 360.766 160.464 362.151 160.464ZM369.677 162.966C369.677 164.348 368.554 165.468 367.168 165.468C365.783 165.468 364.66 164.348 364.66 162.966C364.66 161.584 365.783 160.464 367.168 160.464C368.554 160.464 369.677 161.584 369.677 162.966ZM357.134 165.468C358.519 165.468 359.642 164.348 359.642 162.966C359.642 161.584 358.519 160.464 357.134 160.464C355.748 160.464 354.625 161.584 354.625 162.966C354.625 164.348 355.748 165.468 357.134 165.468ZM349.609 162.966C349.609 164.348 348.485 165.468 347.1 165.468C345.714 165.468 344.591 164.348 344.591 162.966C344.591 161.584 345.714 160.464 347.1 160.464C348.485 160.464 349.609 161.584 349.609 162.966ZM337.065 165.468C338.451 165.468 339.574 164.348 339.574 162.966C339.574 161.584 338.451 160.464 337.065 160.464C335.68 160.464 334.557 161.584 334.557 162.966C334.557 164.348 335.68 165.468 337.065 165.468Z" fill="url(#paint0_linear_256_1591)"/>
</g>
</g>
</g>
<rect x="343.339" y="134.191" width="66.0538" height="65.8885" rx="32.9442" stroke="white" stroke-width="3.61809"/>
</g>
<g filter="url(#filter7_dd_256_1591)">
<g clip-path="url(#clip7_256_1591)">
<path d="M224.938 174.92C224.938 182.085 219.115 187.893 211.931 187.893C204.747 187.893 198.923 182.085 198.923 174.92C198.923 174.923 211.931 161.948 211.931 161.947C219.115 161.947 224.938 167.755 224.938 174.92Z" fill="#0052B4"/>
<path d="M211.896 174.92H211.931C211.931 174.908 211.931 174.897 211.931 174.885C211.92 174.897 211.908 174.908 211.896 174.92Z" fill="white"/>
<path d="M211.931 168.715C211.931 166.433 211.931 164.937 211.931 161.947H211.929C204.746 161.948 198.924 167.756 198.924 174.92H205.71V171.108L209.532 174.92H211.897C211.908 174.908 211.92 174.897 211.931 174.885C211.931 174.011 211.931 173.231 211.931 172.527L208.11 168.715H211.931Z" fill="white"/>
<path d="M205.505 163.639C203.47 164.794 201.779 166.481 200.621 168.51V174.92H204.014V167.023V167.023H211.931C211.931 165.956 211.931 164.939 211.931 163.639H205.505Z" fill="#D80027"/>
<path d="M211.931 173.324L207.31 168.715H205.71C205.71 168.715 205.71 168.715 205.71 168.715L211.931 174.92H211.931C211.931 174.92 211.931 173.82 211.931 173.324Z" fill="#D80027"/>
<path d="M206.769 177.176L207.482 178.665L209.095 178.293L208.373 179.778L209.669 180.803L208.055 181.166L208.059 182.816L206.769 181.784L205.478 182.816L205.482 181.166L203.868 180.803L205.165 179.778L204.443 178.293L206.055 178.665L206.769 177.176Z" fill="white"/>
<path d="M218.398 179.996L218.755 180.741L219.561 180.555L219.2 181.297L219.849 181.81L219.042 181.991L219.044 182.817L218.398 182.3L217.753 182.817L217.755 181.991L216.948 181.81L217.596 181.297L217.235 180.555L218.041 180.741L218.398 179.996Z" fill="white"/>
<path d="M215.078 172.1L215.435 172.844L216.241 172.658L215.88 173.401L216.528 173.914L215.721 174.095L215.723 174.92L215.078 174.404L214.432 174.92L214.434 174.095L213.627 173.914L214.276 173.401L213.915 172.658L214.721 172.844L215.078 172.1Z" fill="white"/>
<path d="M218.398 167.587L218.755 168.332L219.561 168.146L219.2 168.888L219.849 169.401L219.042 169.583L219.044 170.408L218.398 169.891L217.753 170.408L217.755 169.583L216.948 169.401L217.596 168.888L217.235 168.146L218.041 168.332L218.398 167.587Z" fill="white"/>
<path d="M221.299 170.972L221.656 171.716L222.462 171.53L222.101 172.273L222.749 172.785L221.942 172.967L221.944 173.792L221.299 173.276L220.653 173.792L220.656 172.967L219.849 172.785L220.497 172.273L220.136 171.53L220.942 171.716L221.299 170.972Z" fill="white"/>
<path d="M219.224 174.92L219.505 175.782H220.414L219.679 176.315L219.96 177.176L219.224 176.644L218.489 177.176L218.77 176.315L218.035 175.782H218.944L219.224 174.92Z" fill="white"/>
</g>
<rect x="197.718" y="160.741" width="28.4269" height="28.3581" rx="14.179" stroke="white" stroke-width="2.41206"/>
</g>
<g filter="url(#filter8_dd_256_1591)">
<g clip-path="url(#clip8_256_1591)">
<path d="M309.488 120.433C309.488 122.02 309.774 123.54 310.297 124.946L322.496 126.074L334.694 124.946C335.217 123.54 335.503 122.02 335.503 120.433C335.503 118.868 335.225 117.368 334.716 115.978L322.496 114.793L310.276 115.979C309.766 117.368 309.488 118.868 309.488 120.433V120.433Z" fill="#FFDA44"/>
<path d="M322.496 133.406C328.088 133.406 332.856 129.885 334.694 124.945H310.297C312.135 129.885 316.903 133.406 322.496 133.406Z" fill="#D80027"/>
<path d="M322.496 107.46C316.903 107.46 312.135 110.981 310.297 115.921H334.694C332.856 110.981 328.088 107.46 322.496 107.46Z" fill="#6DA544"/>
<path d="M322.495 126.637C325.931 126.637 328.716 123.86 328.716 120.433C328.716 117.006 325.931 114.229 322.495 114.229C319.06 114.229 316.274 117.006 316.274 120.433C316.274 123.86 319.06 126.637 322.495 126.637Z" fill="#0052B4"/>
<path d="M322.495 115.628L323.618 119.075H327.258L324.312 121.206L325.444 124.663L322.495 122.523L319.55 124.659L320.678 121.206L317.734 119.075H321.372L322.495 115.628Z" fill="#FFDA44"/>
<path d="M326.973 121.291L323.411 120.136L325.612 117.114L324.697 116.451L322.496 119.473L320.294 116.451L319.379 117.114L321.581 120.137L318.018 121.291L318.368 122.364L321.93 121.209V124.945H323.061V121.209L326.624 122.364L326.973 121.291Z" fill="#FFDA44"/>
</g>
<rect x="308.282" y="106.254" width="28.4269" height="28.3581" rx="14.179" stroke="white" stroke-width="2.41206"/>
</g>
<g filter="url(#filter9_dd_256_1591)">
<g clip-path="url(#clip9_256_1591)">
<path d="M267.864 246.27C275.048 246.27 280.872 240.462 280.872 233.297C280.872 226.132 275.048 220.324 267.864 220.324C260.681 220.324 254.857 226.132 254.857 233.297C254.857 240.462 260.681 246.27 267.864 246.27Z" fill="white"/>
<path d="M280.872 233.297C280.872 227.719 277.342 222.964 272.389 221.131V245.463C277.342 243.63 280.872 238.875 280.872 233.297Z" fill="#D80027"/>
<path d="M254.857 233.297C254.857 238.875 258.387 243.63 263.341 245.463V221.131C258.387 222.964 254.857 227.719 254.857 233.297Z" fill="#0052B4"/>
</g>
<rect x="253.651" y="219.118" width="28.4269" height="28.3581" rx="14.179" stroke="white" stroke-width="2.41206"/>
</g>
<g filter="url(#filter10_dd_256_1591)">
<g clip-path="url(#clip10_256_1591)">
<path d="M334.203 209.947C341.387 209.947 347.21 204.139 347.21 196.974C347.21 189.809 341.387 184.001 334.203 184.001C327.019 184.001 321.195 189.809 321.195 196.974C321.195 204.139 327.019 209.947 334.203 209.947Z" fill="white"/>
<path d="M328.226 202.05L325.005 206.147C327.359 208.495 330.611 209.947 334.203 209.947C339.58 209.947 344.194 206.692 346.175 202.05H328.226Z" fill="#FFDA44"/>
<path d="M346.195 191.945C344.225 187.278 339.598 184.001 334.203 184.001C330.611 184.001 327.359 185.453 325.005 187.801L328.263 191.945H346.195Z" fill="#496E2D"/>
<path d="M324.023 193.543V200.358H346.762C347.054 199.279 347.21 198.145 347.21 196.974C347.21 195.786 347.05 194.636 346.75 193.543H324.023Z" fill="black"/>
<path d="M325.005 187.801C319.925 192.867 319.925 201.081 325.005 206.147C327.104 204.054 329.123 202.04 334.203 196.974L325.005 187.801Z" fill="#A2001D"/>
<path d="M326.46 193.59L327.302 196.175H330.028L327.823 197.773L328.665 200.358L326.46 198.761L324.255 200.358L325.097 197.773L322.892 196.175H325.618L326.46 193.59Z" fill="#FFDA44"/>
<path d="M323.996 196.974H328.925V199.23H323.996V196.974Z" fill="white"/>
<path d="M329.859 194.388L329.059 193.59L326.46 196.182L323.861 193.59L323.062 194.388L325.663 196.977L323.062 199.572L323.861 200.358L326.46 197.771L329.059 200.358L329.859 199.572L327.258 196.977L329.859 194.388Z" fill="black"/>
</g>
<rect x="319.989" y="182.795" width="28.4269" height="28.3581" rx="14.179" stroke="white" stroke-width="2.41206"/>
</g>
<g filter="url(#filter11_dd_256_1591)">
<g clip-path="url(#clip11_256_1591)">
<path d="M235.344 129.513C242.528 129.513 248.351 123.705 248.351 116.54C248.351 109.375 242.528 103.567 235.344 103.567C228.16 103.567 222.336 109.375 222.336 116.54C222.336 123.705 228.16 129.513 235.344 129.513Z" fill="white"/>
<path d="M248.352 116.54C248.352 111.397 245.351 106.953 241 104.854V128.226C245.351 126.128 248.352 121.684 248.352 116.54Z" fill="#D80027"/>
<path d="M222.337 116.54C222.337 121.683 225.338 126.127 229.689 128.226V104.854C225.338 106.953 222.337 111.397 222.337 116.54Z" fill="#D80027"/>
<path d="M237.606 118.232L239.868 117.104L238.737 116.54V115.412L236.475 116.54L237.606 114.284H236.475L235.344 112.592L234.213 114.284H233.082L234.213 116.54L231.951 115.412V116.54L230.82 117.104L233.082 118.232L232.516 119.36H234.779V121.052H235.91V119.36H238.172L237.606 118.232Z" fill="#D80027"/>
</g>
<rect x="221.131" y="102.361" width="28.4269" height="28.3581" rx="14.179" stroke="white" stroke-width="2.41206"/>
</g>
</g>
<defs>
<filter id="filter0_dd_256_1591" x="146.689" y="216.706" width="94.063" height="93.939" filterUnits="userSpaceOnUse" color-interpolation-filters="sRGB">
<feFlood flood-opacity="0" result="BackgroundImageFix"/>
<feColorMatrix in="SourceAlpha" type="matrix" values="0 0 0 0 0 0 0 0 0 0 0 0 0 0 0 0 0 0 127 0" result="hardAlpha"/>
<feMorphology radius="4" operator="erode" in="SourceAlpha" result="effect1_dropShadow_256_1591"/>
<feOffset dy="8"/>
<feGaussianBlur stdDeviation="4"/>
<feColorMatrix type="matrix" values="0 0 0 0 0.0627451 0 0 0 0 0.0941176 0 0 0 0 0.156863 0 0 0 0.03 0"/>
<feBlend mode="normal" in2="BackgroundImageFix" result="effect1_dropShadow_256_1591"/>
<feColorMatrix in="SourceAlpha" type="matrix" values="0 0 0 0 0 0 0 0 0 0 0 0 0 0 0 0 0 0 127 0" result="hardAlpha"/>
<feMorphology radius="4" operator="erode" in="SourceAlpha" result="effect2_dropShadow_256_1591"/>
<feOffset dy="20"/>
<feGaussianBlur stdDeviation="12"/>
<feColorMatrix type="matrix" values="0 0 0 0 0.0627451 0 0 0 0 0.0941176 0 0 0 0 0.156863 0 0 0 0.08 0"/>
<feBlend mode="normal" in2="effect1_dropShadow_256_1591" result="effect2_dropShadow_256_1591"/>
<feBlend mode="normal" in="SourceGraphic" in2="effect2_dropShadow_256_1591" result="shape"/>
</filter>
<filter id="filter1_dd_256_1591" x="285.87" y="229.679" width="94.063" height="93.939" filterUnits="userSpaceOnUse" color-interpolation-filters="sRGB">
<feFlood flood-opacity="0" result="BackgroundImageFix"/>
<feColorMatrix in="SourceAlpha" type="matrix" values="0 0 0 0 0 0 0 0 0 0 0 0 0 0 0 0 0 0 127 0" result="hardAlpha"/>
<feMorphology radius="4" operator="erode" in="SourceAlpha" result="effect1_dropShadow_256_1591"/>
<feOffset dy="8"/>
<feGaussianBlur stdDeviation="4"/>
<feColorMatrix type="matrix" values="0 0 0 0 0.0627451 0 0 0 0 0.0941176 0 0 0 0 0.156863 0 0 0 0.03 0"/>
<feBlend mode="normal" in2="BackgroundImageFix" result="effect1_dropShadow_256_1591"/>
<feColorMatrix in="SourceAlpha" type="matrix" values="0 0 0 0 0 0 0 0 0 0 0 0 0 0 0 0 0 0 127 0" result="hardAlpha"/>
<feMorphology radius="4" operator="erode" in="SourceAlpha" result="effect2_dropShadow_256_1591"/>
<feOffset dy="20"/>
<feGaussianBlur stdDeviation="12"/>
<feColorMatrix type="matrix" values="0 0 0 0 0.0627451 0 0 0 0 0.0941176 0 0 0 0 0.156863 0 0 0 0.08 0"/>
<feBlend mode="normal" in2="effect1_dropShadow_256_1591" result="effect2_dropShadow_256_1591"/>
<feBlend mode="normal" in="SourceGraphic" in2="effect2_dropShadow_256_1591" result="shape"/>
</filter>
<filter id="filter2_dd_256_1591" x="132.382" y="94.7605" width="94.063" height="93.939" filterUnits="userSpaceOnUse" color-interpolation-filters="sRGB">
<feFlood flood-opacity="0" result="BackgroundImageFix"/>
<feColorMatrix in="SourceAlpha" type="matrix" values="0 0 0 0 0 0 0 0 0 0 0 0 0 0 0 0 0 0 127 0" result="hardAlpha"/>
<feMorphology radius="4" operator="erode" in="SourceAlpha" result="effect1_dropShadow_256_1591"/>
<feOffset dy="8"/>
<feGaussianBlur stdDeviation="4"/>
<feColorMatrix type="matrix" values="0 0 0 0 0.0627451 0 0 0 0 0.0941176 0 0 0 0 0.156863 0 0 0 0.03 0"/>
<feBlend mode="normal" in2="BackgroundImageFix" result="effect1_dropShadow_256_1591"/>
<feColorMatrix in="SourceAlpha" type="matrix" values="0 0 0 0 0 0 0 0 0 0 0 0 0 0 0 0 0 0 127 0" result="hardAlpha"/>
<feMorphology radius="4" operator="erode" in="SourceAlpha" result="effect2_dropShadow_256_1591"/>
<feOffset dy="20"/>
<feGaussianBlur stdDeviation="12"/>
<feColorMatrix type="matrix" values="0 0 0 0 0.0627451 0 0 0 0 0.0941176 0 0 0 0 0.156863 0 0 0 0.08 0"/>
<feBlend mode="normal" in2="effect1_dropShadow_256_1591" result="effect2_dropShadow_256_1591"/>
<feBlend mode="normal" in="SourceGraphic" in2="effect2_dropShadow_256_1591" result="shape"/>
</filter>
<filter id="filter3_dd_256_1591" x="227.335" y="36.3818" width="94.063" height="93.939" filterUnits="userSpaceOnUse" color-interpolation-filters="sRGB">
<feFlood flood-opacity="0" result="BackgroundImageFix"/>
<feColorMatrix in="SourceAlpha" type="matrix" values="0 0 0 0 0 0 0 0 0 0 0 0 0 0 0 0 0 0 127 0" result="hardAlpha"/>
<feMorphology radius="4" operator="erode" in="SourceAlpha" result="effect1_dropShadow_256_1591"/>
<feOffset dy="8"/>
<feGaussianBlur stdDeviation="4"/>
<feColorMatrix type="matrix" values="0 0 0 0 0.0627451 0 0 0 0 0.0941176 0 0 0 0 0.156863 0 0 0 0.03 0"/>
<feBlend mode="normal" in2="BackgroundImageFix" result="effect1_dropShadow_256_1591"/>
<feColorMatrix in="SourceAlpha" type="matrix" values="0 0 0 0 0 0 0 0 0 0 0 0 0 0 0 0 0 0 127 0" result="hardAlpha"/>
<feMorphology radius="4" operator="erode" in="SourceAlpha" result="effect2_dropShadow_256_1591"/>
<feOffset dy="20"/>
<feGaussianBlur stdDeviation="12"/>
<feColorMatrix type="matrix" values="0 0 0 0 0.0627451 0 0 0 0 0.0941176 0 0 0 0 0.156863 0 0 0 0.08 0"/>
<feBlend mode="normal" in2="effect1_dropShadow_256_1591" result="effect2_dropShadow_256_1591"/>
<feBlend mode="normal" in="SourceGraphic" in2="effect2_dropShadow_256_1591" result="shape"/>
</filter>
<filter id="filter4_dd_256_1591" x="333.996" y="134.977" width="94.063" height="93.939" filterUnits="userSpaceOnUse" color-interpolation-filters="sRGB">
<feFlood flood-opacity="0" result="BackgroundImageFix"/>
<feColorMatrix in="SourceAlpha" type="matrix" values="0 0 0 0 0 0 0 0 0 0 0 0 0 0 0 0 0 0 127 0" result="hardAlpha"/>
<feMorphology radius="4" operator="erode" in="SourceAlpha" result="effect1_dropShadow_256_1591"/>
<feOffset dy="8"/>
<feGaussianBlur stdDeviation="4"/>
<feColorMatrix type="matrix" values="0 0 0 0 0.0627451 0 0 0 0 0.0941176 0 0 0 0 0.156863 0 0 0 0.03 0"/>
<feBlend mode="normal" in2="BackgroundImageFix" result="effect1_dropShadow_256_1591"/>
<feColorMatrix in="SourceAlpha" type="matrix" values="0 0 0 0 0 0 0 0 0 0 0 0 0 0 0 0 0 0 127 0" result="hardAlpha"/>
<feMorphology radius="4" operator="erode" in="SourceAlpha" result="effect2_dropShadow_256_1591"/>
<feOffset dy="20"/>
<feGaussianBlur stdDeviation="12"/>
<feColorMatrix type="matrix" values="0 0 0 0 0.0627451 0 0 0 0 0.0941176 0 0 0 0 0.156863 0 0 0 0.08 0"/>
<feBlend mode="normal" in2="effect1_dropShadow_256_1591" result="effect2_dropShadow_256_1591"/>
<feBlend mode="normal" in="SourceGraphic" in2="effect2_dropShadow_256_1591" result="shape"/>
</filter>
<filter id="filter5_dd_256_1591" x="321.53" y="132.382" width="109.672" height="109.507" filterUnits="userSpaceOnUse" color-interpolation-filters="sRGB">
<feFlood flood-opacity="0" result="BackgroundImageFix"/>
<feColorMatrix in="SourceAlpha" type="matrix" values="0 0 0 0 0 0 0 0 0 0 0 0 0 0 0 0 0 0 127 0" result="hardAlpha"/>
<feMorphology radius="4" operator="erode" in="SourceAlpha" result="effect1_dropShadow_256_1591"/>
<feOffset dy="8"/>
<feGaussianBlur stdDeviation="4"/>
<feColorMatrix type="matrix" values="0 0 0 0 0.0627451 0 0 0 0 0.0941176 0 0 0 0 0.156863 0 0 0 0.03 0"/>
<feBlend mode="normal" in2="BackgroundImageFix" result="effect1_dropShadow_256_1591"/>
<feColorMatrix in="SourceAlpha" type="matrix" values="0 0 0 0 0 0 0 0 0 0 0 0 0 0 0 0 0 0 127 0" result="hardAlpha"/>
<feMorphology radius="4" operator="erode" in="SourceAlpha" result="effect2_dropShadow_256_1591"/>
<feOffset dy="20"/>
<feGaussianBlur stdDeviation="12"/>
<feColorMatrix type="matrix" values="0 0 0 0 0.0627451 0 0 0 0 0.0941176 0 0 0 0 0.156863 0 0 0 0.08 0"/>
<feBlend mode="normal" in2="effect1_dropShadow_256_1591" result="effect2_dropShadow_256_1591"/>
<feBlend mode="normal" in="SourceGraphic" in2="effect2_dropShadow_256_1591" result="shape"/>
</filter>
<filter id="filter6_d_256_1591" x="334.557" y="140.448" width="35.1206" height="27.4316" filterUnits="userSpaceOnUse" color-interpolation-filters="sRGB">
<feFlood flood-opacity="0" result="BackgroundImageFix"/>
<feColorMatrix in="SourceAlpha" type="matrix" values="0 0 0 0 0 0 0 0 0 0 0 0 0 0 0 0 0 0 127 0" result="hardAlpha"/>
<feOffset dy="2.41206"/>
<feColorMatrix type="matrix" values="0 0 0 0 0 0 0 0 0 0 0 0 0 0 0 0 0 0 0.06 0"/>
<feBlend mode="normal" in2="BackgroundImageFix" result="effect1_dropShadow_256_1591"/>
<feBlend mode="normal" in="SourceGraphic" in2="effect1_dropShadow_256_1591" result="shape"/>
</filter>
<filter id="filter7_dd_256_1591" x="176.512" y="159.535" width="70.8389" height="70.7703" filterUnits="userSpaceOnUse" color-interpolation-filters="sRGB">
<feFlood flood-opacity="0" result="BackgroundImageFix"/>
<feColorMatrix in="SourceAlpha" type="matrix" values="0 0 0 0 0 0 0 0 0 0 0 0 0 0 0 0 0 0 127 0" result="hardAlpha"/>
<feMorphology radius="4" operator="erode" in="SourceAlpha" result="effect1_dropShadow_256_1591"/>
<feOffset dy="8"/>
<feGaussianBlur stdDeviation="4"/>
<feColorMatrix type="matrix" values="0 0 0 0 0.0627451 0 0 0 0 0.0941176 0 0 0 0 0.156863 0 0 0 0.03 0"/>
<feBlend mode="normal" in2="BackgroundImageFix" result="effect1_dropShadow_256_1591"/>
<feColorMatrix in="SourceAlpha" type="matrix" values="0 0 0 0 0 0 0 0 0 0 0 0 0 0 0 0 0 0 127 0" result="hardAlpha"/>
<feMorphology radius="4" operator="erode" in="SourceAlpha" result="effect2_dropShadow_256_1591"/>
<feOffset dy="20"/>
<feGaussianBlur stdDeviation="12"/>
<feColorMatrix type="matrix" values="0 0 0 0 0.0627451 0 0 0 0 0.0941176 0 0 0 0 0.156863 0 0 0 0.08 0"/>
<feBlend mode="normal" in2="effect1_dropShadow_256_1591" result="effect2_dropShadow_256_1591"/>
<feBlend mode="normal" in="SourceGraphic" in2="effect2_dropShadow_256_1591" result="shape"/>
</filter>
<filter id="filter8_dd_256_1591" x="287.076" y="105.048" width="70.8389" height="70.7703" filterUnits="userSpaceOnUse" color-interpolation-filters="sRGB">
<feFlood flood-opacity="0" result="BackgroundImageFix"/>
<feColorMatrix in="SourceAlpha" type="matrix" values="0 0 0 0 0 0 0 0 0 0 0 0 0 0 0 0 0 0 127 0" result="hardAlpha"/>
<feMorphology radius="4" operator="erode" in="SourceAlpha" result="effect1_dropShadow_256_1591"/>
<feOffset dy="8"/>
<feGaussianBlur stdDeviation="4"/>
<feColorMatrix type="matrix" values="0 0 0 0 0.0627451 0 0 0 0 0.0941176 0 0 0 0 0.156863 0 0 0 0.03 0"/>
<feBlend mode="normal" in2="BackgroundImageFix" result="effect1_dropShadow_256_1591"/>
<feColorMatrix in="SourceAlpha" type="matrix" values="0 0 0 0 0 0 0 0 0 0 0 0 0 0 0 0 0 0 127 0" result="hardAlpha"/>
<feMorphology radius="4" operator="erode" in="SourceAlpha" result="effect2_dropShadow_256_1591"/>
<feOffset dy="20"/>
<feGaussianBlur stdDeviation="12"/>
<feColorMatrix type="matrix" values="0 0 0 0 0.0627451 0 0 0 0 0.0941176 0 0 0 0 0.156863 0 0 0 0.08 0"/>
<feBlend mode="normal" in2="effect1_dropShadow_256_1591" result="effect2_dropShadow_256_1591"/>
<feBlend mode="normal" in="SourceGraphic" in2="effect2_dropShadow_256_1591" result="shape"/>
</filter>
<filter id="filter9_dd_256_1591" x="232.445" y="217.912" width="70.8389" height="70.7703" filterUnits="userSpaceOnUse" color-interpolation-filters="sRGB">
<feFlood flood-opacity="0" result="BackgroundImageFix"/>
<feColorMatrix in="SourceAlpha" type="matrix" values="0 0 0 0 0 0 0 0 0 0 0 0 0 0 0 0 0 0 127 0" result="hardAlpha"/>
<feMorphology radius="4" operator="erode" in="SourceAlpha" result="effect1_dropShadow_256_1591"/>
<feOffset dy="8"/>
<feGaussianBlur stdDeviation="4"/>
<feColorMatrix type="matrix" values="0 0 0 0 0.0627451 0 0 0 0 0.0941176 0 0 0 0 0.156863 0 0 0 0.03 0"/>
<feBlend mode="normal" in2="BackgroundImageFix" result="effect1_dropShadow_256_1591"/>
<feColorMatrix in="SourceAlpha" type="matrix" values="0 0 0 0 0 0 0 0 0 0 0 0 0 0 0 0 0 0 127 0" result="hardAlpha"/>
<feMorphology radius="4" operator="erode" in="SourceAlpha" result="effect2_dropShadow_256_1591"/>
<feOffset dy="20"/>
<feGaussianBlur stdDeviation="12"/>
<feColorMatrix type="matrix" values="0 0 0 0 0.0627451 0 0 0 0 0.0941176 0 0 0 0 0.156863 0 0 0 0.08 0"/>
<feBlend mode="normal" in2="effect1_dropShadow_256_1591" result="effect2_dropShadow_256_1591"/>
<feBlend mode="normal" in="SourceGraphic" in2="effect2_dropShadow_256_1591" result="shape"/>
</filter>
<filter id="filter10_dd_256_1591" x="298.783" y="181.589" width="70.8389" height="70.7703" filterUnits="userSpaceOnUse" color-interpolation-filters="sRGB">
<feFlood flood-opacity="0" result="BackgroundImageFix"/>
<feColorMatrix in="SourceAlpha" type="matrix" values="0 0 0 0 0 0 0 0 0 0 0 0 0 0 0 0 0 0 127 0" result="hardAlpha"/>
<feMorphology radius="4" operator="erode" in="SourceAlpha" result="effect1_dropShadow_256_1591"/>
<feOffset dy="8"/>
<feGaussianBlur stdDeviation="4"/>
<feColorMatrix type="matrix" values="0 0 0 0 0.0627451 0 0 0 0 0.0941176 0 0 0 0 0.156863 0 0 0 0.03 0"/>
<feBlend mode="normal" in2="BackgroundImageFix" result="effect1_dropShadow_256_1591"/>
<feColorMatrix in="SourceAlpha" type="matrix" values="0 0 0 0 0 0 0 0 0 0 0 0 0 0 0 0 0 0 127 0" result="hardAlpha"/>
<feMorphology radius="4" operator="erode" in="SourceAlpha" result="effect2_dropShadow_256_1591"/>
<feOffset dy="20"/>
<feGaussianBlur stdDeviation="12"/>
<feColorMatrix type="matrix" values="0 0 0 0 0.0627451 0 0 0 0 0.0941176 0 0 0 0 0.156863 0 0 0 0.08 0"/>
<feBlend mode="normal" in2="effect1_dropShadow_256_1591" result="effect2_dropShadow_256_1591"/>
<feBlend mode="normal" in="SourceGraphic" in2="effect2_dropShadow_256_1591" result="shape"/>
</filter>
<filter id="filter11_dd_256_1591" x="199.925" y="101.155" width="70.8389" height="70.7703" filterUnits="userSpaceOnUse" color-interpolation-filters="sRGB">
<feFlood flood-opacity="0" result="BackgroundImageFix"/>
<feColorMatrix in="SourceAlpha" type="matrix" values="0 0 0 0 0 0 0 0 0 0 0 0 0 0 0 0 0 0 127 0" result="hardAlpha"/>
<feMorphology radius="4" operator="erode" in="SourceAlpha" result="effect1_dropShadow_256_1591"/>
<feOffset dy="8"/>
<feGaussianBlur stdDeviation="4"/>
<feColorMatrix type="matrix" values="0 0 0 0 0.0627451 0 0 0 0 0.0941176 0 0 0 0 0.156863 0 0 0 0.03 0"/>
<feBlend mode="normal" in2="BackgroundImageFix" result="effect1_dropShadow_256_1591"/>
<feColorMatrix in="SourceAlpha" type="matrix" values="0 0 0 0 0 0 0 0 0 0 0 0 0 0 0 0 0 0 127 0" result="hardAlpha"/>
<feMorphology radius="4" operator="erode" in="SourceAlpha" result="effect2_dropShadow_256_1591"/>
<feOffset dy="20"/>
<feGaussianBlur stdDeviation="12"/>
<feColorMatrix type="matrix" values="0 0 0 0 0.0627451 0 0 0 0 0.0941176 0 0 0 0 0.156863 0 0 0 0.08 0"/>
<feBlend mode="normal" in2="effect1_dropShadow_256_1591" result="effect2_dropShadow_256_1591"/>
<feBlend mode="normal" in="SourceGraphic" in2="effect2_dropShadow_256_1591" result="shape"/>
</filter>
<linearGradient id="paint0_linear_256_1591" x1="334.557" y1="140.448" x2="334.557" y2="165.468" gradientUnits="userSpaceOnUse">
<stop stop-color="white"/>
<stop offset="1" stop-color="#F0F0F0"/>
</linearGradient>
<clipPath id="clip0_256_1591">
<rect width="556" height="320" rx="16" fill="white"/>
</clipPath>
<clipPath id="clip1_256_1591">
<rect x="170.308" y="220.324" width="46.8268" height="46.7028" rx="23.3514" fill="white"/>
</clipPath>
<clipPath id="clip2_256_1591">
<rect x="309.488" y="233.297" width="46.8268" height="46.7028" rx="23.3514" fill="white"/>
</clipPath>
<clipPath id="clip3_256_1591">
<rect x="156" y="98.3787" width="46.8268" height="46.7028" rx="23.3514" fill="white"/>
</clipPath>
<clipPath id="clip4_256_1591">
<rect x="250.953" y="40" width="46.8268" height="46.7028" rx="23.3514" fill="white"/>
</clipPath>
<clipPath id="clip5_256_1591">
<rect x="357.614" y="138.595" width="46.8268" height="46.7028" rx="23.3514" fill="white"/>
</clipPath>
<clipPath id="clip6_256_1591">
<rect x="345.148" y="136" width="62.4357" height="62.2704" rx="31.1352" fill="white"/>
</clipPath>
<clipPath id="clip7_256_1591">
<rect x="198.924" y="161.947" width="26.0149" height="25.946" rx="12.973" fill="white"/>
</clipPath>
<clipPath id="clip8_256_1591">
<rect x="309.488" y="107.46" width="26.0149" height="25.946" rx="12.973" fill="white"/>
</clipPath>
<clipPath id="clip9_256_1591">
<rect x="254.857" y="220.324" width="26.0149" height="25.946" rx="12.973" fill="white"/>
</clipPath>
<clipPath id="clip10_256_1591">
<rect x="321.195" y="184.001" width="26.0149" height="25.946" rx="12.973" fill="white"/>
</clipPath>
<clipPath id="clip11_256_1591">
<rect x="222.337" y="103.567" width="26.0149" height="25.946" rx="12.973" fill="white"/>
</clipPath>
</defs>
</svg>
