<svg width="1244" height="1244" viewBox="0 0 1244 1244" fill="none" xmlns="http://www.w3.org/2000/svg">
<path d="M1032.31 0H211.694C94.7787 0 0 94.7787 0 211.694V1032.31C0 1149.22 94.7787 1244 211.694 1244H1032.31C1149.22 1244 1244 1149.22 1244 1032.31V211.694C1244 94.7787 1149.22 0 1032.31 0Z" fill="#03B5D1"/>
<path d="M984.733 299.827C984.733 288.06 975.219 278.67 963.576 278.67H280.422C268.654 278.67 259.265 288.185 259.265 299.827V710.071C259.265 721.838 268.779 731.228 280.422 731.228H437.659C449.426 731.228 458.815 721.713 458.815 710.071V499.503C458.815 487.736 468.33 478.346 479.972 478.346H963.326C975.094 478.346 984.483 468.832 984.483 457.19V299.952L984.733 299.827Z" fill="white"/>
<path opacity="0.8" d="M984.735 576.621C984.735 562.85 973.594 551.583 959.698 551.583H557.091C543.32 551.583 532.053 562.725 532.053 576.621V979.228C532.053 992.998 543.195 1004.27 557.091 1004.27H706.691C720.462 1004.27 731.729 993.124 731.729 979.228V776.297C731.729 762.526 742.871 751.259 756.767 751.259H959.698C973.468 751.259 984.735 740.117 984.735 726.221V576.621Z" fill="white"/>
</svg>
