<svg width="3201" height="843" viewBox="0 0 3201 843" fill="none" xmlns="http://www.w3.org/2000/svg">
<path d="M699.361 0H143.417C64.2101 0 0 64.2101 0 143.417V699.361C0 778.568 64.2101 842.778 143.417 842.778H699.361C778.568 842.778 842.778 778.568 842.778 699.361V143.417C842.778 64.2101 778.568 0 699.361 0Z" fill="#03B5D1"/>
<path d="M667.132 203.125C667.132 195.153 660.686 188.792 652.798 188.792H189.979C182.006 188.792 175.645 195.238 175.645 203.125V481.055C175.645 489.027 182.091 495.388 189.979 495.388H296.503C304.475 495.388 310.836 488.942 310.836 481.055V338.401C310.836 330.428 317.282 324.067 325.169 324.067H652.629C660.601 324.067 666.962 317.622 666.962 309.734V203.21L667.132 203.125Z" fill="white"/>
<path opacity="0.8" d="M667.133 390.646C667.133 381.316 659.585 373.683 650.171 373.683H377.415C368.085 373.683 360.452 381.231 360.452 390.646V663.401C360.452 672.731 368.001 680.364 377.415 680.364H478.765C488.095 680.364 495.728 672.816 495.728 663.401V525.921C495.728 516.592 503.276 508.958 512.69 508.958H650.171C659.5 508.958 667.133 501.41 667.133 491.996V390.646Z" fill="white"/>
<path d="M2965.84 679.411V546.231H2834.42V446.346H2965.84V313.166H3069.23V446.346H3200.66V546.231H3069.23V679.411H2965.84Z" fill="white" fill-opacity="0.7"/>
<path d="M2641.15 775.775C2615.58 775.775 2595.12 768.103 2579.78 752.759C2565 737.415 2557.61 716.957 2557.61 691.383V429.682H2441.68V355.519H2557.61V216.57H2645.41V355.519H2770.72V429.682H2645.41V676.039C2645.41 693.088 2653.37 701.613 2669.28 701.613H2757.08V775.775H2641.15Z" fill="white"/>
<path d="M2236.72 787.71C2194.1 787.71 2156.88 778.901 2125.05 761.284C2093.23 743.099 2068.22 717.809 2050.04 685.416C2032.42 652.455 2023.61 614.379 2023.61 571.189V560.959C2023.61 517.2 2032.42 479.124 2050.04 446.731C2067.65 413.77 2092.09 388.481 2123.35 370.864C2155.17 352.678 2191.83 343.585 2233.31 343.585C2273.66 343.585 2308.9 352.678 2339.02 370.864C2369.7 388.481 2393.57 413.202 2410.62 445.026C2427.67 476.851 2436.19 514.075 2436.19 556.697V589.942H2113.12C2114.25 626.882 2126.47 656.433 2149.77 678.597C2173.64 700.192 2203.19 710.99 2238.43 710.99C2271.39 710.99 2296.11 703.602 2312.59 688.826C2329.64 674.05 2342.71 657.001 2351.8 637.679L2424.26 675.187C2416.3 691.099 2404.65 707.864 2389.31 725.481C2374.53 743.099 2354.93 757.874 2330.49 769.809C2306.05 781.743 2274.8 787.71 2236.72 787.71ZM2113.97 522.599H2346.69C2344.41 490.774 2333.05 466.053 2312.59 448.436C2292.13 430.251 2265.42 421.158 2232.46 421.158C2199.5 421.158 2172.5 430.251 2151.48 448.436C2131.02 466.053 2118.52 490.774 2113.97 522.599Z" fill="white"/>
<path d="M1781.53 787.71C1738.91 787.71 1701.69 778.901 1669.86 761.284C1638.04 743.099 1613.03 717.809 1594.85 685.416C1577.23 652.455 1568.42 614.379 1568.42 571.189V560.959C1568.42 517.2 1577.23 479.124 1594.85 446.731C1612.46 413.77 1636.9 388.481 1668.16 370.864C1699.98 352.678 1736.64 343.585 1778.12 343.585C1818.47 343.585 1853.71 352.678 1883.83 370.864C1914.51 388.481 1938.38 413.202 1955.43 445.026C1972.48 476.851 1981.01 514.075 1981.01 556.697V589.942H1657.93C1659.06 626.882 1671.28 656.433 1694.58 678.597C1718.45 700.192 1748 710.99 1783.24 710.99C1816.2 710.99 1840.92 703.602 1857.4 688.826C1874.45 674.05 1887.52 657.001 1896.61 637.679L1969.07 675.187C1961.12 691.099 1949.47 707.864 1934.12 725.481C1919.35 743.099 1899.74 757.874 1875.3 769.809C1850.87 781.743 1819.61 787.71 1781.53 787.71ZM1658.78 522.599H1891.5C1889.23 490.774 1877.86 466.053 1857.4 448.436C1836.94 430.251 1810.23 421.158 1777.27 421.158C1744.31 421.158 1717.32 430.251 1696.29 448.436C1675.83 466.053 1663.33 490.774 1658.78 522.599Z" fill="white"/>
<path d="M1137.96 775.777V429.683H1020.32V355.52H1137.96V263.456C1137.96 237.883 1145.63 217.424 1160.98 202.08C1176.32 186.736 1196.78 179.064 1222.35 179.064H1330.61V253.227H1250.48C1234 253.227 1225.76 261.751 1225.76 278.8V355.52H1346.81V429.683H1225.76V775.777H1137.96ZM1414.15 775.777V179.064H1501.95V775.777H1414.15Z" fill="white"/>
</svg>
