<svg width="30" height="31" viewBox="0 0 30 31" fill="none" xmlns="http://www.w3.org/2000/svg">
<path d="M11.2371 27.7917C9.16211 27.7917 7.07461 27.0042 5.48711 25.4167C2.32461 22.2417 2.32461 17.0917 5.48711 13.9292C5.84961 13.5667 6.44961 13.5667 6.81211 13.9292C7.17461 14.2917 7.17461 14.8917 6.81211 15.2542C4.37461 17.6917 4.37461 21.6542 6.81211 24.0917C9.24961 26.5292 13.2121 26.5292 15.6496 24.0917C16.8246 22.9167 17.4746 21.3417 17.4746 19.6667C17.4746 18.0042 16.8246 16.4292 15.6496 15.2417C15.2871 14.8792 15.2871 14.2792 15.6496 13.9167C16.0121 13.5542 16.6121 13.5542 16.9746 13.9167C18.5121 15.4542 19.3496 17.4917 19.3496 19.6667C19.3496 21.8417 18.4996 23.8792 16.9746 25.4167C15.3996 27.0042 13.3246 27.7917 11.2371 27.7917Z" fill="#03B5D1"/>
<path d="M23.8371 18.6166C23.5996 18.6166 23.3621 18.5291 23.1746 18.3416C22.8121 17.9791 22.8121 17.3791 23.1746 17.0166C25.7371 14.4541 25.7371 10.2916 23.1746 7.74155C20.6121 5.17905 16.4496 5.17905 13.8996 7.74155C12.6621 8.97905 11.9746 10.6291 11.9746 12.3791C11.9746 14.1291 12.6621 15.7791 13.8996 17.0166C14.2621 17.3791 14.2621 17.9791 13.8996 18.3416C13.5371 18.7041 12.9371 18.7041 12.5746 18.3416C10.9871 16.7541 10.0996 14.6291 10.0996 12.3791C10.0996 10.1291 10.9746 8.00405 12.5746 6.41655C15.8621 3.12905 21.2121 3.12905 24.5121 6.41655C27.7996 9.70405 27.7996 15.0666 24.5121 18.3541C24.3246 18.5291 24.0746 18.6166 23.8371 18.6166Z" fill="#03B5D1"/>
</svg>
