<svg width="30" height="31" viewBox="0 0 30 31" fill="none" xmlns="http://www.w3.org/2000/svg">
<g id="mail">
<path id="Vector" d="M15.0008 14.801L26.982 7.10413C26.5003 6.74283 25.9154 6.54566 25.3133 6.54163H4.68828C4.08616 6.54566 3.50123 6.74283 3.01953 7.10413L15.0008 14.801Z" fill="#03B5D1"/>
<path id="Vector_2" d="M15.5063 16.7041L15.3469 16.7791H15.2719C15.1856 16.8177 15.0939 16.8429 15 16.8541C14.9222 16.8639 14.8434 16.8639 14.7656 16.8541H14.6906L14.5312 16.7791L1.96875 8.66034C1.90873 8.88678 1.87724 9.11984 1.875 9.35409V22.4791C1.875 23.225 2.17132 23.9404 2.69876 24.4678C3.22621 24.9953 3.94158 25.2916 4.6875 25.2916H25.3125C26.0584 25.2916 26.7738 24.9953 27.3012 24.4678C27.8287 23.9404 28.125 23.225 28.125 22.4791V9.35409C28.1228 9.11984 28.0913 8.88678 28.0312 8.66034L15.5063 16.7041Z" fill="#03B5D1"/>
</g>
</svg>
