<svg width="30" height="31" viewBox="0 0 30 31" fill="none" xmlns="http://www.w3.org/2000/svg">
<g id="instagram">
<path id="Vector" d="M21.677 7.74163C21.3803 7.74163 21.0903 7.8296 20.8436 7.99442C20.5969 8.15924 20.4047 8.39351 20.2911 8.6676C20.1776 8.94169 20.1479 9.24329 20.2058 9.53426C20.2637 9.82523 20.4065 10.0925 20.6163 10.3023C20.8261 10.5121 21.0933 10.6549 21.3843 10.7128C21.6753 10.7707 21.9769 10.741 22.251 10.6274C22.5251 10.5139 22.7593 10.3217 22.9242 10.075C23.089 9.82831 23.177 9.5383 23.177 9.24163C23.177 8.8438 23.0189 8.46227 22.7376 8.18097C22.4563 7.89966 22.0748 7.74163 21.677 7.74163ZM27.427 10.7666C27.4026 9.7295 27.2084 8.70338 26.852 7.72913C26.5341 6.89554 26.0394 6.14072 25.402 5.51663C24.783 4.87591 24.0264 4.38435 23.1895 4.07913C22.2178 3.71183 21.1905 3.51314 20.152 3.49163C18.827 3.41663 18.402 3.41663 15.002 3.41663C11.602 3.41663 11.177 3.41663 9.85195 3.49163C8.81339 3.51314 7.78613 3.71183 6.81445 4.07913C5.97905 4.38744 5.22312 4.87858 4.60195 5.51663C3.96124 6.1356 3.46967 6.89218 3.16445 7.72913C2.79715 8.7008 2.59847 9.72807 2.57695 10.7666C2.50195 12.0916 2.50195 12.5166 2.50195 15.9166C2.50195 19.3166 2.50195 19.7416 2.57695 21.0666C2.59847 22.1052 2.79715 23.1324 3.16445 24.1041C3.46967 24.9411 3.96124 25.6977 4.60195 26.3166C5.22312 26.9547 5.97905 27.4458 6.81445 27.7541C7.78613 28.1214 8.81339 28.3201 9.85195 28.3416C11.177 28.4166 11.602 28.4166 15.002 28.4166C18.402 28.4166 18.827 28.4166 20.152 28.3416C21.1905 28.3201 22.2178 28.1214 23.1895 27.7541C24.0264 27.4489 24.783 26.9573 25.402 26.3166C26.0423 25.6949 26.5374 24.9394 26.852 24.1041C27.2084 23.1299 27.4026 22.1038 27.427 21.0666C27.427 19.7416 27.502 19.3166 27.502 15.9166C27.502 12.5166 27.502 12.0916 27.427 10.7666ZM25.177 20.9166C25.1679 21.7101 25.0241 22.4963 24.752 23.2416C24.5524 23.7856 24.2318 24.2772 23.8145 24.6791C23.409 25.0923 22.9185 25.4122 22.377 25.6166C21.6316 25.8888 20.8454 26.0325 20.052 26.0416C18.802 26.1041 18.3395 26.1166 15.052 26.1166C11.7645 26.1166 11.302 26.1166 10.052 26.0416C9.22807 26.0571 8.4077 25.9302 7.62695 25.6666C7.10918 25.4517 6.64115 25.1326 6.25195 24.7291C5.83706 24.3276 5.52051 23.8356 5.32695 23.2916C5.02177 22.5356 4.85251 21.7316 4.82695 20.9166C4.82695 19.6666 4.75195 19.2041 4.75195 15.9166C4.75195 12.6291 4.75195 12.1666 4.82695 10.9166C4.83256 10.1054 4.98064 9.30156 5.26445 8.54163C5.48451 8.01401 5.82228 7.5437 6.25195 7.16663C6.63172 6.73684 7.10106 6.3955 7.62695 6.16663C8.38889 5.89168 9.19195 5.74798 10.002 5.74163C11.252 5.74163 11.7145 5.66663 15.002 5.66663C18.2895 5.66663 18.752 5.66663 20.002 5.74163C20.7954 5.75073 21.5816 5.89443 22.327 6.16663C22.895 6.37744 23.4048 6.72018 23.8145 7.16663C24.2241 7.5506 24.5442 8.02004 24.752 8.54163C25.0298 9.30279 25.1736 10.1064 25.177 10.9166C25.2395 12.1666 25.252 12.6291 25.252 15.9166C25.252 19.2041 25.2395 19.6666 25.177 20.9166ZM15.002 9.50413C13.7342 9.5066 12.4957 9.88478 11.4428 10.5909C10.3899 11.297 9.56993 12.2994 9.0865 13.4713C8.60307 14.6433 8.47786 15.9322 8.7267 17.1753C8.97553 18.4184 9.58725 19.5598 10.4845 20.4553C11.3818 21.3509 12.5245 21.9604 13.768 22.2068C15.0116 22.4532 16.3003 22.3255 17.4713 21.8398C18.6423 21.3541 19.6431 20.5322 20.3471 19.4779C21.0512 18.4237 21.427 17.1844 21.427 15.9166C21.4286 15.073 21.2635 14.2374 20.941 13.4578C20.6185 12.6783 20.1452 11.9701 19.548 11.3742C18.9509 10.7782 18.2419 10.3062 17.4617 9.98529C16.6815 9.66435 15.8456 9.50083 15.002 9.50413ZM15.002 20.0791C14.1787 20.0791 13.3739 19.835 12.6894 19.3776C12.0049 18.9202 11.4714 18.2701 11.1563 17.5095C10.8413 16.7489 10.7588 15.912 10.9194 15.1046C11.08 14.2971 11.4765 13.5554 12.0586 12.9733C12.6408 12.3912 13.3824 11.9947 14.1899 11.8341C14.9973 11.6735 15.8343 11.7559 16.5949 12.071C17.3555 12.386 18.0056 12.9195 18.4629 13.6041C18.9203 14.2886 19.1645 15.0934 19.1645 15.9166C19.1645 16.4633 19.0568 17.0045 18.8476 17.5095C18.6384 18.0146 18.3318 18.4734 17.9453 18.86C17.5588 19.2465 17.0999 19.5531 16.5949 19.7623C16.0899 19.9715 15.5486 20.0791 15.002 20.0791Z" fill="#03B5D1"/>
</g>
</svg>
