<svg width="30" height="31" viewBox="0 0 30 31" fill="none" xmlns="http://www.w3.org/2000/svg">
<g id="Linkedin" clip-path="url(#clip0_177_7921)">
<path id="Vector" d="M0 10.2916H6.70875V30.9166H0V10.2916ZM24.9825 10.5335C24.9113 10.511 24.8438 10.4866 24.7687 10.466C24.6787 10.4456 24.588 10.4281 24.4969 10.4135C24.1007 10.3325 23.6975 10.2917 23.2931 10.2916C19.3819 10.2916 16.9013 13.136 16.0837 14.2348V10.2916H9.375V30.9166H16.0837V19.6666C16.0837 19.6666 21.1538 12.6054 23.2931 17.7916V30.9166H30V16.9985C29.9972 15.5175 29.5031 14.0793 28.5951 12.9093C27.687 11.7394 26.4165 10.9037 24.9825 10.5335Z" fill="#03B5D1"/>
<path id="Vector_2" d="M3.28125 7.47913C5.09343 7.47913 6.5625 6.01006 6.5625 4.19788C6.5625 2.38569 5.09343 0.916626 3.28125 0.916626C1.46907 0.916626 0 2.38569 0 4.19788C0 6.01006 1.46907 7.47913 3.28125 7.47913Z" fill="#03B5D1"/>
</g>
<defs>
<clipPath id="clip0_177_7921">
<rect width="30" height="30" fill="white" transform="translate(0 0.916626)"/>
</clipPath>
</defs>
</svg>
