<svg width="30" height="31" viewBox="0 0 30 31" fill="none" xmlns="http://www.w3.org/2000/svg">
<g id="twitter">
<path id="Vector" d="M27.502 8.16658C26.5624 8.5742 25.5687 8.84366 24.552 8.96658C25.6247 8.32573 26.4285 7.31756 26.8145 6.12908C25.8064 6.72916 24.7029 7.15195 23.552 7.37908C22.7826 6.5448 21.7582 5.98945 20.6392 5.80015C19.5203 5.61084 18.3701 5.79828 17.3692 6.33307C16.3682 6.86786 15.5731 7.71975 15.1085 8.75513C14.6439 9.79051 14.5361 10.9508 14.802 12.0541C12.7637 11.951 10.77 11.4203 8.95027 10.4964C7.13054 9.57255 5.52551 8.2762 4.23945 6.69158C3.78838 7.47929 3.55135 8.37136 3.55195 9.27908C3.55035 10.1221 3.75722 10.9524 4.15415 11.696C4.55107 12.4397 5.12573 13.0737 5.82695 13.5416C5.01192 13.5194 4.21431 13.3007 3.50195 12.9041V12.9666C3.50806 14.1477 3.92195 15.2904 4.6736 16.2015C5.42525 17.1126 6.46852 17.7361 7.62695 17.9666C7.18102 18.1023 6.71805 18.1738 6.25195 18.1791C5.92932 18.1753 5.60748 18.1461 5.28945 18.0916C5.61934 19.1076 6.25773 19.9955 7.1158 20.6318C7.97386 21.268 9.00892 21.621 10.077 21.6416C8.27346 23.0607 6.04681 23.8352 3.75195 23.8416C3.33412 23.843 2.91662 23.8179 2.50195 23.7666C4.84499 25.2794 7.57547 26.0825 10.3645 26.0791C12.2891 26.0991 14.1984 25.7354 15.9808 25.0092C17.7633 24.283 19.3832 23.2089 20.746 21.8497C22.1087 20.4905 23.1869 18.8733 23.9176 17.0927C24.6484 15.3121 25.017 13.4037 25.002 11.4791C25.002 11.2666 25.002 11.0416 25.002 10.8166C25.9828 10.0851 26.8288 9.18836 27.502 8.16658Z" fill="#03B5D1"/>
</g>
</svg>
