<svg width="30" height="31" viewBox="0 0 30 31" fill="none" xmlns="http://www.w3.org/2000/svg">
<g id="whatsapp">
<path id="Vector" d="M20.75 18.4166C20.5 18.2916 18.875 17.5416 18.625 17.4166C18.375 17.2916 18.125 17.2916 17.875 17.5416C17.625 17.7916 17.125 18.5416 16.875 18.7916C16.75 19.0416 16.5 19.0416 16.25 18.9166C15.375 18.5416 14.5 18.0416 13.75 17.4166C13.125 16.7916 12.5 16.0416 12 15.2916C11.875 15.0416 12 14.7916 12.125 14.6666C12.25 14.5416 12.375 14.2916 12.625 14.1666C12.75 14.0416 12.875 13.7916 12.875 13.6666C13 13.5416 13 13.2916 12.875 13.1666C12.75 13.0416 12.125 11.5416 11.875 10.9166C11.75 10.0416 11.5 10.0416 11.25 10.0416H10.625C10.375 10.0416 10 10.2916 9.875 10.4166C9.125 11.1666 8.75 12.0416 8.75 13.0416C8.875 14.1666 9.25 15.2916 10 16.2916C11.375 18.2916 13.125 19.9166 15.25 20.9166C15.875 21.1666 16.375 21.4166 17 21.5416C17.625 21.7916 18.25 21.7916 19 21.6666C19.875 21.5416 20.625 20.9166 21.125 20.1666C21.375 19.6666 21.375 19.1666 21.25 18.6666L20.75 18.4166ZM23.875 7.04163C19 2.16663 11.125 2.16663 6.25 7.04163C2.25 11.0416 1.5 17.1666 4.25 22.0416L2.5 28.4166L9.125 26.6666C11 27.6666 13 28.1666 15 28.1666C21.875 28.1666 27.375 22.6666 27.375 15.7916C27.5 12.5416 26.125 9.41663 23.875 7.04163ZM20.5 24.5416C18.875 25.5416 17 26.1666 15 26.1666C13.125 26.1666 11.375 25.6666 9.75 24.7916L9.375 24.5416L5.5 25.5416L6.5 21.7916L6.25 21.4166C3.25 16.4166 4.75 10.1666 9.625 7.04163C14.5 3.91663 20.75 5.54163 23.75 10.2916C26.75 15.1666 25.375 21.5416 20.5 24.5416Z" fill="#03B5D1"/>
</g>
</svg>
