<svg width="32" height="32" viewBox="0 0 32 32" fill="none" xmlns="http://www.w3.org/2000/svg">
<path d="M22.408 8.152C22.1232 8.152 21.8448 8.23645 21.608 8.39468C21.3712 8.55291 21.1866 8.77781 21.0776 9.04094C20.9686 9.30406 20.9401 9.5936 20.9957 9.87293C21.0512 10.1523 21.1884 10.4088 21.3898 10.6102C21.5912 10.8116 21.8477 10.9488 22.1271 11.0043C22.4064 11.0599 22.6959 11.0314 22.9591 10.9224C23.2222 10.8134 23.4471 10.6288 23.6053 10.392C23.7635 10.1552 23.848 9.87681 23.848 9.592C23.848 9.21009 23.6963 8.84382 23.4262 8.57377C23.1562 8.30371 22.7899 8.152 22.408 8.152ZM27.928 11.056C27.9047 10.0604 27.7182 9.07528 27.376 8.14C27.0709 7.33976 26.596 6.61513 25.984 6.016C25.3898 5.40091 24.6635 4.92901 23.86 4.636C22.9272 4.28339 21.941 4.09265 20.944 4.072C19.672 4 19.264 4 16 4C12.736 4 12.328 4 11.056 4.072C10.059 4.09265 9.07281 4.28339 8.14 4.636C7.33801 4.93198 6.61232 5.40347 6.016 6.016C5.40091 6.61021 4.92901 7.33653 4.636 8.14C4.28339 9.07281 4.09265 10.059 4.072 11.056C4 12.328 4 12.736 4 16C4 19.264 4 19.672 4.072 20.944C4.09265 21.941 4.28339 22.9272 4.636 23.86C4.92901 24.6635 5.40091 25.3898 6.016 25.984C6.61232 26.5965 7.33801 27.068 8.14 27.364C9.07281 27.7166 10.059 27.9073 11.056 27.928C12.328 28 12.736 28 16 28C19.264 28 19.672 28 20.944 27.928C21.941 27.9073 22.9272 27.7166 23.86 27.364C24.6635 27.071 25.3898 26.5991 25.984 25.984C26.5987 25.3871 27.074 24.6618 27.376 23.86C27.7182 22.9247 27.9047 21.9396 27.928 20.944C27.928 19.672 28 19.264 28 16C28 12.736 28 12.328 27.928 11.056ZM25.768 20.8C25.7593 21.5617 25.6213 22.3164 25.36 23.032C25.1684 23.5542 24.8607 24.0261 24.46 24.412C24.0708 24.8086 23.5999 25.1157 23.08 25.312C22.3644 25.5733 21.6097 25.7113 20.848 25.72C19.648 25.78 19.204 25.792 16.048 25.792C12.892 25.792 12.448 25.792 11.248 25.72C10.4571 25.7348 9.66951 25.613 8.92 25.36C8.42294 25.1537 7.97363 24.8473 7.6 24.46C7.20171 24.0745 6.89781 23.6022 6.712 23.08C6.41903 22.3542 6.25653 21.5823 6.232 20.8C6.232 19.6 6.16 19.156 6.16 16C6.16 12.844 6.16 12.4 6.232 11.2C6.23738 10.4213 6.37954 9.64953 6.652 8.92C6.86326 8.41349 7.18752 7.96199 7.6 7.6C7.96458 7.1874 8.41515 6.85971 8.92 6.64C9.65146 6.37605 10.4224 6.2381 11.2 6.232C12.4 6.232 12.844 6.16 16 6.16C19.156 6.16 19.6 6.16 20.8 6.232C21.5617 6.24074 22.3164 6.3787 23.032 6.64C23.5773 6.84238 24.0668 7.17142 24.46 7.6C24.8532 7.96861 25.1605 8.41928 25.36 8.92C25.6267 9.65072 25.7647 10.4221 25.768 11.2C25.828 12.4 25.84 12.844 25.84 16C25.84 19.156 25.828 19.6 25.768 20.8ZM16 9.844C14.783 9.84637 13.594 10.2094 12.5832 10.8873C11.5724 11.5652 10.7853 12.5274 10.3212 13.6525C9.85707 14.7776 9.73687 16.015 9.97575 17.2083C10.2146 18.4017 10.8019 19.4974 11.6633 20.3572C12.5247 21.2169 13.6216 21.802 14.8154 22.0386C16.0092 22.2751 17.2464 22.1525 18.3706 21.6862C19.4947 21.22 20.4555 20.4309 21.1314 19.4188C21.8073 18.4068 22.168 17.217 22.168 16C22.1696 15.1901 22.011 14.3879 21.7015 13.6395C21.3919 12.8912 20.9375 12.2114 20.3642 11.6393C19.791 11.0672 19.1103 10.614 18.3614 10.3059C17.6124 9.99782 16.8099 9.84084 16 9.844ZM16 19.996C15.2097 19.996 14.4371 19.7616 13.7799 19.3226C13.1228 18.8835 12.6106 18.2594 12.3082 17.5292C12.0057 16.799 11.9266 15.9956 12.0808 15.2204C12.235 14.4453 12.6156 13.7333 13.1744 13.1744C13.7333 12.6156 14.4453 12.235 15.2204 12.0808C15.9956 11.9266 16.799 12.0057 17.5292 12.3082C18.2594 12.6106 18.8835 13.1228 19.3226 13.7799C19.7616 14.4371 19.996 15.2097 19.996 16C19.996 16.5248 19.8926 17.0444 19.6918 17.5292C19.491 18.014 19.1967 18.4545 18.8256 18.8256C18.4545 19.1967 18.014 19.491 17.5292 19.6918C17.0444 19.8926 16.5248 19.996 16 19.996Z" fill="white"/>
</svg>
