<svg width="32" height="32" viewBox="0 0 32 32" fill="none" xmlns="http://www.w3.org/2000/svg">
<path d="M3.44238 6.78788C3.44238 5.97978 3.72522 5.31312 4.29087 4.78788C4.85652 4.26262 5.59189 4 6.49693 4C7.38583 4 8.105 4.25857 8.6545 4.77576C9.22015 5.30909 9.50299 6.00402 9.50299 6.86061C9.50299 7.63636 9.22825 8.28281 8.67875 8.8C8.1131 9.33333 7.36966 9.6 6.44844 9.6H6.4242C5.5353 9.6 4.81613 9.33333 4.26663 8.8C3.71712 8.26667 3.44238 7.59595 3.44238 6.78788ZM3.75753 28V11.8061H9.13935V28H3.75753ZM12.1212 28H17.503V18.9576C17.503 18.3919 17.5676 17.9555 17.6969 17.6485C17.9232 17.099 18.2666 16.6343 18.7272 16.2545C19.1878 15.8747 19.7656 15.6848 20.4606 15.6848C22.2707 15.6848 23.1757 16.905 23.1757 19.3455V28H28.5575V18.7152C28.5575 16.3232 27.9919 14.5091 26.8606 13.2727C25.7292 12.0364 24.2343 11.4182 22.3757 11.4182C20.2909 11.4182 18.6666 12.3152 17.503 14.1091V14.1576H17.4787L17.503 14.1091V11.8061H12.1212C12.1535 12.3232 12.1697 13.9313 12.1697 16.6303C12.1697 19.3293 12.1535 23.1192 12.1212 28Z" fill="white"/>
</svg>
