<svg width="1440" height="528" viewBox="0 0 1440 528" fill="none" xmlns="http://www.w3.org/2000/svg">
<g opacity="0.7">
<path opacity="0.6" d="M-10 446.387C19.3333 382.053 204.4 266.887 710 320.887C1215.6 374.887 1401 268.387 1430.5 208.387" stroke="#736CED"/>
<path opacity="0.6" d="M-63.3719 478.388C-44.5467 432.869 139.73 334.32 726.235 304.284C1312.74 274.247 1499.35 181.279 1519.34 138.55" stroke="#736CED"/>
<path opacity="0.6" d="M-17.8113 380.719C17.2235 319.304 211.953 221.357 710.592 320.89C1209.23 420.423 1403.51 331.138 1438.32 274.054" stroke="#736CED"/>
<path opacity="0.6" d="M-87.0423 436.783C-61.0829 392.423 138.05 303.805 726.908 304.209C1315.77 304.613 1516.34 221.673 1543.01 180.152" stroke="#736CED"/>
<path opacity="0.6" d="M-4.08864 316.029C30.9462 254.614 225.676 156.668 724.314 256.201C1222.95 355.734 1417.23 266.448 1452.04 209.364" stroke="#736CED"/>
<path opacity="0.6" d="M-86.0306 393.04C-60.0712 348.681 139.062 260.063 727.92 260.466C1316.78 260.87 1517.35 177.93 1544.03 136.41" stroke="#736CED"/>
<path opacity="0.6" d="M-8.39366 232.976C33.4692 175.996 238.168 101.085 722.058 257.282C1205.95 413.48 1409.2 347.121 1450.34 294.417" stroke="#736CED"/>
<path opacity="0.6" d="M-109.636 339.704C-74.9208 297.343 140.727 222.389 725.599 261.459C1310.47 300.529 1526.41 231.31 1561.26 191.817" stroke="#736CED"/>
<path opacity="0.6" d="M9.85832 415.152C36.5619 349.684 216.812 227.116 724.184 260.594C1231.56 294.071 1412.49 180.15 1439.54 119.004" stroke="#736CED"/>
<path opacity="0.6" d="M-47.8486 455.564C-32.2665 409.646 144.871 306.915 728.766 263.334C1312.66 219.753 1492.52 122.544 1509.47 79.3874" stroke="#736CED"/>
</g>
</svg>
