<svg width="18" height="18" viewBox="0 0 18 18" fill="none" xmlns="http://www.w3.org/2000/svg">
<path d="M15.666 0.667969H2.33268C1.41602 0.667969 0.666016 1.41797 0.666016 2.33464V12.3346C0.666016 13.2513 1.41602 14.0013 2.33268 14.0013H13.9993L17.3327 17.3346V2.33464C17.3327 1.41797 16.5827 0.667969 15.666 0.667969ZM13.166 10.668H4.83268C4.37435 10.668 3.99935 10.293 3.99935 9.83463C3.99935 9.3763 4.37435 9.0013 4.83268 9.0013H13.166C13.6243 9.0013 13.9993 9.3763 13.9993 9.83463C13.9993 10.293 13.6243 10.668 13.166 10.668ZM13.166 8.16797H4.83268C4.37435 8.16797 3.99935 7.79297 3.99935 7.33464C3.99935 6.8763 4.37435 6.5013 4.83268 6.5013H13.166C13.6243 6.5013 13.9993 6.8763 13.9993 7.33464C13.9993 7.79297 13.6243 8.16797 13.166 8.16797ZM13.166 5.66797H4.83268C4.37435 5.66797 3.99935 5.29297 3.99935 4.83464C3.99935 4.3763 4.37435 4.0013 4.83268 4.0013H13.166C13.6243 4.0013 13.9993 4.3763 13.9993 4.83464C13.9993 5.29297 13.6243 5.66797 13.166 5.66797Z" fill="#142837"/>
</svg>
