<svg width="60" height="61" viewBox="0 0 60 61" fill="none" xmlns="http://www.w3.org/2000/svg">
<path d="M14.2648 52.588C13.4181 52.5884 12.5788 52.4202 11.7965 52.0928C11.0143 51.7655 10.3046 51.2857 9.70789 50.6815C9.11189 50.0771 8.64044 49.3605 8.32271 48.573C8.00498 47.7855 7.84667 46.9429 7.85644 46.0945L7.90703 14.6568C7.9204 12.9488 8.60726 11.3174 9.81801 10.1182C11.028 8.91907 12.6645 8.24927 14.369 8.25518L45.6751 8.41416C46.5261 8.40626 47.3705 8.57084 48.1579 8.89788C48.9446 9.22506 49.658 9.70799 50.2544 10.3178C50.8581 10.9166 51.3369 11.6295 51.6631 12.4149C51.9893 13.2003 52.1564 14.0424 52.1543 14.8922L52.0881 46.2588C52.1009 47.112 51.9429 47.9585 51.6232 48.7487C51.3042 49.5388 50.8303 50.2566 50.2295 50.8597C49.6293 51.4627 48.9135 51.9391 48.1258 52.2605C47.338 52.5819 46.4931 52.7422 45.6418 52.7315L14.2648 52.588Z" fill="#EBECF0"/>
<path d="M45.7188 12.0357L14.2938 11.9237C12.8108 11.9184 11.6077 13.1187 11.607 14.6045L11.588 46.061C11.5873 47.5469 12.7883 48.7559 14.2713 48.7611L45.6963 48.8732C47.1793 48.8785 48.3824 47.6782 48.3831 46.1923L48.4021 14.7358C48.4035 13.2498 47.2018 12.041 45.7188 12.0357Z" fill="#FF5C58"/>
<g clip-path="url(#clip0_14108_26202)">
<path d="M30 21C24.475 21 20 25.475 20 31C20 36.525 24.475 41 30 41C35.525 41 40 36.525 40 31C40 25.475 35.525 21 30 21ZM35 34.585L33.585 36L30 32.415L26.415 36L25 34.585L28.585 31L25 27.415L26.415 26L30 29.585L33.585 26L35 27.415L31.415 31L35 34.585Z" fill="white"/>
</g>
<defs>
<clipPath id="clip0_14108_26202">
<rect width="24" height="24" fill="white" transform="translate(18 19)"/>
</clipPath>
</defs>
</svg>
