<svg width="42" height="42" viewBox="0 0 42 42" fill="none" xmlns="http://www.w3.org/2000/svg">
<g clip-path="url(#clip0_12286_9975)">
<path d="M35 38.5H7C6.53587 38.5 6.09075 38.3156 5.76256 37.9874C5.43437 37.6592 5.25 37.2141 5.25 36.75V5.25C5.25 4.78587 5.43437 4.34075 5.76256 4.01256C6.09075 3.68437 6.53587 3.5 7 3.5H35C35.4641 3.5 35.9093 3.68437 36.2374 4.01256C36.5656 4.34075 36.75 4.78587 36.75 5.25V36.75C36.75 37.2141 36.5656 37.6592 36.2374 37.9874C35.9093 38.3156 35.4641 38.5 35 38.5ZM14 12.25V15.75H28V12.25H14ZM14 19.25V22.75H28V19.25H14ZM14 26.25V29.75H22.75V26.25H14Z" fill="#142837"/>
</g>
<defs>
<clipPath id="clip0_12286_9975">
<rect width="42" height="42" fill="white"/>
</clipPath>
</defs>
</svg>
