<svg xmlns="http://www.w3.org/2000/svg" width="146" height="71" viewBox="0 0 146 71" fill="none">
  <path opacity="0.7" d="M48.1505 32.021C47.6616 32.1916 47.144 32.2636 46.6279 32.2328C46.111 32.202 45.6057 32.0689 45.1403 31.8413C44.675 31.6137 44.2591 31.2959 43.9155 30.9061C43.5719 30.5163 43.3085 30.0623 43.1395 29.5698L37.0547 11.4026C36.8865 10.9152 36.8156 10.3991 36.8471 9.88396C36.8786 9.36894 37.0118 8.86537 37.238 8.40254C37.4649 7.93964 37.7799 7.52676 38.1665 7.18779C38.553 6.84887 39.0026 6.59067 39.4886 6.42822L57.4567 0.228277C57.9442 0.0466878 58.4646 -0.0279543 58.9829 0.00934403C59.5019 0.0466424 60.0066 0.195021 60.4633 0.444554C60.9279 0.664351 61.3445 0.975177 61.6888 1.35889C62.0332 1.7426 62.298 2.19151 62.4677 2.67942L68.6241 20.8467C68.9448 21.8317 68.8689 22.9038 68.4143 23.8336C67.959 24.7634 67.1609 25.4768 66.1902 25.821L48.1505 32.021Z" fill="#EBECF0"/>
  <path opacity="0.7" d="M58.2515 2.48149L40.2255 8.66144C39.365 8.95652 38.9047 9.89855 39.1975 10.7655L45.3296 28.9052C45.6224 29.7721 46.558 30.2357 47.4192 29.9406L65.4452 23.7606C66.3057 23.4655 66.766 22.5235 66.4732 21.6566L60.3411 3.5168C60.0476 2.6499 59.1127 2.18637 58.2515 2.48149Z" fill="#C1C7D0"/>
  <g opacity="0.7">
    <path opacity="0.7" d="M51.8015 22.4331L45.7883 19.3331C45.716 19.3022 45.6508 19.2565 45.5964 19.1992C45.5427 19.1417 45.5005 19.0737 45.474 18.9993C45.4468 18.9249 45.4361 18.8458 45.4404 18.7667C45.4454 18.6877 45.4661 18.6106 45.5019 18.5401L46.2894 17.0261C46.3266 16.9595 46.3767 16.9009 46.4368 16.8538C46.4963 16.8067 46.565 16.7721 46.638 16.752C46.7117 16.7318 46.7883 16.7266 46.8635 16.7365C46.9387 16.7464 47.011 16.7714 47.0768 16.8099L51.1572 18.9005L56.383 9.38437C56.4202 9.31768 56.4703 9.25907 56.5305 9.212C56.5899 9.16492 56.6586 9.13032 56.7316 9.1102C56.8053 9.09002 56.8819 9.08483 56.9571 9.0947C57.0323 9.10465 57.1046 9.12959 57.1704 9.16809L58.6737 9.96111C58.7954 10.048 58.8828 10.1744 58.9221 10.319C58.9608 10.4635 58.9493 10.6173 58.8885 10.7541L52.5173 22.2168C52.4873 22.2812 52.4443 22.3384 52.3914 22.3848C52.3377 22.4313 52.2754 22.4658 52.2074 22.4863C52.1401 22.5067 52.0692 22.5125 51.9991 22.5033C51.9289 22.4941 51.8616 22.4702 51.8015 22.4331Z" fill="#FAFBFC"/>
  </g>
  <path d="M54.2081 63.9897C53.3836 63.8092 52.6024 63.4652 51.911 62.9778C51.2195 62.4905 50.6315 61.8694 50.1801 61.1509C49.7295 60.4324 49.4243 59.6307 49.284 58.7925C49.1437 57.9544 49.1704 57.0964 49.3621 56.2686L56.161 25.5299C56.5407 23.8621 57.5598 22.4132 58.9963 21.4991C60.432 20.5848 62.1694 20.2795 63.8279 20.6496L94.2783 27.4966C95.1087 27.6708 95.8956 28.0122 96.5921 28.5004C97.2879 28.9886 97.8789 29.6134 98.3288 30.3374C98.788 31.0521 99.1012 31.8517 99.2502 32.6896C99.3992 33.5276 99.3811 34.387 99.1967 35.2177L92.3978 65.8836C92.2271 66.7208 91.8915 67.5151 91.4105 68.2197C90.9302 68.9242 90.3147 69.525 89.6001 69.9865C88.8862 70.448 88.087 70.761 87.2509 70.907C86.4147 71.053 85.5576 71.0292 84.7309 70.8367L54.2081 63.9897Z" fill="#EBECF0"/>
  <path d="M93.5439 31.0472L62.9676 24.2207C61.5246 23.8985 60.0954 24.8154 59.7757 26.2686L53.0035 57.0325C52.6838 58.4856 53.5937 59.9249 55.0367 60.247L85.613 67.0735C87.056 67.3957 88.4852 66.4788 88.8049 65.0256L95.577 34.2617C95.8975 32.8085 94.9868 31.3694 93.5439 31.0472Z" fill="#01B4D2"/>
  <path d="M67.4441 53.7197L61.6578 44.1776C61.5471 43.9525 61.5232 43.6943 61.5898 43.4524C61.6563 43.2104 61.8096 43.0018 62.0194 42.8665L64.4063 41.4097C64.5104 41.3423 64.6276 41.2965 64.7491 41.2746C64.8713 41.2529 64.9965 41.2556 65.1173 41.2827C65.2388 41.3097 65.353 41.3607 65.4543 41.4324C65.5556 41.5042 65.6424 41.5955 65.7082 41.701L69.5416 48.111L85.02 39.2973C85.2326 39.1902 85.4778 39.1682 85.7057 39.2358C85.9342 39.3033 86.1288 39.4554 86.2496 39.6615L87.6238 42.1381C87.6875 42.2476 87.7287 42.3689 87.7453 42.4947C87.762 42.6206 87.7526 42.7485 87.7193 42.8708C87.6853 42.9931 87.6274 43.1074 87.5486 43.2067C87.4705 43.3061 87.3729 43.3885 87.2622 43.4492L68.746 54.0111C68.6418 54.0784 68.5254 54.1243 68.4032 54.1461C68.2809 54.1679 68.1558 54.1652 68.035 54.1381C67.9142 54.111 67.7992 54.0601 67.698 53.9883C67.5967 53.9165 67.5106 53.8252 67.4441 53.7197Z" fill="#F4F5F7"/>
  <path d="M10.9662 25.252C11.5401 27.8148 12.8196 30.163 14.6579 32.0273C16.4962 33.8915 18.8188 35.1963 21.3596 35.7922C18.8244 36.3744 16.5039 37.6657 14.6652 39.5174C12.8265 41.3691 11.5443 43.706 10.9662 46.2592C10.3825 43.6966 9.08938 41.3531 7.23697 39.5006C5.38452 37.648 3.04858 36.3621 0.5 35.7922C3.05419 35.2085 5.39231 33.909 7.2443 32.044C9.09628 30.1789 10.3866 27.8242 10.9662 25.252Z" fill="#01B4D2"/>
  <path d="M22.7398 51.5293C22.9682 52.6071 23.5016 53.5953 24.2754 54.3746C25.0492 55.1539 26.0305 55.691 27.1007 55.921C26.0324 56.1812 25.0578 56.7373 24.2871 57.5263C23.5164 58.3154 22.9804 59.306 22.7398 60.386C22.4992 59.306 21.9632 58.3154 21.1926 57.5263C20.4218 56.7373 19.4472 56.1812 18.3789 55.921C19.4491 55.691 20.4304 55.1539 21.2043 54.3746C21.978 53.5953 22.5114 52.6071 22.7398 51.5293Z" fill="#01B4D2"/>
  <path d="M145.5 19.7617C142.868 19.1506 140.462 17.8023 138.558 15.8725C136.655 13.9427 135.333 11.5101 134.743 8.85547C134.154 11.5101 132.832 13.9427 130.928 15.8725C129.024 17.8023 126.618 19.1506 123.986 19.7617C126.617 20.3509 129.025 21.6829 130.93 23.6016C132.835 25.5203 134.158 27.946 134.743 30.5946C135.328 27.946 136.651 25.5203 138.556 23.6016C140.461 21.6829 142.87 20.3509 145.5 19.7617Z" fill="#01B4D2"/>
  <path d="M118.534 7.46586C117.434 7.21649 116.426 6.65763 115.628 5.8543C114.83 5.05096 114.276 4.03612 114.028 2.92773C113.78 4.03612 113.225 5.05096 112.427 5.8543C111.63 6.65763 110.622 7.21649 109.521 7.46586C110.622 7.71524 111.63 8.27409 112.427 9.07742C113.225 9.88082 113.78 10.8956 114.028 12.004C114.276 10.8956 114.83 9.88082 115.628 9.07742C116.426 8.27409 117.434 7.71524 118.534 7.46586Z" fill="#01B4D2"/>
</svg>